<svg width="297" height="277" viewBox="0 0 297 277" fill="none" xmlns="http://www.w3.org/2000/svg">
<rect width="297" height="277" fill="white"/>
<path d="M107 80.5L87.5 249L157 255.5L163.5 184.5L205 244.5L261 202.5L152.5 69L107 80.5Z" fill="#0999C9" fill-opacity="0.25"/>
<path d="M105.926 124.062V128H104.92V121.455H105.892V122.477H105.977C106.131 122.145 106.364 121.878 106.676 121.676C106.989 121.472 107.392 121.369 107.886 121.369C108.33 121.369 108.717 121.46 109.05 121.642C109.382 121.821 109.641 122.094 109.825 122.46C110.01 122.824 110.102 123.284 110.102 123.841V128H109.097V123.909C109.097 123.395 108.963 122.994 108.696 122.707C108.429 122.418 108.063 122.273 107.597 122.273C107.276 122.273 106.989 122.342 106.736 122.482C106.486 122.621 106.288 122.824 106.143 123.091C105.999 123.358 105.926 123.682 105.926 124.062ZM114.77 128.119C114.127 128.119 113.581 127.945 113.129 127.595C112.677 127.243 112.332 126.733 112.093 126.065C111.855 125.395 111.735 124.585 111.735 123.636C111.735 122.693 111.855 121.888 112.093 121.22C112.335 120.55 112.681 120.038 113.133 119.686C113.588 119.331 114.133 119.153 114.77 119.153C115.406 119.153 115.95 119.331 116.402 119.686C116.856 120.038 117.203 120.55 117.441 121.22C117.683 121.888 117.804 122.693 117.804 123.636C117.804 124.585 117.684 125.395 117.446 126.065C117.207 126.733 116.862 127.243 116.41 127.595C115.958 127.945 115.412 128.119 114.77 128.119ZM114.77 127.182C115.406 127.182 115.9 126.875 116.252 126.261C116.605 125.648 116.781 124.773 116.781 123.636C116.781 122.881 116.7 122.237 116.538 121.706C116.379 121.175 116.149 120.77 115.848 120.491C115.549 120.213 115.19 120.074 114.77 120.074C114.139 120.074 113.646 120.385 113.291 121.007C112.936 121.626 112.758 122.503 112.758 123.636C112.758 124.392 112.838 125.034 112.997 125.562C113.156 126.091 113.385 126.493 113.683 126.768C113.984 127.044 114.346 127.182 114.77 127.182Z" fill="black"/>
<path d="M167.926 107.062V111H166.92V104.455H167.892V105.477H167.977C168.131 105.145 168.364 104.878 168.676 104.676C168.989 104.472 169.392 104.369 169.886 104.369C170.33 104.369 170.717 104.46 171.05 104.642C171.382 104.821 171.641 105.094 171.825 105.46C172.01 105.824 172.102 106.284 172.102 106.841V111H171.097V106.909C171.097 106.395 170.963 105.994 170.696 105.707C170.429 105.418 170.063 105.273 169.597 105.273C169.276 105.273 168.989 105.342 168.736 105.482C168.486 105.621 168.288 105.824 168.143 106.091C167.999 106.358 167.926 106.682 167.926 107.062ZM176.511 102.273V111H175.454V103.381H175.403L173.272 104.795V103.722L175.454 102.273H176.511Z" fill="black"/>
<path d="M140.92 153.455V144.455H141.892V145.494H142.011C142.085 145.381 142.188 145.236 142.318 145.06C142.452 144.881 142.642 144.722 142.889 144.582C143.139 144.44 143.477 144.369 143.903 144.369C144.455 144.369 144.94 144.507 145.361 144.783C145.781 145.058 146.109 145.449 146.345 145.955C146.581 146.46 146.699 147.057 146.699 147.744C146.699 148.438 146.581 149.038 146.345 149.547C146.109 150.053 145.783 150.445 145.365 150.723C144.947 150.999 144.466 151.136 143.92 151.136C143.5 151.136 143.163 151.067 142.911 150.928C142.658 150.786 142.463 150.625 142.327 150.446C142.19 150.264 142.085 150.114 142.011 149.994H141.926V153.455H140.92ZM141.909 147.727C141.909 148.222 141.982 148.658 142.126 149.036C142.271 149.411 142.483 149.705 142.761 149.918C143.04 150.128 143.381 150.233 143.784 150.233C144.205 150.233 144.555 150.122 144.837 149.901C145.121 149.676 145.334 149.375 145.476 148.997C145.621 148.616 145.693 148.193 145.693 147.727C145.693 147.267 145.622 146.852 145.48 146.483C145.341 146.111 145.129 145.817 144.845 145.601C144.564 145.382 144.21 145.273 143.784 145.273C143.375 145.273 143.031 145.376 142.753 145.584C142.474 145.788 142.264 146.075 142.122 146.445C141.98 146.811 141.909 147.239 141.909 147.727ZM151.284 142.273V151H150.227V143.381H150.176L148.045 144.795V143.722L150.227 142.273H151.284Z" fill="black"/>
<path d="M141.057 78V69.2727H142.062V72.4943H142.148C142.222 72.3807 142.324 72.2358 142.455 72.0597C142.588 71.8807 142.778 71.7216 143.026 71.5824C143.276 71.4403 143.614 71.3693 144.04 71.3693C144.591 71.3693 145.077 71.5071 145.497 71.7827C145.918 72.0582 146.246 72.4489 146.482 72.9545C146.717 73.4602 146.835 74.0568 146.835 74.7443C146.835 75.4375 146.717 76.0384 146.482 76.5469C146.246 77.0526 145.919 77.4446 145.501 77.723C145.084 77.9986 144.602 78.1364 144.057 78.1364C143.636 78.1364 143.3 78.0668 143.047 77.9276C142.794 77.7855 142.599 77.625 142.463 77.446C142.327 77.2642 142.222 77.1136 142.148 76.9943H142.028V78H141.057ZM142.045 74.7273C142.045 75.2216 142.118 75.6577 142.263 76.0355C142.408 76.4105 142.619 76.7045 142.898 76.9176C143.176 77.1278 143.517 77.233 143.92 77.233C144.341 77.233 144.692 77.1222 144.973 76.9006C145.257 76.6761 145.47 76.375 145.612 75.9972C145.757 75.6165 145.83 75.1932 145.83 74.7273C145.83 74.267 145.759 73.8523 145.616 73.483C145.477 73.1108 145.266 72.8168 144.982 72.6009C144.7 72.3821 144.347 72.2727 143.92 72.2727C143.511 72.2727 143.168 72.3764 142.889 72.5838C142.611 72.7884 142.401 73.0753 142.259 73.4446C142.116 73.8111 142.045 74.2386 142.045 74.7273ZM151.118 78.1364C150.487 78.1364 149.943 77.9972 149.486 77.7188C149.031 77.4375 148.68 77.0455 148.433 76.5426C148.189 76.0369 148.067 75.4489 148.067 74.7784C148.067 74.108 148.189 73.517 148.433 73.0057C148.68 72.4915 149.024 72.0909 149.464 71.804C149.908 71.5142 150.425 71.3693 151.016 71.3693C151.357 71.3693 151.693 71.4261 152.026 71.5398C152.358 71.6534 152.661 71.8381 152.933 72.0938C153.206 72.3466 153.423 72.6818 153.585 73.0994C153.747 73.517 153.828 74.0312 153.828 74.642V75.0682H148.783V74.1989H152.805C152.805 73.8295 152.732 73.5 152.584 73.2102C152.439 72.9205 152.232 72.6918 151.962 72.5241C151.695 72.3565 151.379 72.2727 151.016 72.2727C150.615 72.2727 150.268 72.3722 149.976 72.571C149.686 72.767 149.463 73.0227 149.307 73.3381C149.151 73.6534 149.072 73.9915 149.072 74.3523V74.9318C149.072 75.4261 149.158 75.8452 149.328 76.1889C149.501 76.5298 149.741 76.7898 150.048 76.9688C150.355 77.1449 150.712 77.233 151.118 77.233C151.382 77.233 151.621 77.196 151.834 77.1222C152.05 77.0455 152.236 76.9318 152.392 76.7812C152.548 76.6278 152.669 76.4375 152.754 76.2102L153.726 76.483C153.624 76.8125 153.452 77.1023 153.21 77.3523C152.969 77.5994 152.67 77.7926 152.315 77.9318C151.96 78.0682 151.561 78.1364 151.118 78.1364ZM160.511 71.4545L158.091 78H157.068L154.647 71.4545H155.738L157.545 76.6705H157.613L159.42 71.4545H160.511ZM164.348 78.1364C163.718 78.1364 163.174 77.9972 162.716 77.7188C162.262 77.4375 161.911 77.0455 161.664 76.5426C161.419 76.0369 161.297 75.4489 161.297 74.7784C161.297 74.108 161.419 73.517 161.664 73.0057C161.911 72.4915 162.255 72.0909 162.695 71.804C163.138 71.5142 163.655 71.3693 164.246 71.3693C164.587 71.3693 164.924 71.4261 165.256 71.5398C165.588 71.6534 165.891 71.8381 166.164 72.0938C166.436 72.3466 166.654 72.6818 166.816 73.0994C166.978 73.517 167.059 74.0312 167.059 74.642V75.0682H162.013V74.1989H166.036C166.036 73.8295 165.962 73.5 165.814 73.2102C165.669 72.9205 165.462 72.6918 165.192 72.5241C164.925 72.3565 164.61 72.2727 164.246 72.2727C163.846 72.2727 163.499 72.3722 163.206 72.571C162.917 72.767 162.694 73.0227 162.537 73.3381C162.381 73.6534 162.303 73.9915 162.303 74.3523V74.9318C162.303 75.4261 162.388 75.8452 162.559 76.1889C162.732 76.5298 162.972 76.7898 163.279 76.9688C163.586 77.1449 163.942 77.233 164.348 77.233C164.613 77.233 164.851 77.196 165.064 77.1222C165.28 77.0455 165.466 76.9318 165.623 76.7812C165.779 76.6278 165.9 76.4375 165.985 76.2102L166.956 76.483C166.854 76.8125 166.682 77.1023 166.441 77.3523C166.199 77.5994 165.901 77.7926 165.546 77.9318C165.191 78.0682 164.792 78.1364 164.348 78.1364ZM169.594 69.2727V78H168.588V69.2727H169.594ZM176.363 78V78.9375H170.909V78H176.363ZM178.828 74.0625V78H177.823V71.4545H178.794V72.4773H178.88C179.033 72.1449 179.266 71.8778 179.578 71.6761C179.891 71.4716 180.294 71.3693 180.789 71.3693C181.232 71.3693 181.62 71.4602 181.952 71.642C182.284 71.821 182.543 72.0938 182.728 72.4602C182.912 72.8239 183.005 73.2841 183.005 73.8409V78H181.999V73.9091C181.999 73.3949 181.865 72.9943 181.598 72.7074C181.331 72.4176 180.965 72.2727 180.499 72.2727C180.178 72.2727 179.891 72.3423 179.638 72.4815C179.388 72.6207 179.191 72.8239 179.046 73.0909C178.901 73.358 178.828 73.6818 178.828 74.0625ZM187.501 78.1364C186.911 78.1364 186.392 77.9957 185.946 77.7145C185.503 77.4332 185.156 77.0398 184.906 76.5341C184.659 76.0284 184.536 75.4375 184.536 74.7614C184.536 74.0795 184.659 73.4844 184.906 72.9759C185.156 72.4673 185.503 72.0724 185.946 71.7912C186.392 71.5099 186.911 71.3693 187.501 71.3693C188.092 71.3693 188.609 71.5099 189.053 71.7912C189.499 72.0724 189.845 72.4673 190.092 72.9759C190.342 73.4844 190.467 74.0795 190.467 74.7614C190.467 75.4375 190.342 76.0284 190.092 76.5341C189.845 77.0398 189.499 77.4332 189.053 77.7145C188.609 77.9957 188.092 78.1364 187.501 78.1364ZM187.501 77.233C187.95 77.233 188.32 77.1179 188.609 76.8878C188.899 76.6577 189.114 76.3551 189.253 75.9801C189.392 75.6051 189.462 75.1989 189.462 74.7614C189.462 74.3239 189.392 73.9162 189.253 73.5384C189.114 73.1605 188.899 72.8551 188.609 72.6222C188.32 72.3892 187.95 72.2727 187.501 72.2727C187.053 72.2727 186.683 72.3892 186.393 72.6222C186.104 72.8551 185.889 73.1605 185.75 73.5384C185.611 73.9162 185.541 74.3239 185.541 74.7614C185.541 75.1989 185.611 75.6051 185.75 75.9801C185.889 76.3551 186.104 76.6577 186.393 76.8878C186.683 77.1179 187.053 77.233 187.501 77.233ZM192.002 78V71.4545H192.974V72.4432H193.042C193.162 72.1193 193.377 71.8565 193.69 71.6548C194.002 71.4531 194.355 71.3523 194.747 71.3523C194.821 71.3523 194.913 71.3537 195.024 71.3565C195.135 71.3594 195.218 71.3636 195.275 71.3693V72.392C195.241 72.3835 195.163 72.3707 195.041 72.3537C194.922 72.3338 194.795 72.3239 194.662 72.3239C194.343 72.3239 194.059 72.3906 193.809 72.5241C193.562 72.6548 193.366 72.8366 193.221 73.0696C193.079 73.2997 193.008 73.5625 193.008 73.858V78H192.002ZM196.467 78V71.4545H197.439V72.4773H197.524C197.661 72.1278 197.881 71.8565 198.185 71.6634C198.489 71.4673 198.854 71.3693 199.28 71.3693C199.712 71.3693 200.071 71.4673 200.358 71.6634C200.648 71.8565 200.874 72.1278 201.036 72.4773H201.104C201.271 72.1392 201.523 71.8707 201.858 71.6719C202.193 71.4702 202.595 71.3693 203.064 71.3693C203.649 71.3693 204.128 71.5526 204.5 71.919C204.872 72.2827 205.058 72.8494 205.058 73.6193V78H204.053V73.6193C204.053 73.1364 203.92 72.7912 203.656 72.5838C203.392 72.3764 203.081 72.2727 202.723 72.2727C202.263 72.2727 201.906 72.4119 201.653 72.6903C201.401 72.9659 201.274 73.3153 201.274 73.7386V78H200.251V73.517C200.251 73.1449 200.131 72.8452 199.889 72.6179C199.648 72.3878 199.337 72.2727 198.956 72.2727C198.695 72.2727 198.45 72.3423 198.223 72.4815C197.999 72.6207 197.817 72.8139 197.678 73.0611C197.541 73.3054 197.473 73.5881 197.473 73.9091V78H196.467ZM208.823 78.1534C208.408 78.1534 208.032 78.0753 207.694 77.919C207.356 77.7599 207.087 77.5312 206.888 77.233C206.69 76.9318 206.59 76.5682 206.59 76.142C206.59 75.767 206.664 75.4631 206.812 75.2301C206.96 74.9943 207.157 74.8097 207.404 74.6761C207.651 74.5426 207.924 74.4432 208.222 74.3778C208.523 74.3097 208.826 74.2557 209.13 74.2159C209.528 74.1648 209.85 74.1264 210.097 74.1009C210.347 74.0724 210.529 74.0256 210.643 73.9602C210.759 73.8949 210.817 73.7812 210.817 73.6193V73.5852C210.817 73.1648 210.702 72.8381 210.472 72.6051C210.245 72.3722 209.9 72.2557 209.437 72.2557C208.957 72.2557 208.58 72.3608 208.308 72.571C208.035 72.7812 207.843 73.0057 207.732 73.2443L206.778 72.9034C206.948 72.5057 207.175 72.196 207.46 71.9744C207.746 71.75 208.059 71.5937 208.397 71.5057C208.738 71.4148 209.073 71.3693 209.403 71.3693C209.613 71.3693 209.854 71.3949 210.127 71.446C210.403 71.4943 210.668 71.5952 210.924 71.7486C211.183 71.902 211.397 72.1335 211.567 72.4432C211.738 72.7528 211.823 73.1676 211.823 73.6875V78H210.817V77.1136H210.766C210.698 77.2557 210.585 77.4077 210.425 77.5696C210.266 77.7315 210.055 77.8693 209.79 77.983C209.526 78.0966 209.204 78.1534 208.823 78.1534ZM208.977 77.25C209.374 77.25 209.71 77.1719 209.982 77.0156C210.258 76.8594 210.465 76.6577 210.604 76.4105C210.746 76.1634 210.817 75.9034 210.817 75.6307V74.7102C210.775 74.7614 210.681 74.8082 210.536 74.8509C210.394 74.8906 210.229 74.9261 210.042 74.9574C209.857 74.9858 209.677 75.0114 209.501 75.0341C209.327 75.054 209.187 75.071 209.079 75.0852C208.817 75.1193 208.573 75.1747 208.346 75.2514C208.121 75.3253 207.94 75.4375 207.8 75.5881C207.664 75.7358 207.596 75.9375 207.596 76.1932C207.596 76.5426 207.725 76.8068 207.984 76.9858C208.245 77.1619 208.576 77.25 208.977 77.25ZM214.664 69.2727V78H213.659V69.2727H214.664Z" fill="#0999C9"/>
<path d="M34.5568 57.9205L33.6534 58.1761C33.5966 58.0256 33.5128 57.8793 33.402 57.7372C33.294 57.5923 33.1463 57.473 32.9588 57.3793C32.7713 57.2855 32.5312 57.2386 32.2386 57.2386C31.8381 57.2386 31.5043 57.331 31.2372 57.5156C30.973 57.6974 30.8409 57.929 30.8409 58.2102C30.8409 58.4602 30.9318 58.6577 31.1136 58.8026C31.2955 58.9474 31.5795 59.0682 31.9659 59.1648L32.9375 59.4034C33.5227 59.5455 33.9588 59.7628 34.2457 60.0554C34.5327 60.3452 34.6761 60.7187 34.6761 61.1761C34.6761 61.5511 34.5682 61.8864 34.3523 62.1818C34.1392 62.4773 33.8409 62.7102 33.4574 62.8807C33.0739 63.0511 32.6278 63.1364 32.1193 63.1364C31.4517 63.1364 30.8991 62.9915 30.4616 62.7017C30.0241 62.4119 29.7472 61.9886 29.6307 61.4318L30.5852 61.1932C30.6761 61.5455 30.848 61.8097 31.1009 61.9858C31.3565 62.1619 31.6903 62.25 32.1023 62.25C32.571 62.25 32.9432 62.1506 33.2188 61.9517C33.4972 61.75 33.6364 61.5085 33.6364 61.2273C33.6364 61 33.5568 60.8097 33.3977 60.6562C33.2386 60.5 32.9943 60.3835 32.6648 60.3068L31.5739 60.0511C30.9744 59.9091 30.5341 59.6889 30.2528 59.3906C29.9744 59.0895 29.8352 58.7131 29.8352 58.2614C29.8352 57.892 29.9389 57.5653 30.1463 57.2812C30.3565 56.9972 30.642 56.7741 31.0028 56.6122C31.3665 56.4503 31.7784 56.3693 32.2386 56.3693C32.8864 56.3693 33.3949 56.5114 33.7642 56.7955C34.1364 57.0795 34.4006 57.4545 34.5568 57.9205ZM36.19 63V56.4545H37.1957V63H36.19ZM36.7013 55.3636C36.5053 55.3636 36.3363 55.2969 36.1942 55.1634C36.055 55.0298 35.9854 54.8693 35.9854 54.6818C35.9854 54.4943 36.055 54.3338 36.1942 54.2003C36.3363 54.0668 36.5053 54 36.7013 54C36.8974 54 37.065 54.0668 37.2042 54.2003C37.3462 54.3338 37.4173 54.4943 37.4173 54.6818C37.4173 54.8693 37.3462 55.0298 37.2042 55.1634C37.065 55.2969 36.8974 55.3636 36.7013 55.3636ZM41.5092 63.1364C40.9638 63.1364 40.4822 62.9986 40.0646 62.723C39.647 62.4446 39.3203 62.0526 39.0845 61.5469C38.8487 61.0384 38.7308 60.4375 38.7308 59.7443C38.7308 59.0568 38.8487 58.4602 39.0845 57.9545C39.3203 57.4489 39.6484 57.0582 40.0689 56.7827C40.4893 56.5071 40.9751 56.3693 41.5263 56.3693C41.9524 56.3693 42.2891 56.4403 42.5362 56.5824C42.7862 56.7216 42.9766 56.8807 43.1072 57.0597C43.2408 57.2358 43.3445 57.3807 43.4183 57.4943H43.5036V54.2727H44.5092V63H43.5376V61.9943H43.4183C43.3445 62.1136 43.2393 62.2642 43.103 62.446C42.9666 62.625 42.772 62.7855 42.5192 62.9276C42.2663 63.0668 41.9297 63.1364 41.5092 63.1364ZM41.6456 62.233C42.049 62.233 42.3899 62.1278 42.6683 61.9176C42.9467 61.7045 43.1584 61.4105 43.3033 61.0355C43.4482 60.6577 43.5206 60.2216 43.5206 59.7273C43.5206 59.2386 43.4496 58.8111 43.3075 58.4446C43.1655 58.0753 42.9553 57.7884 42.6768 57.5838C42.3984 57.3764 42.0547 57.2727 41.6456 57.2727C41.2195 57.2727 40.8643 57.3821 40.5803 57.6009C40.299 57.8168 40.0874 58.1108 39.9453 58.483C39.8061 58.8523 39.7365 59.267 39.7365 59.7273C39.7365 60.1932 39.8075 60.6165 39.9496 60.9972C40.0945 61.375 40.3075 61.6761 40.5888 61.9006C40.8729 62.1222 41.2251 62.233 41.6456 62.233ZM49.2351 63.1364C48.6044 63.1364 48.0604 62.9972 47.603 62.7188C47.1484 62.4375 46.7976 62.0455 46.5504 61.5426C46.3061 61.0369 46.1839 60.4489 46.1839 59.7784C46.1839 59.108 46.3061 58.517 46.5504 58.0057C46.7976 57.4915 47.1413 57.0909 47.5817 56.804C48.0249 56.5142 48.5419 56.3693 49.1328 56.3693C49.4737 56.3693 49.8104 56.4261 50.1428 56.5398C50.4751 56.6534 50.7777 56.8381 51.0504 57.0938C51.3232 57.3466 51.5405 57.6818 51.7024 58.0994C51.8643 58.517 51.9453 59.0312 51.9453 59.642V60.0682H46.8999V59.1989H50.9226C50.9226 58.8295 50.8487 58.5 50.701 58.2102C50.5561 57.9205 50.3487 57.6918 50.0788 57.5241C49.8118 57.3565 49.4964 57.2727 49.1328 57.2727C48.7322 57.2727 48.3857 57.3722 48.093 57.571C47.8033 57.767 47.5803 58.0227 47.424 58.3381C47.2678 58.6534 47.1896 58.9915 47.1896 59.3523V59.9318C47.1896 60.4261 47.2749 60.8452 47.4453 61.1889C47.6186 61.5298 47.8587 61.7898 48.1655 61.9688C48.4723 62.1449 48.8288 62.233 49.2351 62.233C49.4993 62.233 49.7379 62.196 49.951 62.1222C50.1669 62.0455 50.353 61.9318 50.5092 61.7812C50.6655 61.6278 50.7862 61.4375 50.8714 61.2102L51.843 61.483C51.7408 61.8125 51.5689 62.1023 51.3274 62.3523C51.0859 62.5994 50.7876 62.7926 50.4325 62.9318C50.0774 63.0682 49.6783 63.1364 49.2351 63.1364ZM57.9922 63V63.9375H52.5376V63H57.9922ZM61.56 63.1364C60.9691 63.1364 60.4506 62.9957 60.0046 62.7145C59.5614 62.4332 59.2148 62.0398 58.9648 61.5341C58.7177 61.0284 58.5941 60.4375 58.5941 59.7614C58.5941 59.0795 58.7177 58.4844 58.9648 57.9759C59.2148 57.4673 59.5614 57.0724 60.0046 56.7912C60.4506 56.5099 60.9691 56.3693 61.56 56.3693C62.1509 56.3693 62.668 56.5099 63.1112 56.7912C63.5572 57.0724 63.9038 57.4673 64.1509 57.9759C64.4009 58.4844 64.5259 59.0795 64.5259 59.7614C64.5259 60.4375 64.4009 61.0284 64.1509 61.5341C63.9038 62.0398 63.5572 62.4332 63.1112 62.7145C62.668 62.9957 62.1509 63.1364 61.56 63.1364ZM61.56 62.233C62.0089 62.233 62.3782 62.1179 62.668 61.8878C62.9577 61.6577 63.1722 61.3551 63.3114 60.9801C63.4506 60.6051 63.5202 60.1989 63.5202 59.7614C63.5202 59.3239 63.4506 58.9162 63.3114 58.5384C63.1722 58.1605 62.9577 57.8551 62.668 57.6222C62.3782 57.3892 62.0089 57.2727 61.56 57.2727C61.1112 57.2727 60.7418 57.3892 60.4521 57.6222C60.1623 57.8551 59.9478 58.1605 59.8086 58.5384C59.6694 58.9162 59.5998 59.3239 59.5998 59.7614C59.5998 60.1989 59.6694 60.6051 59.8086 60.9801C59.9478 61.3551 60.1623 61.6577 60.4521 61.8878C60.7418 62.1179 61.1112 62.233 61.56 62.233ZM68.9759 56.4545V57.3068H65.4474V56.4545H68.9759ZM66.5043 63V55.5511C66.5043 55.1761 66.5923 54.8636 66.7685 54.6136C66.9446 54.3636 67.1733 54.1761 67.4545 54.0511C67.7358 53.9261 68.0327 53.8636 68.3452 53.8636C68.5923 53.8636 68.794 53.8835 68.9503 53.9233C69.1065 53.9631 69.223 54 69.2997 54.0341L69.0099 54.9034C68.9588 54.8864 68.8878 54.8651 68.7969 54.8395C68.7088 54.8139 68.5923 54.8011 68.4474 54.8011C68.1151 54.8011 67.875 54.8849 67.7273 55.0526C67.5824 55.2202 67.5099 55.4659 67.5099 55.7898V63H66.5043ZM73.3001 56.4545V57.3068H69.7717V56.4545H73.3001ZM70.8285 63V55.5511C70.8285 55.1761 70.9165 54.8636 71.0927 54.6136C71.2688 54.3636 71.4975 54.1761 71.7788 54.0511C72.06 53.9261 72.3569 53.8636 72.6694 53.8636C72.9165 53.8636 73.1183 53.8835 73.2745 53.9233C73.4308 53.9631 73.5472 54 73.6239 54.0341L73.3342 54.9034C73.283 54.8864 73.212 54.8651 73.1211 54.8395C73.033 54.8139 72.9165 54.8011 72.7717 54.8011C72.4393 54.8011 72.1992 54.8849 72.0515 55.0526C71.9066 55.2202 71.8342 55.4659 71.8342 55.7898V63H70.8285ZM79.0763 57.9205L78.1729 58.1761C78.1161 58.0256 78.0323 57.8793 77.9215 57.7372C77.8136 57.5923 77.6658 57.473 77.4783 57.3793C77.2908 57.2855 77.0508 57.2386 76.7582 57.2386C76.3576 57.2386 76.0238 57.331 75.7567 57.5156C75.4925 57.6974 75.3604 57.929 75.3604 58.2102C75.3604 58.4602 75.4513 58.6577 75.6332 58.8026C75.815 58.9474 76.0991 59.0682 76.4854 59.1648L77.457 59.4034C78.0423 59.5455 78.4783 59.7628 78.7653 60.0554C79.0522 60.3452 79.1957 60.7187 79.1957 61.1761C79.1957 61.5511 79.0877 61.8864 78.8718 62.1818C78.6587 62.4773 78.3604 62.7102 77.9769 62.8807C77.5934 63.0511 77.1474 63.1364 76.6388 63.1364C75.9712 63.1364 75.4187 62.9915 74.9812 62.7017C74.5437 62.4119 74.2667 61.9886 74.1502 61.4318L75.1048 61.1932C75.1957 61.5455 75.3675 61.8097 75.6204 61.9858C75.8761 62.1619 76.2099 62.25 76.6218 62.25C77.0906 62.25 77.4627 62.1506 77.7383 61.9517C78.0167 61.75 78.1559 61.5085 78.1559 61.2273C78.1559 61 78.0763 60.8097 77.9173 60.6562C77.7582 60.5 77.5138 60.3835 77.1843 60.3068L76.0934 60.0511C75.494 59.9091 75.0536 59.6889 74.7724 59.3906C74.494 59.0895 74.3548 58.7131 74.3548 58.2614C74.3548 57.892 74.4585 57.5653 74.6658 57.2812C74.8761 56.9972 75.1616 56.7741 75.5224 56.6122C75.886 56.4503 76.2979 56.3693 76.7582 56.3693C77.4059 56.3693 77.9144 56.5114 78.2837 56.7955C78.6559 57.0795 78.9201 57.4545 79.0763 57.9205ZM83.4538 63.1364C82.8232 63.1364 82.2791 62.9972 81.8217 62.7188C81.3672 62.4375 81.0163 62.0455 80.7692 61.5426C80.5249 61.0369 80.4027 60.4489 80.4027 59.7784C80.4027 59.108 80.5249 58.517 80.7692 58.0057C81.0163 57.4915 81.3601 57.0909 81.8004 56.804C82.2436 56.5142 82.7607 56.3693 83.3516 56.3693C83.6925 56.3693 84.0291 56.4261 84.3615 56.5398C84.6939 56.6534 84.9964 56.8381 85.2692 57.0938C85.5419 57.3466 85.7592 57.6818 85.9212 58.0994C86.0831 58.517 86.1641 59.0312 86.1641 59.642V60.0682H81.1186V59.1989H85.1413C85.1413 58.8295 85.0675 58.5 84.9197 58.2102C84.7749 57.9205 84.5675 57.6918 84.2976 57.5241C84.0305 57.3565 83.7152 57.2727 83.3516 57.2727C82.951 57.2727 82.6044 57.3722 82.3118 57.571C82.022 57.767 81.799 58.0227 81.6428 58.3381C81.4865 58.6534 81.4084 58.9915 81.4084 59.3523V59.9318C81.4084 60.4261 81.4936 60.8452 81.6641 61.1889C81.8374 61.5298 82.0774 61.7898 82.3842 61.9688C82.6911 62.1449 83.0476 62.233 83.4538 62.233C83.718 62.233 83.9567 62.196 84.1697 62.1222C84.3857 62.0455 84.5717 61.9318 84.728 61.7812C84.8842 61.6278 85.005 61.4375 85.0902 61.2102L86.0618 61.483C85.9595 61.8125 85.7876 62.1023 85.5462 62.3523C85.3047 62.5994 85.0064 62.7926 84.6513 62.9318C84.2962 63.0682 83.897 63.1364 83.4538 63.1364ZM90.5405 56.4545V57.3068H87.1484V56.4545H90.5405ZM88.1371 54.8864H89.1428V61.125C89.1428 61.4091 89.1839 61.6222 89.2663 61.7642C89.3516 61.9034 89.4595 61.9972 89.5902 62.0455C89.7237 62.0909 89.8643 62.1136 90.0121 62.1136C90.1229 62.1136 90.2138 62.108 90.2848 62.0966C90.3558 62.0824 90.4126 62.071 90.4553 62.0625L90.6598 62.9659C90.5916 62.9915 90.4964 63.017 90.3743 63.0426C90.2521 63.071 90.0973 63.0852 89.9098 63.0852C89.6257 63.0852 89.3473 63.0241 89.0746 62.902C88.8047 62.7798 88.5803 62.5938 88.4013 62.3438C88.2251 62.0938 88.1371 61.7784 88.1371 61.3977V54.8864Z" fill="#FF003C"/>
<path d="M80.7585 33V24.2727H84.2528C84.8949 24.2727 85.4304 24.3679 85.8594 24.5582C86.2884 24.7486 86.6108 25.0128 86.8267 25.3509C87.0426 25.6861 87.1506 26.0724 87.1506 26.5099C87.1506 26.8509 87.0824 27.1506 86.946 27.4091C86.8097 27.6648 86.6222 27.875 86.3835 28.0398C86.1477 28.2017 85.8778 28.3168 85.5739 28.3849V28.4702C85.9063 28.4844 86.2173 28.5781 86.5071 28.7514C86.7997 28.9247 87.0369 29.1676 87.2188 29.4801C87.4006 29.7898 87.4915 30.1591 87.4915 30.5881C87.4915 31.0511 87.3764 31.4645 87.1463 31.8281C86.919 32.1889 86.5824 32.4744 86.1364 32.6847C85.6903 32.8949 85.1406 33 84.4872 33H80.7585ZM82.6037 31.4915H84.108C84.6222 31.4915 84.9972 31.3935 85.233 31.1974C85.4688 30.9986 85.5866 30.7344 85.5866 30.4048C85.5866 30.1634 85.5284 29.9503 85.4119 29.7656C85.2955 29.581 85.1293 29.4361 84.9134 29.331C84.7003 29.2259 84.446 29.1733 84.1506 29.1733H82.6037V31.4915ZM82.6037 27.9247H83.9716C84.2244 27.9247 84.4489 27.8807 84.6449 27.7926C84.8438 27.7017 85 27.5739 85.1136 27.4091C85.2301 27.2443 85.2884 27.0469 85.2884 26.8168C85.2884 26.5014 85.1761 26.2472 84.9517 26.054C84.7301 25.8608 84.4148 25.7642 84.0057 25.7642H82.6037V27.9247ZM91.641 33.1278C90.9677 33.1278 90.3881 32.9915 89.9023 32.7188C89.4194 32.4432 89.0472 32.054 88.7859 31.5511C88.5245 31.0455 88.3938 30.4474 88.3938 29.7571C88.3938 29.0838 88.5245 28.4929 88.7859 27.9844C89.0472 27.4759 89.4151 27.0795 89.8896 26.7955C90.3668 26.5114 90.9265 26.3693 91.5685 26.3693C92.0004 26.3693 92.4023 26.4389 92.7745 26.5781C93.1495 26.7145 93.4762 26.9205 93.7546 27.196C94.0359 27.4716 94.2546 27.8182 94.4109 28.2358C94.5671 28.6506 94.6452 29.1364 94.6452 29.6932V30.1918H89.1183V29.0668H92.9364C92.9364 28.8054 92.8796 28.5739 92.766 28.3722C92.6523 28.1705 92.4947 28.0128 92.293 27.8991C92.0941 27.7827 91.8626 27.7244 91.5984 27.7244C91.3228 27.7244 91.0785 27.7884 90.8654 27.9162C90.6552 28.0412 90.4904 28.2102 90.3711 28.4233C90.2518 28.6335 90.1907 28.8679 90.1879 29.1264V30.196C90.1879 30.5199 90.2475 30.7997 90.3668 31.0355C90.489 31.2713 90.6609 31.4531 90.8825 31.581C91.104 31.7088 91.3668 31.7727 91.6708 31.7727C91.8725 31.7727 92.0572 31.7443 92.2248 31.6875C92.3924 31.6307 92.5359 31.5455 92.6552 31.4318C92.7745 31.3182 92.8654 31.179 92.9279 31.0142L94.6069 31.125C94.5217 31.5284 94.3469 31.8807 94.0827 32.1818C93.8214 32.4801 93.4833 32.7131 93.0685 32.8807C92.6566 33.0455 92.1808 33.1278 91.641 33.1278ZM101.756 26.4545L99.468 33H97.4226L95.1342 26.4545H97.0518L98.4112 31.1378H98.4794L99.8345 26.4545H101.756ZM105.457 33.1278C104.784 33.1278 104.205 32.9915 103.719 32.7188C103.236 32.4432 102.864 32.054 102.602 31.5511C102.341 31.0455 102.21 30.4474 102.21 29.7571C102.21 29.0838 102.341 28.4929 102.602 27.9844C102.864 27.4759 103.232 27.0795 103.706 26.7955C104.183 26.5114 104.743 26.3693 105.385 26.3693C105.817 26.3693 106.219 26.4389 106.591 26.5781C106.966 26.7145 107.293 26.9205 107.571 27.196C107.852 27.4716 108.071 27.8182 108.227 28.2358C108.384 28.6506 108.462 29.1364 108.462 29.6932V30.1918H102.935V29.0668H106.753C106.753 28.8054 106.696 28.5739 106.582 28.3722C106.469 28.1705 106.311 28.0128 106.109 27.8991C105.911 27.7827 105.679 27.7244 105.415 27.7244C105.139 27.7244 104.895 27.7884 104.682 27.9162C104.472 28.0412 104.307 28.2102 104.188 28.4233C104.068 28.6335 104.007 28.8679 104.004 29.1264V30.196C104.004 30.5199 104.064 30.7997 104.183 31.0355C104.305 31.2713 104.477 31.4531 104.699 31.581C104.92 31.7088 105.183 31.7727 105.487 31.7727C105.689 31.7727 105.874 31.7443 106.041 31.6875C106.209 31.6307 106.352 31.5455 106.472 31.4318C106.591 31.3182 106.682 31.179 106.744 31.0142L108.423 31.125C108.338 31.5284 108.163 31.8807 107.899 32.1818C107.638 32.4801 107.3 32.7131 106.885 32.8807C106.473 33.0455 105.997 33.1278 105.457 33.1278ZM111.462 24.2727V33H109.646V24.2727H111.462ZM121.139 28.321L119.477 28.4233C119.449 28.2812 119.388 28.1534 119.294 28.0398C119.2 27.9233 119.077 27.831 118.923 27.7628C118.773 27.6918 118.592 27.6562 118.382 27.6562C118.101 27.6562 117.864 27.7159 117.67 27.8352C117.477 27.9517 117.381 28.108 117.381 28.304C117.381 28.4602 117.443 28.5923 117.568 28.7003C117.693 28.8082 117.908 28.8949 118.212 28.9602L119.396 29.1989C120.033 29.3295 120.507 29.5398 120.82 29.8295C121.132 30.1193 121.288 30.5 121.288 30.9716C121.288 31.4006 121.162 31.777 120.909 32.1009C120.659 32.4247 120.315 32.6776 119.878 32.8594C119.443 33.0384 118.942 33.1278 118.374 33.1278C117.507 33.1278 116.817 32.9474 116.303 32.5866C115.791 32.223 115.491 31.7287 115.403 31.1037L117.189 31.0099C117.243 31.2741 117.374 31.4759 117.581 31.6151C117.788 31.7514 118.054 31.8196 118.378 31.8196C118.696 31.8196 118.952 31.7585 119.145 31.6364C119.341 31.5114 119.44 31.3509 119.443 31.1548C119.44 30.9901 119.371 30.8551 119.234 30.75C119.098 30.642 118.888 30.5597 118.604 30.5028L117.47 30.277C116.831 30.1491 116.355 29.9276 116.043 29.6122C115.733 29.2969 115.578 28.8949 115.578 28.4062C115.578 27.9858 115.692 27.6236 115.919 27.3196C116.149 27.0156 116.472 26.7812 116.886 26.6165C117.304 26.4517 117.793 26.3693 118.352 26.3693C119.179 26.3693 119.83 26.544 120.304 26.8935C120.781 27.2429 121.06 27.7187 121.139 28.321ZM122.431 33V26.4545H124.247V33H122.431ZM123.343 25.6108C123.074 25.6108 122.842 25.5213 122.649 25.3423C122.458 25.1605 122.363 24.9432 122.363 24.6903C122.363 24.4403 122.458 24.2259 122.649 24.0469C122.842 23.8651 123.074 23.7741 123.343 23.7741C123.613 23.7741 123.843 23.8651 124.034 24.0469C124.227 24.2259 124.324 24.4403 124.324 24.6903C124.324 24.9432 124.227 25.1605 124.034 25.3423C123.843 25.5213 123.613 25.6108 123.343 25.6108ZM128.113 33.1065C127.616 33.1065 127.165 32.9787 126.762 32.723C126.362 32.4645 126.043 32.0852 125.808 31.5852C125.575 31.0824 125.458 30.4659 125.458 29.7358C125.458 28.9858 125.579 28.3622 125.82 27.8651C126.062 27.3651 126.383 26.9915 126.783 26.7443C127.187 26.4943 127.629 26.3693 128.109 26.3693C128.475 26.3693 128.781 26.4318 129.025 26.5568C129.272 26.679 129.471 26.8324 129.621 27.017C129.775 27.1989 129.891 27.3778 129.971 27.554H130.026V24.2727H131.837V33H130.048V31.9517H129.971C129.886 32.1335 129.765 32.3139 129.609 32.4929C129.455 32.669 129.255 32.8153 129.008 32.9318C128.763 33.0483 128.465 33.1065 128.113 33.1065ZM128.688 31.6619C128.981 31.6619 129.228 31.5824 129.43 31.4233C129.634 31.2614 129.79 31.0355 129.898 30.7457C130.009 30.456 130.065 30.1165 130.065 29.7273C130.065 29.3381 130.011 29 129.903 28.7131C129.795 28.4261 129.638 28.2045 129.434 28.0483C129.229 27.892 128.981 27.8139 128.688 27.8139C128.39 27.8139 128.138 27.8949 127.934 28.0568C127.729 28.2187 127.575 28.4432 127.469 28.7301C127.364 29.017 127.312 29.3494 127.312 29.7273C127.312 30.108 127.364 30.4446 127.469 30.7372C127.577 31.027 127.732 31.2543 127.934 31.419C128.138 31.581 128.39 31.6619 128.688 31.6619ZM136.313 33.1278C135.64 33.1278 135.06 32.9915 134.574 32.7188C134.091 32.4432 133.719 32.054 133.458 31.5511C133.196 31.0455 133.066 30.4474 133.066 29.7571C133.066 29.0838 133.196 28.4929 133.458 27.9844C133.719 27.4759 134.087 27.0795 134.561 26.7955C135.039 26.5114 135.598 26.3693 136.24 26.3693C136.672 26.3693 137.074 26.4389 137.446 26.5781C137.821 26.7145 138.148 26.9205 138.426 27.196C138.708 27.4716 138.926 27.8182 139.083 28.2358C139.239 28.6506 139.317 29.1364 139.317 29.6932V30.1918H133.79V29.0668H137.608C137.608 28.8054 137.551 28.5739 137.438 28.3722C137.324 28.1705 137.167 28.0128 136.965 27.8991C136.766 27.7827 136.534 27.7244 136.27 27.7244C135.995 27.7244 135.75 27.7884 135.537 27.9162C135.327 28.0412 135.162 28.2102 135.043 28.4233C134.924 28.6335 134.863 28.8679 134.86 29.1264V30.196C134.86 30.5199 134.919 30.7997 135.039 31.0355C135.161 31.2713 135.333 31.4531 135.554 31.581C135.776 31.7088 136.039 31.7727 136.343 31.7727C136.544 31.7727 136.729 31.7443 136.897 31.6875C137.064 31.6307 137.208 31.5455 137.327 31.4318C137.446 31.3182 137.537 31.179 137.6 31.0142L139.279 31.125C139.194 31.5284 139.019 31.8807 138.755 32.1818C138.493 32.4801 138.155 32.7131 137.74 32.8807C137.328 33.0455 136.853 33.1278 136.313 33.1278ZM146.237 33.1278C145.575 33.1278 145.002 32.9872 144.519 32.706C144.039 32.4219 143.668 32.027 143.407 31.5213C143.146 31.0128 143.015 30.4233 143.015 29.7528C143.015 29.0767 143.146 28.4858 143.407 27.9801C143.668 27.4716 144.039 27.0767 144.519 26.7955C145.002 26.5114 145.575 26.3693 146.237 26.3693C146.898 26.3693 147.469 26.5114 147.95 26.7955C148.433 27.0767 148.805 27.4716 149.066 27.9801C149.327 28.4858 149.458 29.0767 149.458 29.7528C149.458 30.4233 149.327 31.0128 149.066 31.5213C148.805 32.027 148.433 32.4219 147.95 32.706C147.469 32.9872 146.898 33.1278 146.237 33.1278ZM146.245 31.7216C146.546 31.7216 146.798 31.6364 146.999 31.4659C147.201 31.2926 147.353 31.0568 147.455 30.7585C147.56 30.4602 147.613 30.1207 147.613 29.7401C147.613 29.3594 147.56 29.0199 147.455 28.7216C147.353 28.4233 147.201 28.1875 146.999 28.0142C146.798 27.8409 146.546 27.7543 146.245 27.7543C145.941 27.7543 145.685 27.8409 145.478 28.0142C145.273 28.1875 145.119 28.4233 145.013 28.7216C144.911 29.0199 144.86 29.3594 144.86 29.7401C144.86 30.1207 144.911 30.4602 145.013 30.7585C145.119 31.0568 145.273 31.2926 145.478 31.4659C145.685 31.6364 145.941 31.7216 146.245 31.7216ZM154.158 26.4545V27.8182H150.119V26.4545H154.158ZM151.043 33V25.9815C151.043 25.5071 151.136 25.1136 151.32 24.8011C151.508 24.4886 151.763 24.2543 152.087 24.098C152.411 23.9418 152.779 23.8636 153.191 23.8636C153.469 23.8636 153.724 23.8849 153.954 23.9276C154.187 23.9702 154.36 24.0085 154.474 24.0426L154.15 25.4062C154.079 25.3835 153.991 25.3622 153.886 25.3423C153.783 25.3224 153.678 25.3125 153.57 25.3125C153.303 25.3125 153.117 25.375 153.012 25.5C152.907 25.6222 152.854 25.794 152.854 26.0156V33H151.043ZM158.787 26.4545V27.8182H154.748V26.4545H158.787ZM155.672 33V25.9815C155.672 25.5071 155.765 25.1136 155.949 24.8011C156.137 24.4886 156.392 24.2543 156.716 24.098C157.04 23.9418 157.408 23.8636 157.82 23.8636C158.098 23.8636 158.353 23.8849 158.583 23.9276C158.816 23.9702 158.989 24.0085 159.103 24.0426L158.779 25.4062C158.708 25.3835 158.62 25.3622 158.515 25.3423C158.412 25.3224 158.307 25.3125 158.199 25.3125C157.932 25.3125 157.746 25.375 157.641 25.5C157.536 25.6222 157.483 25.794 157.483 26.0156V33H155.672ZM165.131 28.321L163.469 28.4233C163.441 28.2812 163.38 28.1534 163.286 28.0398C163.192 27.9233 163.069 27.831 162.915 27.7628C162.765 27.6918 162.585 27.6562 162.374 27.6562C162.093 27.6562 161.856 27.7159 161.663 27.8352C161.469 27.9517 161.373 28.108 161.373 28.304C161.373 28.4602 161.435 28.5923 161.56 28.7003C161.685 28.8082 161.9 28.8949 162.204 28.9602L163.388 29.1989C164.025 29.3295 164.499 29.5398 164.812 29.8295C165.124 30.1193 165.281 30.5 165.281 30.9716C165.281 31.4006 165.154 31.777 164.901 32.1009C164.651 32.4247 164.308 32.6776 163.87 32.8594C163.435 33.0384 162.934 33.1278 162.366 33.1278C161.499 33.1278 160.809 32.9474 160.295 32.5866C159.783 32.223 159.484 31.7287 159.396 31.1037L161.181 31.0099C161.235 31.2741 161.366 31.4759 161.573 31.6151C161.781 31.7514 162.046 31.8196 162.37 31.8196C162.688 31.8196 162.944 31.7585 163.137 31.6364C163.333 31.5114 163.433 31.3509 163.435 31.1548C163.433 30.9901 163.363 30.8551 163.227 30.75C163.09 30.642 162.88 30.5597 162.596 30.5028L161.462 30.277C160.823 30.1491 160.347 29.9276 160.035 29.6122C159.725 29.2969 159.57 28.8949 159.57 28.4062C159.57 27.9858 159.684 27.6236 159.911 27.3196C160.141 27.0156 160.464 26.7812 160.879 26.6165C161.296 26.4517 161.785 26.3693 162.344 26.3693C163.171 26.3693 163.822 26.544 164.296 26.8935C164.773 27.2429 165.052 27.7187 165.131 28.321ZM169.407 33.1278C168.733 33.1278 168.154 32.9915 167.668 32.7188C167.185 32.4432 166.813 32.054 166.551 31.5511C166.29 31.0455 166.159 30.4474 166.159 29.7571C166.159 29.0838 166.29 28.4929 166.551 27.9844C166.813 27.4759 167.181 27.0795 167.655 26.7955C168.132 26.5114 168.692 26.3693 169.334 26.3693C169.766 26.3693 170.168 26.4389 170.54 26.5781C170.915 26.7145 171.242 26.9205 171.52 27.196C171.801 27.4716 172.02 27.8182 172.176 28.2358C172.333 28.6506 172.411 29.1364 172.411 29.6932V30.1918H166.884V29.0668H170.702C170.702 28.8054 170.645 28.5739 170.532 28.3722C170.418 28.1705 170.26 28.0128 170.059 27.8991C169.86 27.7827 169.628 27.7244 169.364 27.7244C169.088 27.7244 168.844 27.7884 168.631 27.9162C168.421 28.0412 168.256 28.2102 168.137 28.4233C168.017 28.6335 167.956 28.8679 167.953 29.1264V30.196C167.953 30.5199 168.013 30.7997 168.132 31.0355C168.255 31.2713 168.426 31.4531 168.648 31.581C168.87 31.7088 169.132 31.7727 169.436 31.7727C169.638 31.7727 169.823 31.7443 169.99 31.6875C170.158 31.6307 170.301 31.5455 170.421 31.4318C170.54 31.3182 170.631 31.179 170.694 31.0142L172.373 31.125C172.287 31.5284 172.113 31.8807 171.848 32.1818C171.587 32.4801 171.249 32.7131 170.834 32.8807C170.422 33.0455 169.946 33.1278 169.407 33.1278ZM177.077 26.4545V27.8182H173.135V26.4545H177.077ZM174.03 24.8864H175.846V30.9886C175.846 31.1562 175.871 31.2869 175.922 31.3807C175.973 31.4716 176.044 31.5355 176.135 31.5724C176.229 31.6094 176.337 31.6278 176.459 31.6278C176.544 31.6278 176.63 31.6207 176.715 31.6065C176.8 31.5895 176.865 31.5767 176.911 31.5682L177.196 32.919C177.105 32.9474 176.978 32.9801 176.813 33.017C176.648 33.0568 176.448 33.081 176.212 33.0895C175.775 33.1065 175.391 33.0483 175.061 32.9148C174.735 32.7812 174.48 32.5739 174.299 32.2926C174.117 32.0114 174.027 31.6562 174.03 31.2273V24.8864Z" fill="black"/>
<line x1="124.503" y1="253.949" x2="139.503" y2="108.949" stroke="black" stroke-dasharray="2 2"/>
<line x1="140.393" y1="108.691" x2="231.393" y2="224.691" stroke="black" stroke-dasharray="2 2"/>
<line x1="180.522" y1="242.146" x2="108.522" y2="7.14647" stroke="black" stroke-opacity="0.3" stroke-dasharray="2 2"/>
<path d="M129 75L126.427 86.2567L137.462 82.8564L129 75ZM139.523 109.149L140.478 108.855L132.606 83.3065L131.65 83.6009L130.695 83.8954L138.567 109.444L139.523 109.149Z" fill="#0999C9"/>
<path d="M105 106L114.375 112.741L115.525 101.251L105 106ZM139.944 109.497L140.043 108.502L114.055 105.901L113.955 106.896L113.856 107.891L139.844 110.492L139.944 109.497Z" fill="black"/>
<path d="M168 88L156.536 89.3812L163.464 98.6188L168 88ZM140 109L140.6 109.8L161.4 94.2L160.8 93.4L160.2 92.6L139.4 108.2L140 109Z" fill="black"/>
<line x1="54.8787" y1="93.5149" x2="198.879" y2="57.5149" stroke="black" stroke-opacity="0.3" stroke-dasharray="2 2"/>
<line x1="96.5033" y1="172.943" x2="110.503" y2="51.9425" stroke="black" stroke-opacity="0.3" stroke-dasharray="2 2"/>
<circle cx="140" cy="109" r="5" fill="black"/>
<path d="M130 75L107 81" stroke="#FF003C" stroke-width="2"/>
<path d="M129.335 98.2784V99.2159H125.176V98.2784H129.335ZM129.949 98.1761V99.2159C129.949 100.108 129.838 100.842 129.616 101.419C129.395 101.996 129.082 102.423 128.679 102.702C128.276 102.98 127.801 103.119 127.256 103.119C126.71 103.119 126.233 102.98 125.824 102.702C125.415 102.423 125.097 101.996 124.869 101.419C124.642 100.842 124.528 100.108 124.528 99.2159V98.1761C124.528 97.2898 124.641 96.5639 124.865 95.9986C125.089 95.4332 125.405 95.0156 125.811 94.7457C126.217 94.4759 126.693 94.3409 127.239 94.3409C127.79 94.3409 128.268 94.4759 128.675 94.7457C129.081 95.0156 129.395 95.4332 129.616 95.9986C129.838 96.5639 129.949 97.2898 129.949 98.1761ZM128.926 99.4034V97.9886C128.926 97.4034 128.855 96.9062 128.713 96.4972C128.571 96.0881 128.374 95.777 128.121 95.5639C127.868 95.3509 127.574 95.2443 127.239 95.2443C126.744 95.2443 126.337 95.483 126.016 95.9602C125.695 96.4347 125.534 97.1108 125.534 97.9886V99.4034C125.534 100.281 125.697 100.97 126.024 101.47C126.351 101.967 126.761 102.216 127.256 102.216C127.591 102.216 127.884 102.104 128.134 101.879C128.384 101.655 128.578 101.332 128.717 100.912C128.857 100.491 128.926 99.9886 128.926 99.4034Z" fill="black"/>
<path d="M31.108 74.4915V73.7244H35.483V74.4915H31.108ZM31.108 76.5938V75.8267H35.483V76.5938H31.108ZM42.5435 72.5455V73.2557H39.7168V72.5455H42.5435ZM40.5407 71.2386H41.3787V76.4375C41.3787 76.6742 41.4131 76.8518 41.4817 76.9702C41.5527 77.0862 41.6427 77.1643 41.7516 77.2045C41.8629 77.2424 41.9801 77.2614 42.1032 77.2614C42.1955 77.2614 42.2712 77.2566 42.3304 77.2472C42.3896 77.2353 42.437 77.2259 42.4725 77.2188L42.6429 77.9716C42.5861 77.9929 42.5068 78.0142 42.405 78.0355C42.3032 78.0592 42.1742 78.071 42.0179 78.071C41.7812 78.071 41.5492 78.0201 41.3219 77.9183C41.097 77.8165 40.91 77.6615 40.7608 77.4531C40.6141 77.2448 40.5407 76.982 40.5407 76.6648V71.2386ZM45.4093 78.1278C45.0636 78.1278 44.7499 78.0627 44.4682 77.9325C44.1865 77.8 43.9628 77.6094 43.7971 77.3608C43.6313 77.1098 43.5485 76.8068 43.5485 76.4517C43.5485 76.1392 43.61 75.8859 43.7331 75.6918C43.8562 75.4953 44.0208 75.3414 44.2267 75.2301C44.4327 75.1188 44.66 75.036 44.9086 74.9815C45.1595 74.9247 45.4116 74.8797 45.665 74.8466C45.9964 74.804 46.2651 74.772 46.4711 74.7507C46.6794 74.727 46.8309 74.688 46.9256 74.6335C47.0227 74.5791 47.0712 74.4844 47.0712 74.3494V74.321C47.0712 73.9706 46.9753 73.6984 46.7836 73.5043C46.5942 73.3101 46.3065 73.2131 45.9206 73.2131C45.5205 73.2131 45.2069 73.3007 44.9796 73.4759C44.7523 73.651 44.5925 73.8381 44.5002 74.0369L43.7047 73.7528C43.8468 73.4214 44.0362 73.1634 44.2729 72.9787C44.512 72.7917 44.7724 72.6615 45.0542 72.5881C45.3382 72.5123 45.6176 72.4744 45.8922 72.4744C46.0674 72.4744 46.2686 72.4957 46.4959 72.5384C46.7256 72.5786 46.9469 72.6626 47.16 72.7905C47.3754 72.9183 47.5542 73.1113 47.6962 73.3693C47.8382 73.6274 47.9093 73.973 47.9093 74.4062V78H47.0712V77.2614H47.0286C46.9718 77.3797 46.8771 77.5064 46.7445 77.6413C46.6119 77.7763 46.4355 77.8911 46.2154 77.9858C45.9952 78.0805 45.7265 78.1278 45.4093 78.1278ZM45.5371 77.375C45.8685 77.375 46.1479 77.3099 46.3752 77.1797C46.6048 77.0495 46.7776 76.8814 46.8936 76.6754C47.012 76.4695 47.0712 76.2528 47.0712 76.0256V75.2585C47.0357 75.3011 46.9576 75.3402 46.8368 75.3757C46.7185 75.4089 46.5811 75.4384 46.4249 75.4645C46.271 75.4882 46.1207 75.5095 45.9739 75.5284C45.8295 75.545 45.7123 75.5592 45.6223 75.571C45.4045 75.5994 45.2009 75.6456 45.0115 75.7095C44.8245 75.7711 44.673 75.8646 44.557 75.9901C44.4434 76.1132 44.3865 76.2812 44.3865 76.4943C44.3865 76.7855 44.4943 77.0057 44.7097 77.1548C44.9275 77.3016 45.2033 77.375 45.5371 77.375ZM50.277 74.7188V78H49.4389V72.5455H50.2486V73.3977H50.3196C50.4474 73.1207 50.6416 72.8982 50.902 72.7301C51.1624 72.5597 51.4986 72.4744 51.9105 72.4744C52.2798 72.4744 52.603 72.5502 52.88 72.7017C53.157 72.8509 53.3724 73.0781 53.5263 73.3835C53.6802 73.6866 53.7571 74.0701 53.7571 74.5341V78H52.919V74.5909C52.919 74.1624 52.8078 73.8286 52.5852 73.5895C52.3627 73.348 52.0573 73.2273 51.669 73.2273C51.4015 73.2273 51.1624 73.2853 50.9517 73.4013C50.7434 73.5173 50.5788 73.6866 50.4581 73.9091C50.3374 74.1316 50.277 74.4015 50.277 74.7188ZM55.5868 74.9318C55.5868 74.0369 55.7028 73.2143 55.9348 72.4638C56.1692 71.7109 56.503 71.0185 56.9363 70.3864H57.6749C57.5044 70.6207 57.3446 70.9096 57.1955 71.2528C57.0487 71.5937 56.9197 71.969 56.8084 72.3786C56.6971 72.7857 56.6096 73.2071 56.5456 73.6428C56.4841 74.0784 56.4533 74.508 56.4533 74.9318C56.4533 75.4953 56.5078 76.067 56.6167 76.647C56.7256 77.227 56.8723 77.7656 57.057 78.2628C57.2417 78.7599 57.4476 79.1648 57.6749 79.4773H56.9363C56.503 78.8452 56.1692 78.1539 55.9348 77.4034C55.7028 76.6506 55.5868 75.8267 55.5868 74.9318ZM62.5906 74.0653V74.8466H59.1246V74.0653H62.5906ZM63.1019 73.9801V74.8466C63.1019 75.59 63.0096 76.2019 62.8249 76.6825C62.6403 77.1631 62.3799 77.5194 62.0437 77.7514C61.7075 77.9834 61.3121 78.0994 60.8576 78.0994C60.4031 78.0994 60.0053 77.9834 59.6644 77.7514C59.3235 77.5194 59.0584 77.1631 58.869 76.6825C58.6796 76.2019 58.5849 75.59 58.5849 74.8466V73.9801C58.5849 73.2415 58.6784 72.6366 58.8654 72.1655C59.0524 71.6944 59.3152 71.3464 59.6538 71.1214C59.9923 70.8965 60.3888 70.7841 60.8434 70.7841C61.3027 70.7841 61.7016 70.8965 62.0401 71.1214C62.3787 71.3464 62.6403 71.6944 62.8249 72.1655C63.0096 72.6366 63.1019 73.2415 63.1019 73.9801ZM62.2496 75.0028V73.8239C62.2496 73.3362 62.1905 72.9219 62.0721 72.581C61.9537 72.2401 61.7892 71.9808 61.5785 71.8033C61.3678 71.6257 61.1228 71.5369 60.8434 71.5369C60.4315 71.5369 60.0917 71.7358 59.8242 72.1335C59.5567 72.5289 59.4229 73.0923 59.4229 73.8239V75.0028C59.4229 75.7344 59.5591 76.3085 59.8313 76.7251C60.1036 77.1394 60.4457 77.3466 60.8576 77.3466C61.137 77.3466 61.3808 77.2531 61.5891 77.0661C61.7975 76.879 61.9596 76.6103 62.0756 76.2599C62.1916 75.9096 62.2496 75.4905 62.2496 75.0028ZM66.883 70.3864L64.5392 79.0938H63.7722L66.1159 70.3864H66.883ZM67.8622 78V77.3608L70.2628 74.733C70.5445 74.4252 70.7765 74.1577 70.9588 73.9304C71.1411 73.7008 71.276 73.4853 71.3636 73.2841C71.4536 73.0805 71.4986 72.8674 71.4986 72.6449C71.4986 72.3892 71.437 72.1679 71.3139 71.9808C71.1932 71.7938 71.0275 71.6494 70.8168 71.5476C70.6061 71.4458 70.3693 71.3949 70.1065 71.3949C69.8272 71.3949 69.5833 71.4529 69.375 71.5689C69.169 71.6825 69.0092 71.8423 68.8956 72.0483C68.7843 72.2543 68.7287 72.4957 68.7287 72.7727H67.8906C67.8906 72.3466 67.9889 71.9725 68.1854 71.6506C68.3819 71.3286 68.6494 71.0777 68.9879 70.8977C69.3288 70.7178 69.7112 70.6278 70.1349 70.6278C70.5611 70.6278 70.9387 70.7178 71.2678 70.8977C71.5968 71.0777 71.8549 71.3203 72.0419 71.6257C72.2289 71.9311 72.3224 72.2708 72.3224 72.6449C72.3224 72.9124 72.2739 73.174 72.1768 73.4297C72.0821 73.683 71.9164 73.9659 71.6797 74.2784C71.4453 74.5885 71.1198 74.9673 70.7031 75.4148L69.0696 77.1619V77.2188H72.4503V78H67.8622ZM75.7209 74.3636C75.7209 75.2585 75.6037 76.0824 75.3693 76.8352C75.1373 77.5857 74.8047 78.277 74.3714 78.9091H73.6328C73.8033 78.6747 73.9619 78.3859 74.1087 78.0426C74.2578 77.7017 74.388 77.3277 74.4993 76.9205C74.6106 76.5109 74.697 76.0883 74.7585 75.6527C74.8224 75.2147 74.8544 74.785 74.8544 74.3636C74.8544 73.8002 74.8 73.2285 74.6911 72.6484C74.5821 72.0684 74.4354 71.5298 74.2507 71.0327C74.0661 70.5355 73.8601 70.1307 73.6328 69.8182H74.3714C74.8047 70.4503 75.1373 71.1428 75.3693 71.8956C75.6037 72.6461 75.7209 73.4687 75.7209 74.3636Z" fill="black"/>
<line x1="138.671" y1="109.376" x2="106.671" y2="81.3763" stroke="black" stroke-opacity="0.25"/>
<circle cx="139" cy="108" r="33.5" stroke="#0999C9" stroke-opacity="0.25"/>
</svg>
