<svg width="861" height="336" viewBox="0 0 861 336" fill="none" xmlns="http://www.w3.org/2000/svg">
<g clip-path="url(#clip0_115_42)">
<rect width="861" height="336" fill="white"/>
<path d="M39.5 255.5L86 272.5L138 119L92 103.5L39.5 255.5Z" fill="#0999C9" fill-opacity="0.25" stroke="#0999C9" stroke-width="2"/>
<path d="M147.315 272.169L194.197 256.252L138.447 104.074L92.8955 120.845L147.315 272.169Z" fill="#0999C9" fill-opacity="0.25" stroke="#0999C9" stroke-width="2"/>
<path d="M318 40.5L242 254.5L289 272L318 187L348 272L396.5 254.5L318 40.5Z" fill="#0999C9" fill-opacity="0.25" stroke="#0999C9" stroke-width="2"/>
<path d="M697 260L717 88.5H761.5L781.5 260L746.668 263.832L746.5 265.5L739.038 264.671L731.5 265.5L731.319 263.813L697 260Z" fill="#0999C9" fill-opacity="0.25" stroke="#0999C9" stroke-width="2"/>
<path d="M517.5 88L477 257L525.5 269L537 220.5L549.5 269L597.5 257L557 88H517.5Z" fill="#0999C9" fill-opacity="0.25" stroke="#0999C9" stroke-width="2"/>
<path d="M731.5 266L738.5 336L746.5 266" stroke="#FF003C" stroke-dasharray="2 2"/>
<path d="M265.5 263L318.373 114L372.5 263" stroke="black" stroke-dasharray="4 4"/>
<path d="M62.5 263L115.373 114L169.5 263" stroke="black" stroke-dasharray="4 4"/>
<path d="M501 263L536.578 114L573 263" stroke="black" stroke-dasharray="4 4"/>
<path d="M721.5 263L738.795 114L756.5 263" stroke="black" stroke-dasharray="4 4"/>
<circle cx="318.5" cy="112" r="3" fill="black"/>
<circle cx="115.5" cy="112" r="3" fill="black"/>
<path d="M318 187L320.887 182H315.113L318 187ZM318 41L315.113 46H320.887L318 41ZM318 182.5H318.5V45.5H318H317.5V182.5H318Z" fill="#FF003C"/>
<path d="M98 243L94.2506 238.61L92.3231 244.052L98 243ZM50 226L53.7494 230.39L55.6769 224.948L50 226ZM93.7582 241.498L93.9251 241.026L54.4087 227.031L54.2418 227.502L54.0749 227.974L93.5913 241.969L93.7582 241.498Z" fill="#FF003C"/>
<path d="M537 89L534.113 94L539.887 94L537 89ZM537 114L537.5 114L537.5 93.5L537 93.5L536.5 93.5L536.5 114L537 114Z" fill="#FF003C"/>
<path d="M289.759 16.2727H292.034L294.438 22.1364H294.54L296.943 16.2727H299.219V25H297.429V19.3196H297.357L295.098 24.9574H293.879L291.621 19.2983H291.548V25H289.759V16.2727ZM300.705 25V18.4545H302.52V25H300.705ZM301.617 17.6108C301.347 17.6108 301.115 17.5213 300.922 17.3423C300.732 17.1605 300.637 16.9432 300.637 16.6903C300.637 16.4403 300.732 16.2259 300.922 16.0469C301.115 15.8651 301.347 15.7741 301.617 15.7741C301.887 15.7741 302.117 15.8651 302.307 16.0469C302.5 16.2259 302.597 16.4403 302.597 16.6903C302.597 16.9432 302.5 17.1605 302.307 17.3423C302.117 17.5213 301.887 17.6108 301.617 17.6108ZM307.456 18.4545V19.8182H303.514V18.4545H307.456ZM304.409 16.8864H306.224V22.9886C306.224 23.1562 306.25 23.2869 306.301 23.3807C306.352 23.4716 306.423 23.5355 306.514 23.5724C306.608 23.6094 306.716 23.6278 306.838 23.6278C306.923 23.6278 307.009 23.6207 307.094 23.6065C307.179 23.5895 307.244 23.5767 307.29 23.5682L307.575 24.919C307.484 24.9474 307.357 24.9801 307.192 25.017C307.027 25.0568 306.827 25.081 306.591 25.0895C306.153 25.1065 305.77 25.0483 305.44 24.9148C305.114 24.7812 304.859 24.5739 304.678 24.2926C304.496 24.0114 304.406 23.6562 304.409 23.2273V16.8864ZM311.551 25.1278C310.878 25.1278 310.298 24.9915 309.812 24.7188C309.33 24.4432 308.957 24.054 308.696 23.5511C308.435 23.0455 308.304 22.4474 308.304 21.7571C308.304 21.0838 308.435 20.4929 308.696 19.9844C308.957 19.4759 309.325 19.0795 309.8 18.7955C310.277 18.5114 310.837 18.3693 311.479 18.3693C311.911 18.3693 312.313 18.4389 312.685 18.5781C313.06 18.7145 313.386 18.9205 313.665 19.196C313.946 19.4716 314.165 19.8182 314.321 20.2358C314.477 20.6506 314.555 21.1364 314.555 21.6932V22.1918H309.028V21.0668H312.847C312.847 20.8054 312.79 20.5739 312.676 20.3722C312.563 20.1705 312.405 20.0128 312.203 19.8991C312.004 19.7827 311.773 19.7244 311.509 19.7244C311.233 19.7244 310.989 19.7884 310.776 19.9162C310.565 20.0412 310.401 20.2102 310.281 20.4233C310.162 20.6335 310.101 20.8679 310.098 21.1264V22.196C310.098 22.5199 310.158 22.7997 310.277 23.0355C310.399 23.2713 310.571 23.4531 310.793 23.581C311.014 23.7088 311.277 23.7727 311.581 23.7727C311.783 23.7727 311.967 23.7443 312.135 23.6875C312.303 23.6307 312.446 23.5455 312.565 23.4318C312.685 23.3182 312.776 23.179 312.838 23.0142L314.517 23.125C314.432 23.5284 314.257 23.8807 313.993 24.1818C313.732 24.4801 313.393 24.7131 312.979 24.8807C312.567 25.0455 312.091 25.1278 311.551 25.1278ZM315.74 25V18.4545H317.5V19.5966H317.568C317.688 19.1903 317.888 18.8835 318.169 18.6761C318.45 18.4659 318.774 18.3608 319.141 18.3608C319.232 18.3608 319.33 18.3665 319.435 18.3778C319.54 18.3892 319.632 18.4048 319.712 18.4247V20.0355C319.626 20.0099 319.509 19.9872 319.358 19.9673C319.207 19.9474 319.07 19.9375 318.945 19.9375C318.678 19.9375 318.439 19.9957 318.229 20.1122C318.021 20.2259 317.857 20.3849 317.734 20.5895C317.615 20.794 317.555 21.0298 317.555 21.2969V25H315.74ZM323.428 18.4545H325.243V25.3239C325.243 25.8295 325.143 26.2386 324.945 26.5511C324.746 26.8636 324.46 27.0923 324.088 27.2372C323.719 27.3821 323.277 27.4545 322.763 27.4545C322.7 27.4545 322.641 27.4531 322.584 27.4503C322.524 27.4503 322.462 27.4489 322.396 27.446V26.027C322.445 26.0298 322.487 26.0312 322.524 26.0312C322.558 26.0341 322.595 26.0355 322.635 26.0355C322.928 26.0355 323.132 25.973 323.249 25.848C323.368 25.7259 323.428 25.5412 323.428 25.294V18.4545ZM324.331 17.6108C324.064 17.6108 323.834 17.5213 323.641 17.3423C323.447 17.1605 323.351 16.9432 323.351 16.6903C323.351 16.4403 323.447 16.2259 323.641 16.0469C323.834 15.8651 324.064 15.7741 324.331 15.7741C324.604 15.7741 324.835 15.8651 325.026 16.0469C325.219 16.2259 325.315 16.4403 325.315 16.6903C325.315 16.9432 325.219 17.1605 325.026 17.3423C324.835 17.5213 324.604 17.6108 324.331 17.6108ZM329.654 25.1278C328.993 25.1278 328.42 24.9872 327.937 24.706C327.457 24.4219 327.086 24.027 326.825 23.5213C326.564 23.0128 326.433 22.4233 326.433 21.7528C326.433 21.0767 326.564 20.4858 326.825 19.9801C327.086 19.4716 327.457 19.0767 327.937 18.7955C328.42 18.5114 328.993 18.3693 329.654 18.3693C330.316 18.3693 330.887 18.5114 331.368 18.7955C331.85 19.0767 332.223 19.4716 332.484 19.9801C332.745 20.4858 332.876 21.0767 332.876 21.7528C332.876 22.4233 332.745 23.0128 332.484 23.5213C332.223 24.027 331.85 24.4219 331.368 24.706C330.887 24.9872 330.316 25.1278 329.654 25.1278ZM329.663 23.7216C329.964 23.7216 330.216 23.6364 330.417 23.4659C330.619 23.2926 330.771 23.0568 330.873 22.7585C330.978 22.4602 331.031 22.1207 331.031 21.7401C331.031 21.3594 330.978 21.0199 330.873 20.7216C330.771 20.4233 330.619 20.1875 330.417 20.0142C330.216 19.8409 329.964 19.7543 329.663 19.7543C329.359 19.7543 329.103 19.8409 328.896 20.0142C328.691 20.1875 328.537 20.4233 328.431 20.7216C328.329 21.0199 328.278 21.3594 328.278 21.7401C328.278 22.1207 328.329 22.4602 328.431 22.7585C328.537 23.0568 328.691 23.2926 328.896 23.4659C329.103 23.6364 329.359 23.7216 329.663 23.7216ZM334.056 25V18.4545H335.872V25H334.056ZM334.968 17.6108C334.699 17.6108 334.467 17.5213 334.274 17.3423C334.083 17.1605 333.988 16.9432 333.988 16.6903C333.988 16.4403 334.083 16.2259 334.274 16.0469C334.467 15.8651 334.699 15.7741 334.968 15.7741C335.238 15.7741 335.468 15.8651 335.659 16.0469C335.852 16.2259 335.949 16.4403 335.949 16.6903C335.949 16.9432 335.852 17.1605 335.659 17.3423C335.468 17.5213 335.238 17.6108 334.968 17.6108ZM339.141 21.2159V25H337.326V18.4545H339.056V19.6094H339.133C339.278 19.2287 339.521 18.9276 339.862 18.706C340.202 18.4815 340.616 18.3693 341.102 18.3693C341.556 18.3693 341.952 18.4688 342.29 18.6676C342.629 18.8665 342.891 19.1506 343.079 19.5199C343.266 19.8864 343.36 20.3239 343.36 20.8324V25H341.545V21.1562C341.548 20.7557 341.445 20.4432 341.238 20.2188C341.031 19.9915 340.745 19.8778 340.381 19.8778C340.137 19.8778 339.921 19.9304 339.734 20.0355C339.549 20.1406 339.404 20.294 339.299 20.4957C339.197 20.6946 339.144 20.9347 339.141 21.2159Z" fill="black"/>
<path d="M510.093 25V16.2727H513.587C514.229 16.2727 514.764 16.3679 515.193 16.5582C515.622 16.7486 515.945 17.0128 516.161 17.3509C516.377 17.6861 516.485 18.0724 516.485 18.5099C516.485 18.8509 516.416 19.1506 516.28 19.4091C516.144 19.6648 515.956 19.875 515.718 20.0398C515.482 20.2017 515.212 20.3168 514.908 20.3849V20.4702C515.24 20.4844 515.551 20.5781 515.841 20.7514C516.134 20.9247 516.371 21.1676 516.553 21.4801C516.735 21.7898 516.825 22.1591 516.825 22.5881C516.825 23.0511 516.71 23.4645 516.48 23.8281C516.253 24.1889 515.916 24.4744 515.47 24.6847C515.024 24.8949 514.475 25 513.821 25H510.093ZM511.938 23.4915H513.442C513.956 23.4915 514.331 23.3935 514.567 23.1974C514.803 22.9986 514.921 22.7344 514.921 22.4048C514.921 22.1634 514.862 21.9503 514.746 21.7656C514.629 21.581 514.463 21.4361 514.247 21.331C514.034 21.2259 513.78 21.1733 513.485 21.1733H511.938V23.4915ZM511.938 19.9247H513.306C513.558 19.9247 513.783 19.8807 513.979 19.7926C514.178 19.7017 514.334 19.5739 514.448 19.4091C514.564 19.2443 514.622 19.0469 514.622 18.8168C514.622 18.5014 514.51 18.2472 514.286 18.054C514.064 17.8608 513.749 17.7642 513.34 17.7642H511.938V19.9247ZM520.975 25.1278C520.302 25.1278 519.722 24.9915 519.236 24.7188C518.753 24.4432 518.381 24.054 518.12 23.5511C517.858 23.0455 517.728 22.4474 517.728 21.7571C517.728 21.0838 517.858 20.4929 518.12 19.9844C518.381 19.4759 518.749 19.0795 519.224 18.7955C519.701 18.5114 520.26 18.3693 520.903 18.3693C521.334 18.3693 521.736 18.4389 522.108 18.5781C522.483 18.7145 522.81 18.9205 523.089 19.196C523.37 19.4716 523.589 19.8182 523.745 20.2358C523.901 20.6506 523.979 21.1364 523.979 21.6932V22.1918H518.452V21.0668H522.27C522.27 20.8054 522.214 20.5739 522.1 20.3722C521.986 20.1705 521.829 20.0128 521.627 19.8991C521.428 19.7827 521.197 19.7244 520.932 19.7244C520.657 19.7244 520.412 19.7884 520.199 19.9162C519.989 20.0412 519.824 20.2102 519.705 20.4233C519.586 20.6335 519.525 20.8679 519.522 21.1264V22.196C519.522 22.5199 519.581 22.7997 519.701 23.0355C519.823 23.2713 519.995 23.4531 520.216 23.581C520.438 23.7088 520.701 23.7727 521.005 23.7727C521.206 23.7727 521.391 23.7443 521.559 23.6875C521.726 23.6307 521.87 23.5455 521.989 23.4318C522.108 23.3182 522.199 23.179 522.262 23.0142L523.941 23.125C523.856 23.5284 523.681 23.8807 523.417 24.1818C523.155 24.4801 522.817 24.7131 522.403 24.8807C521.991 25.0455 521.515 25.1278 520.975 25.1278ZM531.09 18.4545L528.802 25H526.757L524.468 18.4545H526.386L527.745 23.1378H527.813L529.169 18.4545H531.09ZM534.791 25.1278C534.118 25.1278 533.539 24.9915 533.053 24.7188C532.57 24.4432 532.198 24.054 531.936 23.5511C531.675 23.0455 531.544 22.4474 531.544 21.7571C531.544 21.0838 531.675 20.4929 531.936 19.9844C532.198 19.4759 532.566 19.0795 533.04 18.7955C533.517 18.5114 534.077 18.3693 534.719 18.3693C535.151 18.3693 535.553 18.4389 535.925 18.5781C536.3 18.7145 536.627 18.9205 536.905 19.196C537.186 19.4716 537.405 19.8182 537.561 20.2358C537.718 20.6506 537.796 21.1364 537.796 21.6932V22.1918H532.269V21.0668H536.087C536.087 20.8054 536.03 20.5739 535.916 20.3722C535.803 20.1705 535.645 20.0128 535.443 19.8991C535.244 19.7827 535.013 19.7244 534.749 19.7244C534.473 19.7244 534.229 19.7884 534.016 19.9162C533.806 20.0412 533.641 20.2102 533.521 20.4233C533.402 20.6335 533.341 20.8679 533.338 21.1264V22.196C533.338 22.5199 533.398 22.7997 533.517 23.0355C533.639 23.2713 533.811 23.4531 534.033 23.581C534.254 23.7088 534.517 23.7727 534.821 23.7727C535.023 23.7727 535.208 23.7443 535.375 23.6875C535.543 23.6307 535.686 23.5455 535.806 23.4318C535.925 23.3182 536.016 23.179 536.078 23.0142L537.757 23.125C537.672 23.5284 537.497 23.8807 537.233 24.1818C536.972 24.4801 536.634 24.7131 536.219 24.8807C535.807 25.0455 535.331 25.1278 534.791 25.1278ZM540.796 16.2727V25H538.98V16.2727H540.796ZM545.027 18.4545H546.843V25.3239C546.843 25.8295 546.743 26.2386 546.544 26.5511C546.345 26.8636 546.06 27.0923 545.688 27.2372C545.318 27.3821 544.877 27.4545 544.362 27.4545C544.3 27.4545 544.24 27.4531 544.183 27.4503C544.124 27.4503 544.061 27.4489 543.996 27.446V26.027C544.044 26.0298 544.087 26.0312 544.124 26.0312C544.158 26.0341 544.195 26.0355 544.235 26.0355C544.527 26.0355 544.732 25.973 544.848 25.848C544.968 25.7259 545.027 25.5412 545.027 25.294V18.4545ZM545.931 17.6108C545.664 17.6108 545.433 17.5213 545.24 17.3423C545.047 17.1605 544.95 16.9432 544.95 16.6903C544.95 16.4403 545.047 16.2259 545.24 16.0469C545.433 15.8651 545.664 15.7741 545.931 15.7741C546.203 15.7741 546.435 15.8651 546.625 16.0469C546.818 16.2259 546.915 16.4403 546.915 16.6903C546.915 16.9432 546.818 17.1605 546.625 17.3423C546.435 17.5213 546.203 17.6108 545.931 17.6108ZM551.254 25.1278C550.592 25.1278 550.02 24.9872 549.537 24.706C549.057 24.4219 548.686 24.027 548.425 23.5213C548.163 23.0128 548.032 22.4233 548.032 21.7528C548.032 21.0767 548.163 20.4858 548.425 19.9801C548.686 19.4716 549.057 19.0767 549.537 18.7955C550.02 18.5114 550.592 18.3693 551.254 18.3693C551.916 18.3693 552.487 18.5114 552.967 18.7955C553.45 19.0767 553.822 19.4716 554.084 19.9801C554.345 20.4858 554.476 21.0767 554.476 21.7528C554.476 22.4233 554.345 23.0128 554.084 23.5213C553.822 24.027 553.45 24.4219 552.967 24.706C552.487 24.9872 551.916 25.1278 551.254 25.1278ZM551.263 23.7216C551.564 23.7216 551.815 23.6364 552.017 23.4659C552.219 23.2926 552.371 23.0568 552.473 22.7585C552.578 22.4602 552.631 22.1207 552.631 21.7401C552.631 21.3594 552.578 21.0199 552.473 20.7216C552.371 20.4233 552.219 20.1875 552.017 20.0142C551.815 19.8409 551.564 19.7543 551.263 19.7543C550.959 19.7543 550.703 19.8409 550.496 20.0142C550.291 20.1875 550.136 20.4233 550.031 20.7216C549.929 21.0199 549.878 21.3594 549.878 21.7401C549.878 22.1207 549.929 22.4602 550.031 22.7585C550.136 23.0568 550.291 23.2926 550.496 23.4659C550.703 23.6364 550.959 23.7216 551.263 23.7216ZM555.656 25V18.4545H557.471V25H555.656ZM556.568 17.6108C556.298 17.6108 556.067 17.5213 555.873 17.3423C555.683 17.1605 555.588 16.9432 555.588 16.6903C555.588 16.4403 555.683 16.2259 555.873 16.0469C556.067 15.8651 556.298 15.7741 556.568 15.7741C556.838 15.7741 557.068 15.8651 557.258 16.0469C557.452 16.2259 557.548 16.4403 557.548 16.6903C557.548 16.9432 557.452 17.1605 557.258 17.3423C557.068 17.5213 556.838 17.6108 556.568 17.6108ZM560.741 21.2159V25H558.926V18.4545H560.656V19.6094H560.732C560.877 19.2287 561.12 18.9276 561.461 18.706C561.802 18.4815 562.215 18.3693 562.701 18.3693C563.156 18.3693 563.552 18.4688 563.89 18.6676C564.228 18.8665 564.491 19.1506 564.678 19.5199C564.866 19.8864 564.96 20.3239 564.96 20.8324V25H563.144V21.1562C563.147 20.7557 563.045 20.4432 562.838 20.2188C562.63 19.9915 562.345 19.8778 561.981 19.8778C561.737 19.8778 561.521 19.9304 561.333 20.0355C561.149 20.1406 561.004 20.294 560.899 20.4957C560.796 20.6946 560.744 20.9347 560.741 21.2159Z" fill="black"/>
<path d="M713.604 16.2727V25H711.759V16.2727H713.604ZM716.903 21.2159V25H715.088V18.4545H716.818V19.6094H716.895C717.039 19.2287 717.282 18.9276 717.623 18.706C717.964 18.4815 718.377 18.3693 718.863 18.3693C719.318 18.3693 719.714 18.4688 720.052 18.6676C720.39 18.8665 720.653 19.1506 720.841 19.5199C721.028 19.8864 721.122 20.3239 721.122 20.8324V25H719.306V21.1562C719.309 20.7557 719.207 20.4432 719 20.2188C718.792 19.9915 718.507 19.8778 718.143 19.8778C717.899 19.8778 717.683 19.9304 717.495 20.0355C717.311 20.1406 717.166 20.294 717.061 20.4957C716.958 20.6946 716.906 20.9347 716.903 21.2159ZM724.368 21.2159V25H722.553V18.4545H724.283V19.6094H724.359C724.504 19.2287 724.747 18.9276 725.088 18.706C725.429 18.4815 725.842 18.3693 726.328 18.3693C726.783 18.3693 727.179 18.4688 727.517 18.6676C727.855 18.8665 728.118 19.1506 728.305 19.5199C728.493 19.8864 728.587 20.3239 728.587 20.8324V25H726.771V21.1562C726.774 20.7557 726.672 20.4432 726.464 20.2188C726.257 19.9915 725.972 19.8778 725.608 19.8778C725.364 19.8778 725.148 19.9304 724.96 20.0355C724.776 20.1406 724.631 20.294 724.526 20.4957C724.423 20.6946 724.371 20.9347 724.368 21.2159ZM733 25.1278C732.327 25.1278 731.748 24.9915 731.262 24.7188C730.779 24.4432 730.407 24.054 730.145 23.5511C729.884 23.0455 729.753 22.4474 729.753 21.7571C729.753 21.0838 729.884 20.4929 730.145 19.9844C730.407 19.4759 730.775 19.0795 731.249 18.7955C731.726 18.5114 732.286 18.3693 732.928 18.3693C733.36 18.3693 733.762 18.4389 734.134 18.5781C734.509 18.7145 734.836 18.9205 735.114 19.196C735.395 19.4716 735.614 19.8182 735.77 20.2358C735.926 20.6506 736.005 21.1364 736.005 21.6932V22.1918H730.478V21.0668H734.296C734.296 20.8054 734.239 20.5739 734.125 20.3722C734.012 20.1705 733.854 20.0128 733.652 19.8991C733.453 19.7827 733.222 19.7244 732.958 19.7244C732.682 19.7244 732.438 19.7884 732.225 19.9162C732.015 20.0412 731.85 20.2102 731.73 20.4233C731.611 20.6335 731.55 20.8679 731.547 21.1264V22.196C731.547 22.5199 731.607 22.7997 731.726 23.0355C731.848 23.2713 732.02 23.4531 732.242 23.581C732.463 23.7088 732.726 23.7727 733.03 23.7727C733.232 23.7727 733.417 23.7443 733.584 23.6875C733.752 23.6307 733.895 23.5455 734.015 23.4318C734.134 23.3182 734.225 23.179 734.287 23.0142L735.966 23.125C735.881 23.5284 735.706 23.8807 735.442 24.1818C735.181 24.4801 734.843 24.7131 734.428 24.8807C734.016 25.0455 733.54 25.1278 733 25.1278ZM737.189 25V18.4545H738.949V19.5966H739.017C739.137 19.1903 739.337 18.8835 739.618 18.6761C739.9 18.4659 740.223 18.3608 740.59 18.3608C740.681 18.3608 740.779 18.3665 740.884 18.3778C740.989 18.3892 741.081 18.4048 741.161 18.4247V20.0355C741.076 20.0099 740.958 19.9872 740.807 19.9673C740.657 19.9474 740.519 19.9375 740.394 19.9375C740.127 19.9375 739.888 19.9957 739.678 20.1122C739.471 20.2259 739.306 20.3849 739.184 20.5895C739.064 20.794 739.005 21.0298 739.005 21.2969V25H737.189ZM744.911 25V16.2727H750.689V17.794H746.756V19.8736H750.306V21.3949H746.756V25H744.911ZM754.373 25.1278C753.711 25.1278 753.139 24.9872 752.656 24.706C752.176 24.4219 751.805 24.027 751.544 23.5213C751.282 23.0128 751.152 22.4233 751.152 21.7528C751.152 21.0767 751.282 20.4858 751.544 19.9801C751.805 19.4716 752.176 19.0767 752.656 18.7955C753.139 18.5114 753.711 18.3693 754.373 18.3693C755.035 18.3693 755.606 18.5114 756.086 18.7955C756.569 19.0767 756.941 19.4716 757.203 19.9801C757.464 20.4858 757.595 21.0767 757.595 21.7528C757.595 22.4233 757.464 23.0128 757.203 23.5213C756.941 24.027 756.569 24.4219 756.086 24.706C755.606 24.9872 755.035 25.1278 754.373 25.1278ZM754.382 23.7216C754.683 23.7216 754.934 23.6364 755.136 23.4659C755.338 23.2926 755.49 23.0568 755.592 22.7585C755.697 22.4602 755.75 22.1207 755.75 21.7401C755.75 21.3594 755.697 21.0199 755.592 20.7216C755.49 20.4233 755.338 20.1875 755.136 20.0142C754.934 19.8409 754.683 19.7543 754.382 19.7543C754.078 19.7543 753.822 19.8409 753.615 20.0142C753.41 20.1875 753.255 20.4233 753.15 20.7216C753.048 21.0199 752.997 21.3594 752.997 21.7401C752.997 22.1207 753.048 22.4602 753.15 22.7585C753.255 23.0568 753.41 23.2926 753.615 23.4659C753.822 23.6364 754.078 23.7216 754.382 23.7216ZM760.591 16.2727V25H758.775V16.2727H760.591ZM764.457 25.1065C763.96 25.1065 763.509 24.9787 763.106 24.723C762.705 24.4645 762.387 24.0852 762.151 23.5852C761.918 23.0824 761.802 22.4659 761.802 21.7358C761.802 20.9858 761.923 20.3622 762.164 19.8651C762.406 19.3651 762.727 18.9915 763.127 18.7443C763.531 18.4943 763.972 18.3693 764.452 18.3693C764.819 18.3693 765.124 18.4318 765.369 18.5568C765.616 18.679 765.815 18.8324 765.965 19.017C766.119 19.1989 766.235 19.3778 766.315 19.554H766.37V16.2727H768.181V25H766.391V23.9517H766.315C766.229 24.1335 766.109 24.3139 765.952 24.4929C765.799 24.669 765.599 24.8153 765.352 24.9318C765.107 25.0483 764.809 25.1065 764.457 25.1065ZM765.032 23.6619C765.325 23.6619 765.572 23.5824 765.773 23.4233C765.978 23.2614 766.134 23.0355 766.242 22.7457C766.353 22.456 766.408 22.1165 766.408 21.7273C766.408 21.3381 766.354 21 766.246 20.7131C766.138 20.4261 765.982 20.2045 765.778 20.0483C765.573 19.892 765.325 19.8139 765.032 19.8139C764.734 19.8139 764.482 19.8949 764.278 20.0568C764.073 20.2187 763.918 20.4432 763.813 20.7301C763.708 21.017 763.656 21.3494 763.656 21.7273C763.656 22.108 763.708 22.4446 763.813 22.7372C763.921 23.027 764.076 23.2543 764.278 23.419C764.482 23.581 764.734 23.6619 765.032 23.6619Z" fill="black"/>
<line x1="513" y1="109.5" x2="562" y2="109.5" stroke="#FF003C" stroke-dasharray="2 2"/>
<circle cx="537" cy="112" r="3" fill="black"/>
<circle cx="738.5" cy="114" r="3" fill="black"/>
<path d="M345.92 89V82.4545H346.892V83.4773H346.977C347.114 83.1278 347.334 82.8565 347.638 82.6634C347.942 82.4673 348.307 82.3693 348.733 82.3693C349.165 82.3693 349.524 82.4673 349.811 82.6634C350.101 82.8565 350.327 83.1278 350.489 83.4773H350.557C350.724 83.1392 350.976 82.8707 351.311 82.6719C351.646 82.4702 352.048 82.3693 352.517 82.3693C353.102 82.3693 353.581 82.5526 353.953 82.919C354.325 83.2827 354.511 83.8494 354.511 84.6193V89H353.506V84.6193C353.506 84.1364 353.374 83.7912 353.109 83.5838C352.845 83.3764 352.534 83.2727 352.176 83.2727C351.716 83.2727 351.359 83.4119 351.107 83.6903C350.854 83.9659 350.727 84.3153 350.727 84.7386V89H349.705V84.517C349.705 84.1449 349.584 83.8452 349.342 83.6179C349.101 83.3878 348.79 83.2727 348.409 83.2727C348.148 83.2727 347.903 83.3423 347.676 83.4815C347.452 83.6207 347.27 83.8139 347.131 84.0611C346.994 84.3054 346.926 84.5881 346.926 84.9091V89H345.92ZM356.35 89V82.4545H357.356V89H356.35ZM356.862 81.3636C356.665 81.3636 356.496 81.2969 356.354 81.1634C356.215 81.0298 356.146 80.8693 356.146 80.6818C356.146 80.4943 356.215 80.3338 356.354 80.2003C356.496 80.0668 356.665 80 356.862 80C357.058 80 357.225 80.0668 357.364 80.2003C357.506 80.3338 357.577 80.4943 357.577 80.6818C357.577 80.8693 357.506 81.0298 357.364 81.1634C357.225 81.2969 357.058 81.3636 356.862 81.3636ZM362.044 82.4545V83.3068H358.652V82.4545H362.044ZM359.641 80.8864H360.647V87.125C360.647 87.4091 360.688 87.6222 360.77 87.7642C360.855 87.9034 360.963 87.9972 361.094 88.0455C361.228 88.0909 361.368 88.1136 361.516 88.1136C361.627 88.1136 361.718 88.108 361.789 88.0966C361.86 88.0824 361.917 88.071 361.959 88.0625L362.164 88.9659C362.096 88.9915 362 89.017 361.878 89.0426C361.756 89.071 361.601 89.0852 361.414 89.0852C361.13 89.0852 360.851 89.0241 360.578 88.902C360.309 88.7798 360.084 88.5938 359.905 88.3438C359.729 88.0938 359.641 87.7784 359.641 87.3977V80.8864ZM366.231 89.1364C365.6 89.1364 365.056 88.9972 364.599 88.7188C364.145 88.4375 363.794 88.0455 363.547 87.5426C363.302 87.0369 363.18 86.4489 363.18 85.7784C363.18 85.108 363.302 84.517 363.547 84.0057C363.794 83.4915 364.137 83.0909 364.578 82.804C365.021 82.5142 365.538 82.3693 366.129 82.3693C366.47 82.3693 366.806 82.4261 367.139 82.5398C367.471 82.6534 367.774 82.8381 368.047 83.0938C368.319 83.3466 368.537 83.6818 368.699 84.0994C368.86 84.517 368.941 85.0312 368.941 85.642V86.0682H363.896V85.1989H367.919C367.919 84.8295 367.845 84.5 367.697 84.2102C367.552 83.9205 367.345 83.6918 367.075 83.5241C366.808 83.3565 366.493 83.2727 366.129 83.2727C365.728 83.2727 365.382 83.3722 365.089 83.571C364.799 83.767 364.576 84.0227 364.42 84.3381C364.264 84.6534 364.186 84.9915 364.186 85.3523V85.9318C364.186 86.4261 364.271 86.8452 364.441 87.1889C364.615 87.5298 364.855 87.7898 365.162 87.9688C365.468 88.1449 365.825 88.233 366.231 88.233C366.495 88.233 366.734 88.196 366.947 88.1222C367.163 88.0455 367.349 87.9318 367.505 87.7812C367.662 87.6278 367.782 87.4375 367.868 87.2102L368.839 87.483C368.737 87.8125 368.565 88.1023 368.324 88.3523C368.082 88.5994 367.784 88.7926 367.429 88.9318C367.074 89.0682 366.674 89.1364 366.231 89.1364ZM370.471 89V82.4545H371.443V83.4432H371.511C371.63 83.1193 371.846 82.8565 372.159 82.6548C372.471 82.4531 372.824 82.3523 373.216 82.3523C373.289 82.3523 373.382 82.3537 373.493 82.3565C373.603 82.3594 373.687 82.3636 373.744 82.3693V83.392C373.71 83.3835 373.632 83.3707 373.51 83.3537C373.39 83.3338 373.264 83.3239 373.13 83.3239C372.812 83.3239 372.528 83.3906 372.278 83.5241C372.031 83.6548 371.835 83.8366 371.69 84.0696C371.548 84.2997 371.477 84.5625 371.477 84.858V89H370.471ZM380.783 89.1364C380.237 89.1364 379.756 88.9986 379.338 88.723C378.92 88.4446 378.594 88.0526 378.358 87.5469C378.122 87.0384 378.004 86.4375 378.004 85.7443C378.004 85.0568 378.122 84.4602 378.358 83.9545C378.594 83.4489 378.922 83.0582 379.342 82.7827C379.763 82.5071 380.249 82.3693 380.8 82.3693C381.226 82.3693 381.563 82.4403 381.81 82.5824C382.06 82.7216 382.25 82.8807 382.381 83.0597C382.514 83.2358 382.618 83.3807 382.692 83.4943H382.777V80.2727H383.783V89H382.811V87.9943H382.692C382.618 88.1136 382.513 88.2642 382.376 88.446C382.24 88.625 382.045 88.7855 381.793 88.9276C381.54 89.0668 381.203 89.1364 380.783 89.1364ZM380.919 88.233C381.322 88.233 381.663 88.1278 381.942 87.9176C382.22 87.7045 382.432 87.4105 382.577 87.0355C382.722 86.6577 382.794 86.2216 382.794 85.7273C382.794 85.2386 382.723 84.8111 382.581 84.4446C382.439 84.0753 382.229 83.7884 381.95 83.5838C381.672 83.3764 381.328 83.2727 380.919 83.2727C380.493 83.2727 380.138 83.3821 379.854 83.6009C379.572 83.8168 379.361 84.1108 379.219 84.483C379.08 84.8523 379.01 85.267 379.01 85.7273C379.01 86.1932 379.081 86.6165 379.223 86.9972C379.368 87.375 379.581 87.6761 379.862 87.9006C380.146 88.1222 380.499 88.233 380.919 88.233ZM385.764 89V82.4545H386.77V89H385.764ZM386.276 81.3636C386.08 81.3636 385.911 81.2969 385.768 81.1634C385.629 81.0298 385.56 80.8693 385.56 80.6818C385.56 80.4943 385.629 80.3338 385.768 80.2003C385.911 80.0668 386.08 80 386.276 80C386.472 80 386.639 80.0668 386.778 80.2003C386.92 80.3338 386.991 80.4943 386.991 80.6818C386.991 80.8693 386.92 81.0298 386.778 81.1634C386.639 81.2969 386.472 81.3636 386.276 81.3636ZM393.248 83.9205L392.345 84.1761C392.288 84.0256 392.204 83.8793 392.093 83.7372C391.985 83.5923 391.838 83.473 391.65 83.3793C391.463 83.2855 391.223 83.2386 390.93 83.2386C390.529 83.2386 390.196 83.331 389.929 83.5156C389.664 83.6974 389.532 83.929 389.532 84.2102C389.532 84.4602 389.623 84.6577 389.805 84.8026C389.987 84.9474 390.271 85.0682 390.657 85.1648L391.629 85.4034C392.214 85.5455 392.65 85.7628 392.937 86.0554C393.224 86.3452 393.368 86.7187 393.368 87.1761C393.368 87.5511 393.26 87.8864 393.044 88.1818C392.831 88.4773 392.532 88.7102 392.149 88.8807C391.765 89.0511 391.319 89.1364 390.811 89.1364C390.143 89.1364 389.591 88.9915 389.153 88.7017C388.716 88.4119 388.439 87.9886 388.322 87.4318L389.277 87.1932C389.368 87.5455 389.539 87.8097 389.792 87.9858C390.048 88.1619 390.382 88.25 390.794 88.25C391.262 88.25 391.635 88.1506 391.91 87.9517C392.189 87.75 392.328 87.5085 392.328 87.2273C392.328 87 392.248 86.8097 392.089 86.6562C391.93 86.5 391.686 86.3835 391.356 86.3068L390.265 86.0511C389.666 85.9091 389.225 85.6889 388.944 85.3906C388.666 85.0895 388.527 84.7131 388.527 84.2614C388.527 83.892 388.63 83.5653 388.838 83.2812C389.048 82.9972 389.333 82.7741 389.694 82.6122C390.058 82.4503 390.47 82.3693 390.93 82.3693C391.578 82.3693 392.086 82.5114 392.456 82.7955C392.828 83.0795 393.092 83.4545 393.248 83.9205ZM397.728 82.4545V83.3068H394.336V82.4545H397.728ZM395.325 80.8864H396.33V87.125C396.33 87.4091 396.371 87.6222 396.454 87.7642C396.539 87.9034 396.647 87.9972 396.778 88.0455C396.911 88.0909 397.052 88.1136 397.2 88.1136C397.31 88.1136 397.401 88.108 397.472 88.0966C397.543 88.0824 397.6 88.071 397.643 88.0625L397.847 88.9659C397.779 88.9915 397.684 89.017 397.562 89.0426C397.44 89.071 397.285 89.0852 397.097 89.0852C396.813 89.0852 396.535 89.0241 396.262 88.902C395.992 88.7798 395.768 88.5938 395.589 88.3438C395.413 88.0938 395.325 87.7784 395.325 87.3977V80.8864ZM401.167 89.1534C400.752 89.1534 400.376 89.0753 400.038 88.919C399.7 88.7599 399.431 88.5312 399.232 88.233C399.033 87.9318 398.934 87.5682 398.934 87.142C398.934 86.767 399.008 86.4631 399.156 86.2301C399.303 85.9943 399.501 85.8097 399.748 85.6761C399.995 85.5426 400.268 85.4432 400.566 85.3778C400.867 85.3097 401.17 85.2557 401.474 85.2159C401.871 85.1648 402.194 85.1264 402.441 85.1009C402.691 85.0724 402.873 85.0256 402.987 84.9602C403.103 84.8949 403.161 84.7812 403.161 84.6193V84.5852C403.161 84.1648 403.046 83.8381 402.816 83.6051C402.589 83.3722 402.244 83.2557 401.781 83.2557C401.3 83.2557 400.924 83.3608 400.651 83.571C400.379 83.7812 400.187 84.0057 400.076 84.2443L399.121 83.9034C399.292 83.5057 399.519 83.196 399.803 82.9744C400.09 82.75 400.403 82.5937 400.741 82.5057C401.082 82.4148 401.417 82.3693 401.746 82.3693C401.957 82.3693 402.198 82.3949 402.471 82.446C402.746 82.4943 403.012 82.5952 403.268 82.7486C403.526 82.902 403.741 83.1335 403.911 83.4432C404.082 83.7528 404.167 84.1676 404.167 84.6875V89H403.161V88.1136H403.11C403.042 88.2557 402.928 88.4077 402.769 88.5696C402.61 88.7315 402.398 88.8693 402.134 88.983C401.87 89.0966 401.548 89.1534 401.167 89.1534ZM401.32 88.25C401.718 88.25 402.053 88.1719 402.326 88.0156C402.602 87.8594 402.809 87.6577 402.948 87.4105C403.09 87.1634 403.161 86.9034 403.161 86.6307V85.7102C403.119 85.7614 403.025 85.8082 402.88 85.8509C402.738 85.8906 402.573 85.9261 402.386 85.9574C402.201 85.9858 402.021 86.0114 401.844 86.0341C401.671 86.054 401.531 86.071 401.423 86.0852C401.161 86.1193 400.917 86.1747 400.69 86.2514C400.465 86.3253 400.283 86.4375 400.144 86.5881C400.008 86.7358 399.94 86.9375 399.94 87.1932C399.94 87.5426 400.069 87.8068 400.327 87.9858C400.589 88.1619 400.92 88.25 401.32 88.25ZM407.008 85.0625V89H406.002V82.4545H406.974V83.4773H407.059C407.213 83.1449 407.446 82.8778 407.758 82.6761C408.071 82.4716 408.474 82.3693 408.968 82.3693C409.412 82.3693 409.799 82.4602 410.132 82.642C410.464 82.821 410.723 83.0938 410.907 83.4602C411.092 83.8239 411.184 84.2841 411.184 84.8409V89H410.179V84.9091C410.179 84.3949 410.045 83.9943 409.778 83.7074C409.511 83.4176 409.145 83.2727 408.679 83.2727C408.358 83.2727 408.071 83.3423 407.818 83.4815C407.568 83.6207 407.37 83.8239 407.225 84.0909C407.081 84.358 407.008 84.6818 407.008 85.0625ZM415.681 89.1364C415.067 89.1364 414.539 88.9915 414.096 88.7017C413.653 88.4119 413.312 88.0128 413.073 87.5043C412.835 86.9957 412.715 86.4148 412.715 85.7614C412.715 85.0966 412.837 84.5099 413.082 84.0014C413.329 83.4901 413.673 83.0909 414.113 82.804C414.556 82.5142 415.073 82.3693 415.664 82.3693C416.124 82.3693 416.539 82.4545 416.908 82.625C417.278 82.7955 417.58 83.0341 417.816 83.3409C418.052 83.6477 418.198 84.0057 418.255 84.4148H417.249C417.173 84.1165 417.002 83.8523 416.738 83.6222C416.477 83.3892 416.124 83.2727 415.681 83.2727C415.289 83.2727 414.945 83.375 414.65 83.5795C414.357 83.7812 414.129 84.0668 413.964 84.4361C413.802 84.8026 413.721 85.233 413.721 85.7273C413.721 86.233 413.8 86.6733 413.96 87.0483C414.121 87.4233 414.349 87.7145 414.641 87.9219C414.937 88.1293 415.283 88.233 415.681 88.233C415.942 88.233 416.18 88.1875 416.393 88.0966C416.606 88.0057 416.786 87.875 416.934 87.7045C417.082 87.5341 417.187 87.3295 417.249 87.0909H418.255C418.198 87.4773 418.058 87.8253 417.833 88.1349C417.612 88.4418 417.317 88.6861 416.951 88.8679C416.587 89.0469 416.164 89.1364 415.681 89.1364ZM422.469 89.1364C421.839 89.1364 421.295 88.9972 420.837 88.7188C420.383 88.4375 420.032 88.0455 419.785 87.5426C419.54 87.0369 419.418 86.4489 419.418 85.7784C419.418 85.108 419.54 84.517 419.785 84.0057C420.032 83.4915 420.376 83.0909 420.816 82.804C421.259 82.5142 421.776 82.3693 422.367 82.3693C422.708 82.3693 423.045 82.4261 423.377 82.5398C423.71 82.6534 424.012 82.8381 424.285 83.0938C424.558 83.3466 424.775 83.6818 424.937 84.0994C425.099 84.517 425.18 85.0312 425.18 85.642V86.0682H420.134V85.1989H424.157C424.157 84.8295 424.083 84.5 423.935 84.2102C423.79 83.9205 423.583 83.6918 423.313 83.5241C423.046 83.3565 422.731 83.2727 422.367 83.2727C421.967 83.2727 421.62 83.3722 421.327 83.571C421.038 83.767 420.815 84.0227 420.658 84.3381C420.502 84.6534 420.424 84.9915 420.424 85.3523V85.9318C420.424 86.4261 420.509 86.8452 420.68 87.1889C420.853 87.5298 421.093 87.7898 421.4 87.9688C421.707 88.1449 422.063 88.233 422.469 88.233C422.734 88.233 422.972 88.196 423.185 88.1222C423.401 88.0455 423.587 87.9318 423.744 87.7812C423.9 87.6278 424.021 87.4375 424.106 87.2102L425.077 87.483C424.975 87.8125 424.803 88.1023 424.562 88.3523C424.32 88.5994 424.022 88.7926 423.667 88.9318C423.312 89.0682 422.913 89.1364 422.469 89.1364Z" fill="#FF003C"/>
<path d="M672.58 295.136C671.989 295.136 671.47 294.996 671.024 294.714C670.581 294.433 670.234 294.04 669.984 293.534C669.737 293.028 669.614 292.437 669.614 291.761C669.614 291.08 669.737 290.484 669.984 289.976C670.234 289.467 670.581 289.072 671.024 288.791C671.47 288.51 671.989 288.369 672.58 288.369C673.17 288.369 673.688 288.51 674.131 288.791C674.577 289.072 674.923 289.467 675.17 289.976C675.42 290.484 675.545 291.08 675.545 291.761C675.545 292.437 675.42 293.028 675.17 293.534C674.923 294.04 674.577 294.433 674.131 294.714C673.688 294.996 673.17 295.136 672.58 295.136ZM672.58 294.233C673.028 294.233 673.398 294.118 673.688 293.888C673.977 293.658 674.192 293.355 674.331 292.98C674.47 292.605 674.54 292.199 674.54 291.761C674.54 291.324 674.47 290.916 674.331 290.538C674.192 290.161 673.977 289.855 673.688 289.622C673.398 289.389 673.028 289.273 672.58 289.273C672.131 289.273 671.761 289.389 671.472 289.622C671.182 289.855 670.967 290.161 670.828 290.538C670.689 290.916 670.619 291.324 670.619 291.761C670.619 292.199 670.689 292.605 670.828 292.98C670.967 293.355 671.182 293.658 671.472 293.888C671.761 294.118 672.131 294.233 672.58 294.233ZM682.199 288.455L679.778 295H678.755L676.335 288.455H677.426L679.233 293.67H679.301L681.108 288.455H682.199ZM686.036 295.136C685.405 295.136 684.861 294.997 684.404 294.719C683.949 294.438 683.598 294.045 683.351 293.543C683.107 293.037 682.985 292.449 682.985 291.778C682.985 291.108 683.107 290.517 683.351 290.006C683.598 289.491 683.942 289.091 684.382 288.804C684.826 288.514 685.343 288.369 685.934 288.369C686.275 288.369 686.611 288.426 686.944 288.54C687.276 288.653 687.578 288.838 687.851 289.094C688.124 289.347 688.341 289.682 688.503 290.099C688.665 290.517 688.746 291.031 688.746 291.642V292.068H683.701V291.199H687.723C687.723 290.83 687.65 290.5 687.502 290.21C687.357 289.92 687.15 289.692 686.88 289.524C686.613 289.357 686.297 289.273 685.934 289.273C685.533 289.273 685.186 289.372 684.894 289.571C684.604 289.767 684.381 290.023 684.225 290.338C684.069 290.653 683.99 290.991 683.99 291.352V291.932C683.99 292.426 684.076 292.845 684.246 293.189C684.419 293.53 684.659 293.79 684.966 293.969C685.273 294.145 685.63 294.233 686.036 294.233C686.3 294.233 686.539 294.196 686.752 294.122C686.968 294.045 687.154 293.932 687.31 293.781C687.466 293.628 687.587 293.437 687.672 293.21L688.644 293.483C688.542 293.812 688.37 294.102 688.128 294.352C687.887 294.599 687.588 294.793 687.233 294.932C686.878 295.068 686.479 295.136 686.036 295.136ZM690.276 295V288.455H691.248V289.443H691.316C691.435 289.119 691.651 288.857 691.963 288.655C692.276 288.453 692.628 288.352 693.02 288.352C693.094 288.352 693.186 288.354 693.297 288.357C693.408 288.359 693.492 288.364 693.549 288.369V289.392C693.515 289.384 693.436 289.371 693.314 289.354C693.195 289.334 693.069 289.324 692.935 289.324C692.617 289.324 692.333 289.391 692.083 289.524C691.836 289.655 691.64 289.837 691.495 290.07C691.353 290.3 691.282 290.562 691.282 290.858V295H690.276ZM699.377 289.92L698.474 290.176C698.417 290.026 698.333 289.879 698.222 289.737C698.114 289.592 697.967 289.473 697.779 289.379C697.592 289.286 697.352 289.239 697.059 289.239C696.658 289.239 696.325 289.331 696.058 289.516C695.793 289.697 695.661 289.929 695.661 290.21C695.661 290.46 695.752 290.658 695.934 290.803C696.116 290.947 696.4 291.068 696.786 291.165L697.758 291.403C698.343 291.545 698.779 291.763 699.066 292.055C699.353 292.345 699.496 292.719 699.496 293.176C699.496 293.551 699.388 293.886 699.173 294.182C698.96 294.477 698.661 294.71 698.278 294.881C697.894 295.051 697.448 295.136 696.94 295.136C696.272 295.136 695.719 294.991 695.282 294.702C694.844 294.412 694.567 293.989 694.451 293.432L695.406 293.193C695.496 293.545 695.668 293.81 695.921 293.986C696.177 294.162 696.511 294.25 696.923 294.25C697.391 294.25 697.763 294.151 698.039 293.952C698.317 293.75 698.457 293.509 698.457 293.227C698.457 293 698.377 292.81 698.218 292.656C698.059 292.5 697.815 292.384 697.485 292.307L696.394 292.051C695.795 291.909 695.354 291.689 695.073 291.391C694.795 291.089 694.656 290.713 694.656 290.261C694.656 289.892 694.759 289.565 694.967 289.281C695.177 288.997 695.462 288.774 695.823 288.612C696.187 288.45 696.599 288.369 697.059 288.369C697.707 288.369 698.215 288.511 698.585 288.795C698.957 289.08 699.221 289.455 699.377 289.92ZM702.016 291.062V295H701.01V286.273H702.016V289.477H702.101C702.255 289.139 702.485 288.871 702.792 288.672C703.101 288.47 703.513 288.369 704.027 288.369C704.473 288.369 704.864 288.459 705.199 288.638C705.534 288.814 705.794 289.085 705.979 289.452C706.167 289.815 706.26 290.278 706.26 290.841V295H705.255V290.909C705.255 290.389 705.12 289.987 704.85 289.703C704.583 289.416 704.212 289.273 703.738 289.273C703.408 289.273 703.113 289.342 702.851 289.482C702.593 289.621 702.388 289.824 702.238 290.091C702.09 290.358 702.016 290.682 702.016 291.062ZM710.759 295.136C710.168 295.136 709.65 294.996 709.204 294.714C708.761 294.433 708.414 294.04 708.164 293.534C707.917 293.028 707.793 292.437 707.793 291.761C707.793 291.08 707.917 290.484 708.164 289.976C708.414 289.467 708.761 289.072 709.204 288.791C709.65 288.51 710.168 288.369 710.759 288.369C711.35 288.369 711.867 288.51 712.31 288.791C712.756 289.072 713.103 289.467 713.35 289.976C713.6 290.484 713.725 291.08 713.725 291.761C713.725 292.437 713.6 293.028 713.35 293.534C713.103 294.04 712.756 294.433 712.31 294.714C711.867 294.996 711.35 295.136 710.759 295.136ZM710.759 294.233C711.208 294.233 711.577 294.118 711.867 293.888C712.157 293.658 712.371 293.355 712.511 292.98C712.65 292.605 712.719 292.199 712.719 291.761C712.719 291.324 712.65 290.916 712.511 290.538C712.371 290.161 712.157 289.855 711.867 289.622C711.577 289.389 711.208 289.273 710.759 289.273C710.31 289.273 709.941 289.389 709.651 289.622C709.362 289.855 709.147 290.161 709.008 290.538C708.869 290.916 708.799 291.324 708.799 291.761C708.799 292.199 708.869 292.605 709.008 292.98C709.147 293.355 709.362 293.658 709.651 293.888C709.941 294.118 710.31 294.233 710.759 294.233ZM717.919 295.136C717.328 295.136 716.81 294.996 716.364 294.714C715.921 294.433 715.574 294.04 715.324 293.534C715.077 293.028 714.953 292.437 714.953 291.761C714.953 291.08 715.077 290.484 715.324 289.976C715.574 289.467 715.921 289.072 716.364 288.791C716.81 288.51 717.328 288.369 717.919 288.369C718.51 288.369 719.027 288.51 719.471 288.791C719.917 289.072 720.263 289.467 720.51 289.976C720.76 290.484 720.885 291.08 720.885 291.761C720.885 292.437 720.76 293.028 720.51 293.534C720.263 294.04 719.917 294.433 719.471 294.714C719.027 294.996 718.51 295.136 717.919 295.136ZM717.919 294.233C718.368 294.233 718.738 294.118 719.027 293.888C719.317 293.658 719.532 293.355 719.671 292.98C719.81 292.605 719.88 292.199 719.88 291.761C719.88 291.324 719.81 290.916 719.671 290.538C719.532 290.161 719.317 289.855 719.027 289.622C718.738 289.389 718.368 289.273 717.919 289.273C717.471 289.273 717.101 289.389 716.811 289.622C716.522 289.855 716.307 290.161 716.168 290.538C716.029 290.916 715.959 291.324 715.959 291.761C715.959 292.199 716.029 292.605 716.168 292.98C716.307 293.355 716.522 293.658 716.811 293.888C717.101 294.118 717.471 294.233 717.919 294.233ZM725.267 288.455V289.307H721.875V288.455H725.267ZM722.864 286.886H723.869V293.125C723.869 293.409 723.911 293.622 723.993 293.764C724.078 293.903 724.186 293.997 724.317 294.045C724.45 294.091 724.591 294.114 724.739 294.114C724.849 294.114 724.94 294.108 725.011 294.097C725.082 294.082 725.139 294.071 725.182 294.062L725.386 294.966C725.318 294.991 725.223 295.017 725.101 295.043C724.979 295.071 724.824 295.085 724.636 295.085C724.352 295.085 724.074 295.024 723.801 294.902C723.531 294.78 723.307 294.594 723.128 294.344C722.952 294.094 722.864 293.778 722.864 293.398V286.886Z" fill="#FF003C"/>
<path d="M574.057 101V92.2727H575.062V95.4943H575.148C575.222 95.3807 575.324 95.2358 575.455 95.0597C575.588 94.8807 575.778 94.7216 576.026 94.5824C576.276 94.4403 576.614 94.3693 577.04 94.3693C577.591 94.3693 578.077 94.5071 578.497 94.7827C578.918 95.0582 579.246 95.4489 579.482 95.9545C579.717 96.4602 579.835 97.0568 579.835 97.7443C579.835 98.4375 579.717 99.0384 579.482 99.5469C579.246 100.053 578.919 100.445 578.501 100.723C578.084 100.999 577.602 101.136 577.057 101.136C576.636 101.136 576.3 101.067 576.047 100.928C575.794 100.786 575.599 100.625 575.463 100.446C575.327 100.264 575.222 100.114 575.148 99.9943H575.028V101H574.057ZM575.045 97.7273C575.045 98.2216 575.118 98.6577 575.263 99.0355C575.408 99.4105 575.619 99.7045 575.898 99.9176C576.176 100.128 576.517 100.233 576.92 100.233C577.341 100.233 577.692 100.122 577.973 99.9006C578.257 99.6761 578.47 99.375 578.612 98.9972C578.757 98.6165 578.83 98.1932 578.83 97.7273C578.83 97.267 578.759 96.8523 578.616 96.483C578.477 96.1108 578.266 95.8168 577.982 95.6009C577.7 95.3821 577.347 95.2727 576.92 95.2727C576.511 95.2727 576.168 95.3764 575.889 95.5838C575.611 95.7884 575.401 96.0753 575.259 96.4446C575.116 96.8111 575.045 97.2386 575.045 97.7273ZM584.118 101.136C583.487 101.136 582.943 100.997 582.486 100.719C582.031 100.438 581.68 100.045 581.433 99.5426C581.189 99.0369 581.067 98.4489 581.067 97.7784C581.067 97.108 581.189 96.517 581.433 96.0057C581.68 95.4915 582.024 95.0909 582.464 94.804C582.908 94.5142 583.425 94.3693 584.016 94.3693C584.357 94.3693 584.693 94.4261 585.026 94.5398C585.358 94.6534 585.661 94.8381 585.933 95.0938C586.206 95.3466 586.423 95.6818 586.585 96.0994C586.747 96.517 586.828 97.0312 586.828 97.642V98.0682H581.783V97.1989H585.805C585.805 96.8295 585.732 96.5 585.584 96.2102C585.439 95.9205 585.232 95.6918 584.962 95.5241C584.695 95.3565 584.379 95.2727 584.016 95.2727C583.615 95.2727 583.268 95.3722 582.976 95.571C582.686 95.767 582.463 96.0227 582.307 96.3381C582.151 96.6534 582.072 96.9915 582.072 97.3523V97.9318C582.072 98.4261 582.158 98.8452 582.328 99.1889C582.501 99.5298 582.741 99.7898 583.048 99.9688C583.355 100.145 583.712 100.233 584.118 100.233C584.382 100.233 584.621 100.196 584.834 100.122C585.05 100.045 585.236 99.9318 585.392 99.7812C585.548 99.6278 585.669 99.4375 585.754 99.2102L586.726 99.483C586.624 99.8125 586.452 100.102 586.21 100.352C585.969 100.599 585.67 100.793 585.315 100.932C584.96 101.068 584.561 101.136 584.118 101.136ZM593.511 94.4545L591.091 101H590.068L587.647 94.4545H588.738L590.545 99.6705H590.613L592.42 94.4545H593.511ZM597.348 101.136C596.718 101.136 596.174 100.997 595.716 100.719C595.262 100.438 594.911 100.045 594.664 99.5426C594.419 99.0369 594.297 98.4489 594.297 97.7784C594.297 97.108 594.419 96.517 594.664 96.0057C594.911 95.4915 595.255 95.0909 595.695 94.804C596.138 94.5142 596.655 94.3693 597.246 94.3693C597.587 94.3693 597.924 94.4261 598.256 94.5398C598.588 94.6534 598.891 94.8381 599.164 95.0938C599.436 95.3466 599.654 95.6818 599.816 96.0994C599.978 96.517 600.059 97.0312 600.059 97.642V98.0682H595.013V97.1989H599.036C599.036 96.8295 598.962 96.5 598.814 96.2102C598.669 95.9205 598.462 95.6918 598.192 95.5241C597.925 95.3565 597.61 95.2727 597.246 95.2727C596.846 95.2727 596.499 95.3722 596.206 95.571C595.917 95.767 595.694 96.0227 595.537 96.3381C595.381 96.6534 595.303 96.9915 595.303 97.3523V97.9318C595.303 98.4261 595.388 98.8452 595.559 99.1889C595.732 99.5298 595.972 99.7898 596.279 99.9688C596.586 100.145 596.942 100.233 597.348 100.233C597.613 100.233 597.851 100.196 598.064 100.122C598.28 100.045 598.466 99.9318 598.623 99.7812C598.779 99.6278 598.9 99.4375 598.985 99.2102L599.956 99.483C599.854 99.8125 599.682 100.102 599.441 100.352C599.199 100.599 598.901 100.793 598.546 100.932C598.191 101.068 597.792 101.136 597.348 101.136ZM602.594 92.2727V101H601.588V92.2727H602.594ZM610.283 101.136C609.737 101.136 609.256 100.999 608.838 100.723C608.42 100.445 608.094 100.053 607.858 99.5469C607.622 99.0384 607.504 98.4375 607.504 97.7443C607.504 97.0568 607.622 96.4602 607.858 95.9545C608.094 95.4489 608.422 95.0582 608.842 94.7827C609.263 94.5071 609.749 94.3693 610.3 94.3693C610.726 94.3693 611.063 94.4403 611.31 94.5824C611.56 94.7216 611.75 94.8807 611.881 95.0597C612.014 95.2358 612.118 95.3807 612.192 95.4943H612.277V92.2727H613.283V101H612.311V99.9943H612.192C612.118 100.114 612.013 100.264 611.876 100.446C611.74 100.625 611.545 100.786 611.293 100.928C611.04 101.067 610.703 101.136 610.283 101.136ZM610.419 100.233C610.822 100.233 611.163 100.128 611.442 99.9176C611.72 99.7045 611.932 99.4105 612.077 99.0355C612.222 98.6577 612.294 98.2216 612.294 97.7273C612.294 97.2386 612.223 96.8111 612.081 96.4446C611.939 96.0753 611.729 95.7884 611.45 95.5838C611.172 95.3764 610.828 95.2727 610.419 95.2727C609.993 95.2727 609.638 95.3821 609.354 95.6009C609.072 95.8168 608.861 96.1108 608.719 96.483C608.58 96.8523 608.51 97.267 608.51 97.7273C608.51 98.1932 608.581 98.6165 608.723 98.9972C608.868 99.375 609.081 99.6761 609.362 99.9006C609.646 100.122 609.999 100.233 610.419 100.233ZM615.264 101V94.4545H616.27V101H615.264ZM615.776 93.3636C615.58 93.3636 615.411 93.2969 615.268 93.1634C615.129 93.0298 615.06 92.8693 615.06 92.6818C615.06 92.4943 615.129 92.3338 615.268 92.2003C615.411 92.0668 615.58 92 615.776 92C615.972 92 616.139 92.0668 616.278 92.2003C616.42 92.3338 616.491 92.4943 616.491 92.6818C616.491 92.8693 616.42 93.0298 616.278 93.1634C616.139 93.2969 615.972 93.3636 615.776 93.3636ZM622.748 95.9205L621.845 96.1761C621.788 96.0256 621.704 95.8793 621.593 95.7372C621.485 95.5923 621.338 95.473 621.15 95.3793C620.963 95.2855 620.723 95.2386 620.43 95.2386C620.029 95.2386 619.696 95.331 619.429 95.5156C619.164 95.6974 619.032 95.929 619.032 96.2102C619.032 96.4602 619.123 96.6577 619.305 96.8026C619.487 96.9474 619.771 97.0682 620.157 97.1648L621.129 97.4034C621.714 97.5455 622.15 97.7628 622.437 98.0554C622.724 98.3452 622.868 98.7187 622.868 99.1761C622.868 99.5511 622.76 99.8864 622.544 100.182C622.331 100.477 622.032 100.71 621.649 100.881C621.265 101.051 620.819 101.136 620.311 101.136C619.643 101.136 619.091 100.991 618.653 100.702C618.216 100.412 617.939 99.9886 617.822 99.4318L618.777 99.1932C618.868 99.5455 619.039 99.8097 619.292 99.9858C619.548 100.162 619.882 100.25 620.294 100.25C620.762 100.25 621.135 100.151 621.41 99.9517C621.689 99.75 621.828 99.5085 621.828 99.2273C621.828 99 621.748 98.8097 621.589 98.6562C621.43 98.5 621.186 98.3835 620.856 98.3068L619.765 98.0511C619.166 97.9091 618.725 97.6889 618.444 97.3906C618.166 97.0895 618.027 96.7131 618.027 96.2614C618.027 95.892 618.13 95.5653 618.338 95.2812C618.548 94.9972 618.833 94.7741 619.194 94.6122C619.558 94.4503 619.97 94.3693 620.43 94.3693C621.078 94.3693 621.586 94.5114 621.956 94.7955C622.328 95.0795 622.592 95.4545 622.748 95.9205ZM627.228 94.4545V95.3068H623.836V94.4545H627.228ZM624.825 92.8864H625.83V99.125C625.83 99.4091 625.871 99.6222 625.954 99.7642C626.039 99.9034 626.147 99.9972 626.278 100.045C626.411 100.091 626.552 100.114 626.7 100.114C626.81 100.114 626.901 100.108 626.972 100.097C627.043 100.082 627.1 100.071 627.143 100.062L627.347 100.966C627.279 100.991 627.184 101.017 627.062 101.043C626.94 101.071 626.785 101.085 626.597 101.085C626.313 101.085 626.035 101.024 625.762 100.902C625.492 100.78 625.268 100.594 625.089 100.344C624.913 100.094 624.825 99.7784 624.825 99.3977V92.8864ZM630.667 101.153C630.252 101.153 629.876 101.075 629.538 100.919C629.2 100.76 628.931 100.531 628.732 100.233C628.533 99.9318 628.434 99.5682 628.434 99.142C628.434 98.767 628.508 98.4631 628.656 98.2301C628.803 97.9943 629.001 97.8097 629.248 97.6761C629.495 97.5426 629.768 97.4432 630.066 97.3778C630.367 97.3097 630.67 97.2557 630.974 97.2159C631.371 97.1648 631.694 97.1264 631.941 97.1009C632.191 97.0724 632.373 97.0256 632.487 96.9602C632.603 96.8949 632.661 96.7812 632.661 96.6193V96.5852C632.661 96.1648 632.546 95.8381 632.316 95.6051C632.089 95.3722 631.744 95.2557 631.281 95.2557C630.8 95.2557 630.424 95.3608 630.151 95.571C629.879 95.7812 629.687 96.0057 629.576 96.2443L628.621 95.9034C628.792 95.5057 629.019 95.196 629.303 94.9744C629.59 94.75 629.903 94.5937 630.241 94.5057C630.582 94.4148 630.917 94.3693 631.246 94.3693C631.457 94.3693 631.698 94.3949 631.971 94.446C632.246 94.4943 632.512 94.5952 632.768 94.7486C633.026 94.902 633.241 95.1335 633.411 95.4432C633.582 95.7528 633.667 96.1676 633.667 96.6875V101H632.661V100.114H632.61C632.542 100.256 632.428 100.408 632.269 100.57C632.11 100.732 631.898 100.869 631.634 100.983C631.37 101.097 631.048 101.153 630.667 101.153ZM630.82 100.25C631.218 100.25 631.553 100.172 631.826 100.016C632.102 99.8594 632.309 99.6577 632.448 99.4105C632.59 99.1634 632.661 98.9034 632.661 98.6307V97.7102C632.619 97.7614 632.525 97.8082 632.38 97.8509C632.238 97.8906 632.073 97.9261 631.886 97.9574C631.701 97.9858 631.521 98.0114 631.344 98.0341C631.171 98.054 631.031 98.071 630.923 98.0852C630.661 98.1193 630.417 98.1747 630.19 98.2514C629.965 98.3253 629.783 98.4375 629.644 98.5881C629.508 98.7358 629.44 98.9375 629.44 99.1932C629.44 99.5426 629.569 99.8068 629.827 99.9858C630.089 100.162 630.42 100.25 630.82 100.25ZM636.508 97.0625V101H635.502V94.4545H636.474V95.4773H636.559C636.713 95.1449 636.946 94.8778 637.258 94.6761C637.571 94.4716 637.974 94.3693 638.468 94.3693C638.912 94.3693 639.299 94.4602 639.632 94.642C639.964 94.821 640.223 95.0938 640.407 95.4602C640.592 95.8239 640.684 96.2841 640.684 96.8409V101H639.679V96.9091C639.679 96.3949 639.545 95.9943 639.278 95.7074C639.011 95.4176 638.645 95.2727 638.179 95.2727C637.858 95.2727 637.571 95.3423 637.318 95.4815C637.068 95.6207 636.87 95.8239 636.725 96.0909C636.581 96.358 636.508 96.6818 636.508 97.0625ZM645.181 101.136C644.567 101.136 644.039 100.991 643.596 100.702C643.153 100.412 642.812 100.013 642.573 99.5043C642.335 98.9957 642.215 98.4148 642.215 97.7614C642.215 97.0966 642.337 96.5099 642.582 96.0014C642.829 95.4901 643.173 95.0909 643.613 94.804C644.056 94.5142 644.573 94.3693 645.164 94.3693C645.624 94.3693 646.039 94.4545 646.408 94.625C646.778 94.7955 647.08 95.0341 647.316 95.3409C647.552 95.6477 647.698 96.0057 647.755 96.4148H646.749C646.673 96.1165 646.502 95.8523 646.238 95.6222C645.977 95.3892 645.624 95.2727 645.181 95.2727C644.789 95.2727 644.445 95.375 644.15 95.5795C643.857 95.7812 643.629 96.0668 643.464 96.4361C643.302 96.8026 643.221 97.233 643.221 97.7273C643.221 98.233 643.3 98.6733 643.46 99.0483C643.621 99.4233 643.849 99.7145 644.141 99.9219C644.437 100.129 644.783 100.233 645.181 100.233C645.442 100.233 645.68 100.188 645.893 100.097C646.106 100.006 646.286 99.875 646.434 99.7045C646.582 99.5341 646.687 99.3295 646.749 99.0909H647.755C647.698 99.4773 647.558 99.8253 647.333 100.135C647.112 100.442 646.817 100.686 646.451 100.868C646.087 101.047 645.664 101.136 645.181 101.136ZM651.969 101.136C651.339 101.136 650.795 100.997 650.337 100.719C649.883 100.438 649.532 100.045 649.285 99.5426C649.04 99.0369 648.918 98.4489 648.918 97.7784C648.918 97.108 649.04 96.517 649.285 96.0057C649.532 95.4915 649.876 95.0909 650.316 94.804C650.759 94.5142 651.276 94.3693 651.867 94.3693C652.208 94.3693 652.545 94.4261 652.877 94.5398C653.21 94.6534 653.512 94.8381 653.785 95.0938C654.058 95.3466 654.275 95.6818 654.437 96.0994C654.599 96.517 654.68 97.0312 654.68 97.642V98.0682H649.634V97.1989H653.657C653.657 96.8295 653.583 96.5 653.435 96.2102C653.29 95.9205 653.083 95.6918 652.813 95.5241C652.546 95.3565 652.231 95.2727 651.867 95.2727C651.467 95.2727 651.12 95.3722 650.827 95.571C650.538 95.767 650.315 96.0227 650.158 96.3381C650.002 96.6534 649.924 96.9915 649.924 97.3523V97.9318C649.924 98.4261 650.009 98.8452 650.18 99.1889C650.353 99.5298 650.593 99.7898 650.9 99.9688C651.207 100.145 651.563 100.233 651.969 100.233C652.234 100.233 652.472 100.196 652.685 100.122C652.901 100.045 653.087 99.9318 653.244 99.7812C653.4 99.6278 653.521 99.4375 653.606 99.2102L654.577 99.483C654.475 99.8125 654.303 100.102 654.062 100.352C653.82 100.599 653.522 100.793 653.167 100.932C652.812 101.068 652.413 101.136 651.969 101.136Z" fill="#FF003C"/>
<path d="M23.767 205.455V206.307H20.375V205.455H23.767ZM21.3636 203.886H22.3693V210.125C22.3693 210.409 22.4105 210.622 22.4929 210.764C22.5781 210.903 22.6861 210.997 22.8168 211.045C22.9503 211.091 23.0909 211.114 23.2386 211.114C23.3494 211.114 23.4403 211.108 23.5114 211.097C23.5824 211.082 23.6392 211.071 23.6818 211.062L23.8864 211.966C23.8182 211.991 23.723 212.017 23.6009 212.043C23.4787 212.071 23.3239 212.085 23.1364 212.085C22.8523 212.085 22.5739 212.024 22.3011 211.902C22.0313 211.78 21.8068 211.594 21.6278 211.344C21.4517 211.094 21.3636 210.778 21.3636 210.398V203.886ZM26.4261 208.062V212H25.4205V203.273H26.4261V206.477H26.5114C26.6648 206.139 26.8949 205.871 27.2017 205.672C27.5114 205.47 27.9233 205.369 28.4375 205.369C28.8835 205.369 29.2741 205.459 29.6094 205.638C29.9446 205.814 30.2045 206.085 30.3892 206.452C30.5767 206.815 30.6705 207.278 30.6705 207.841V212H29.6648V207.909C29.6648 207.389 29.5298 206.987 29.2599 206.703C28.9929 206.416 28.6222 206.273 28.1477 206.273C27.8182 206.273 27.5227 206.342 27.2614 206.482C27.0028 206.621 26.7983 206.824 26.6477 207.091C26.5 207.358 26.4261 207.682 26.4261 208.062ZM32.5103 212V205.455H33.516V212H32.5103ZM33.0217 204.364C32.8256 204.364 32.6566 204.297 32.5146 204.163C32.3754 204.03 32.3058 203.869 32.3058 203.682C32.3058 203.494 32.3754 203.334 32.5146 203.2C32.6566 203.067 32.8256 203 33.0217 203C33.2177 203 33.3853 203.067 33.5245 203.2C33.6665 203.334 33.7376 203.494 33.7376 203.682C33.7376 203.869 33.6665 204.03 33.5245 204.163C33.3853 204.297 33.2177 204.364 33.0217 204.364ZM38.017 212.136C37.4034 212.136 36.875 211.991 36.4318 211.702C35.9886 211.412 35.6477 211.013 35.4091 210.504C35.1705 209.996 35.0511 209.415 35.0511 208.761C35.0511 208.097 35.1733 207.51 35.4176 207.001C35.6648 206.49 36.0085 206.091 36.4489 205.804C36.892 205.514 37.4091 205.369 38 205.369C38.4602 205.369 38.875 205.455 39.2443 205.625C39.6136 205.795 39.9162 206.034 40.152 206.341C40.3878 206.648 40.5341 207.006 40.5909 207.415H39.5852C39.5085 207.116 39.3381 206.852 39.0739 206.622C38.8125 206.389 38.4602 206.273 38.017 206.273C37.625 206.273 37.2813 206.375 36.9858 206.58C36.6932 206.781 36.4645 207.067 36.2997 207.436C36.1378 207.803 36.0568 208.233 36.0568 208.727C36.0568 209.233 36.1364 209.673 36.2955 210.048C36.4574 210.423 36.6847 210.714 36.9773 210.922C37.2727 211.129 37.6193 211.233 38.017 211.233C38.2784 211.233 38.5156 211.188 38.7287 211.097C38.9418 211.006 39.1222 210.875 39.2699 210.705C39.4176 210.534 39.5227 210.33 39.5852 210.091H40.5909C40.5341 210.477 40.3935 210.825 40.169 211.135C39.9474 211.442 39.6534 211.686 39.2869 211.868C38.9233 212.047 38.5 212.136 38.017 212.136ZM42.9986 209.614L42.9815 208.369H43.1861L46.0497 205.455H47.294L44.2429 208.54H44.1577L42.9986 209.614ZM42.0611 212V203.273H43.0668V212H42.0611ZM46.2202 212L43.6634 208.761L44.3793 208.062L47.4986 212H46.2202ZM49.5941 208.062V212H48.5884V205.455H49.56V206.477H49.6452C49.7987 206.145 50.0316 205.878 50.3441 205.676C50.6566 205.472 51.06 205.369 51.5543 205.369C51.9975 205.369 52.3853 205.46 52.7177 205.642C53.0501 205.821 53.3086 206.094 53.4933 206.46C53.6779 206.824 53.7702 207.284 53.7702 207.841V212H52.7646V207.909C52.7646 207.395 52.631 206.994 52.364 206.707C52.0969 206.418 51.7305 206.273 51.2646 206.273C50.9435 206.273 50.6566 206.342 50.4038 206.482C50.1538 206.621 49.9563 206.824 49.8114 207.091C49.6665 207.358 49.5941 207.682 49.5941 208.062ZM58.3523 212.136C57.7216 212.136 57.1776 211.997 56.7202 211.719C56.2656 211.438 55.9148 211.045 55.6676 210.543C55.4233 210.037 55.3011 209.449 55.3011 208.778C55.3011 208.108 55.4233 207.517 55.6676 207.006C55.9148 206.491 56.2585 206.091 56.6989 205.804C57.142 205.514 57.6591 205.369 58.25 205.369C58.5909 205.369 58.9276 205.426 59.2599 205.54C59.5923 205.653 59.8949 205.838 60.1676 206.094C60.4403 206.347 60.6577 206.682 60.8196 207.099C60.9815 207.517 61.0625 208.031 61.0625 208.642V209.068H56.017V208.199H60.0398C60.0398 207.83 59.9659 207.5 59.8182 207.21C59.6733 206.92 59.4659 206.692 59.196 206.524C58.929 206.357 58.6136 206.273 58.25 206.273C57.8494 206.273 57.5028 206.372 57.2102 206.571C56.9205 206.767 56.6974 207.023 56.5412 207.338C56.3849 207.653 56.3068 207.991 56.3068 208.352V208.932C56.3068 209.426 56.392 209.845 56.5625 210.189C56.7358 210.53 56.9759 210.79 57.2827 210.969C57.5895 211.145 57.946 211.233 58.3523 211.233C58.6165 211.233 58.8551 211.196 59.0682 211.122C59.2841 211.045 59.4702 210.932 59.6264 210.781C59.7827 210.628 59.9034 210.437 59.9886 210.21L60.9602 210.483C60.858 210.812 60.6861 211.102 60.4446 211.352C60.2031 211.599 59.9048 211.793 59.5497 211.932C59.1946 212.068 58.7955 212.136 58.3523 212.136ZM67.2287 206.92L66.3253 207.176C66.2685 207.026 66.1847 206.879 66.0739 206.737C65.9659 206.592 65.8182 206.473 65.6307 206.379C65.4432 206.286 65.2031 206.239 64.9105 206.239C64.5099 206.239 64.1761 206.331 63.9091 206.516C63.6449 206.697 63.5128 206.929 63.5128 207.21C63.5128 207.46 63.6037 207.658 63.7855 207.803C63.9673 207.947 64.2514 208.068 64.6378 208.165L65.6094 208.403C66.1946 208.545 66.6307 208.763 66.9176 209.055C67.2045 209.345 67.348 209.719 67.348 210.176C67.348 210.551 67.2401 210.886 67.0241 211.182C66.8111 211.477 66.5128 211.71 66.1293 211.881C65.7457 212.051 65.2997 212.136 64.7912 212.136C64.1236 212.136 63.571 211.991 63.1335 211.702C62.696 211.412 62.419 210.989 62.3026 210.432L63.2571 210.193C63.348 210.545 63.5199 210.81 63.7727 210.986C64.0284 211.162 64.3622 211.25 64.7741 211.25C65.2429 211.25 65.6151 211.151 65.8906 210.952C66.169 210.75 66.3082 210.509 66.3082 210.227C66.3082 210 66.2287 209.81 66.0696 209.656C65.9105 209.5 65.6662 209.384 65.3366 209.307L64.2457 209.051C63.6463 208.909 63.206 208.689 62.9247 208.391C62.6463 208.089 62.5071 207.713 62.5071 207.261C62.5071 206.892 62.6108 206.565 62.8182 206.281C63.0284 205.997 63.3139 205.774 63.6747 205.612C64.0384 205.45 64.4503 205.369 64.9105 205.369C65.5582 205.369 66.0668 205.511 66.4361 205.795C66.8082 206.08 67.0724 206.455 67.2287 206.92ZM73.4982 206.92L72.5948 207.176C72.538 207.026 72.4542 206.879 72.3434 206.737C72.2354 206.592 72.0877 206.473 71.9002 206.379C71.7127 206.286 71.4727 206.239 71.18 206.239C70.7795 206.239 70.4457 206.331 70.1786 206.516C69.9144 206.697 69.7823 206.929 69.7823 207.21C69.7823 207.46 69.8732 207.658 70.055 207.803C70.2369 207.947 70.521 208.068 70.9073 208.165L71.8789 208.403C72.4641 208.545 72.9002 208.763 73.1871 209.055C73.4741 209.345 73.6175 209.719 73.6175 210.176C73.6175 210.551 73.5096 210.886 73.2937 211.182C73.0806 211.477 72.7823 211.71 72.3988 211.881C72.0153 212.051 71.5692 212.136 71.0607 212.136C70.3931 212.136 69.8406 211.991 69.4031 211.702C68.9656 211.412 68.6886 210.989 68.5721 210.432L69.5266 210.193C69.6175 210.545 69.7894 210.81 70.0423 210.986C70.2979 211.162 70.6317 211.25 71.0437 211.25C71.5124 211.25 71.8846 211.151 72.1602 210.952C72.4386 210.75 72.5778 210.509 72.5778 210.227C72.5778 210 72.4982 209.81 72.3391 209.656C72.18 209.5 71.9357 209.384 71.6062 209.307L70.5153 209.051C69.9158 208.909 69.4755 208.689 69.1942 208.391C68.9158 208.089 68.7766 207.713 68.7766 207.261C68.7766 206.892 68.8803 206.565 69.0877 206.281C69.2979 205.997 69.5835 205.774 69.9442 205.612C70.3079 205.45 70.7198 205.369 71.18 205.369C71.8278 205.369 72.3363 205.511 72.7056 205.795C73.0778 206.08 73.342 206.455 73.4982 206.92Z" fill="#FF003C"/>
</g>
<defs>
<clipPath id="clip0_115_42">
<rect width="861" height="336" fill="white"/>
</clipPath>
</defs>
</svg>
