<svg width="452" height="199" viewBox="0 0 452 199" fill="none" xmlns="http://www.w3.org/2000/svg">
<rect width="452" height="199" fill="white"/>
<rect x="31" y="19.5" width="54" height="107" fill="#0999C9" fill-opacity="0.25" stroke="#0999C9"/>
<rect x="175" y="19.5" width="54" height="107" fill="#0999C9" fill-opacity="0.25" stroke="#0999C9"/>
<rect x="321.75" y="19.5" width="54" height="97" fill="#0999C9" fill-opacity="0.25" stroke="#0999C9"/>
<rect x="321.5" y="116.5" width="54" height="20" fill="url(#paint0_linear_149_39)" fill-opacity="0.25" stroke="#0999C9"/>
<line y1="-0.5" x2="120.748" y2="-0.5" transform="matrix(0.447214 -0.894427 0.976746 0.2144 31.5 127)" stroke="#0999C9" stroke-opacity="0.25"/>
<line y1="-0.5" x2="120.748" y2="-0.5" transform="matrix(0.447214 -0.894427 0.976746 0.2144 175.5 127)" stroke="#0999C9" stroke-opacity="0.25"/>
<line y1="-0.5" x2="111.893" y2="-0.5" transform="matrix(0.482605 -0.875838 0.980735 0.195342 322.75 117)" stroke="#0999C9" stroke-opacity="0.25"/>
<line x1="320.829" y1="136.53" x2="375.829" y2="116.53" stroke="#0999C9" stroke-opacity="0.25"/>
<path d="M21 94H30L49.5 81L67.5 81L85.5 94H93.5" stroke="#FF003C"/>
<path d="M165 94H174L193.5 81L211.5 81L229.5 94H237.5" stroke="#FF003C"/>
<line x1="58" y1="127" x2="58" y2="19" stroke="black" stroke-dasharray="2 2"/>
<line x1="202" y1="127" x2="202" y2="19" stroke="black" stroke-dasharray="2 2"/>
<line x1="349" y1="127" x2="349" y2="19" stroke="black" stroke-dasharray="2 2"/>
<circle cx="58.5" cy="19" r="3" fill="black"/>
<circle cx="202.5" cy="19" r="3" fill="black"/>
<circle cx="349.5" cy="19" r="3" fill="black"/>
<circle cx="58.5" cy="127" r="3" fill="black"/>
<circle cx="202.5" cy="127" r="3" fill="black"/>
<circle cx="349.5" cy="127" r="3" fill="black"/>
<path d="M102.915 98H101.807L105.011 89.2727H106.102L109.307 98H108.199L105.591 90.6534H105.523L102.915 98ZM103.324 94.5909H107.79V95.5284H103.324V94.5909ZM111.536 89.2727V98H110.53V89.2727H111.536ZM113.377 100.455V91.4545H114.349V92.4943H114.468C114.542 92.3807 114.645 92.2358 114.775 92.0597C114.909 91.8807 115.099 91.7216 115.346 91.5824C115.596 91.4403 115.934 91.3693 116.36 91.3693C116.912 91.3693 117.397 91.5071 117.818 91.7827C118.238 92.0582 118.566 92.4489 118.802 92.9545C119.038 93.4602 119.156 94.0568 119.156 94.7443C119.156 95.4375 119.038 96.0384 118.802 96.5469C118.566 97.0526 118.24 97.4446 117.822 97.723C117.404 97.9986 116.923 98.1364 116.377 98.1364C115.957 98.1364 115.62 98.0668 115.368 97.9276C115.115 97.7855 114.92 97.625 114.784 97.446C114.647 97.2642 114.542 97.1136 114.468 96.9943H114.383V100.455H113.377ZM114.366 94.7273C114.366 95.2216 114.439 95.6577 114.583 96.0355C114.728 96.4105 114.94 96.7045 115.218 96.9176C115.497 97.1278 115.838 97.233 116.241 97.233C116.662 97.233 117.012 97.1222 117.294 96.9006C117.578 96.6761 117.791 96.375 117.933 95.9972C118.078 95.6165 118.15 95.1932 118.15 94.7273C118.15 94.267 118.079 93.8523 117.937 93.483C117.798 93.1108 117.586 92.8168 117.302 92.6009C117.021 92.3821 116.667 92.2727 116.241 92.2727C115.832 92.2727 115.488 92.3764 115.21 92.5838C114.931 92.7884 114.721 93.0753 114.579 93.4446C114.437 93.8111 114.366 94.2386 114.366 94.7273ZM121.696 94.0625V98H120.69V89.2727H121.696V92.4773H121.781C121.934 92.1392 122.164 91.8707 122.471 91.6719C122.781 91.4702 123.193 91.3693 123.707 91.3693C124.153 91.3693 124.544 91.4588 124.879 91.6378C125.214 91.8139 125.474 92.0852 125.659 92.4517C125.846 92.8153 125.94 93.2784 125.94 93.8409V98H124.934V93.9091C124.934 93.3892 124.799 92.9872 124.529 92.7031C124.262 92.4162 123.892 92.2727 123.417 92.2727C123.088 92.2727 122.792 92.3423 122.531 92.4815C122.272 92.6207 122.068 92.8239 121.917 93.0909C121.77 93.358 121.696 93.6818 121.696 94.0625ZM129.706 98.1534C129.291 98.1534 128.915 98.0753 128.577 97.919C128.239 97.7599 127.97 97.5312 127.771 97.233C127.572 96.9318 127.473 96.5682 127.473 96.142C127.473 95.767 127.547 95.4631 127.695 95.2301C127.842 94.9943 128.04 94.8097 128.287 94.6761C128.534 94.5426 128.807 94.4432 129.105 94.3778C129.406 94.3097 129.709 94.2557 130.013 94.2159C130.411 94.1648 130.733 94.1264 130.98 94.1009C131.23 94.0724 131.412 94.0256 131.526 93.9602C131.642 93.8949 131.7 93.7812 131.7 93.6193V93.5852C131.7 93.1648 131.585 92.8381 131.355 92.6051C131.128 92.3722 130.783 92.2557 130.32 92.2557C129.839 92.2557 129.463 92.3608 129.19 92.571C128.918 92.7812 128.726 93.0057 128.615 93.2443L127.661 92.9034C127.831 92.5057 128.058 92.196 128.342 91.9744C128.629 91.75 128.942 91.5937 129.28 91.5057C129.621 91.4148 129.956 91.3693 130.286 91.3693C130.496 91.3693 130.737 91.3949 131.01 91.446C131.286 91.4943 131.551 91.5952 131.807 91.7486C132.065 91.902 132.28 92.1335 132.45 92.4432C132.621 92.7528 132.706 93.1676 132.706 93.6875V98H131.7V97.1136H131.649C131.581 97.2557 131.467 97.4077 131.308 97.5696C131.149 97.7315 130.938 97.8693 130.673 97.983C130.409 98.0966 130.087 98.1534 129.706 98.1534ZM129.859 97.25C130.257 97.25 130.592 97.1719 130.865 97.0156C131.141 96.8594 131.348 96.6577 131.487 96.4105C131.629 96.1634 131.7 95.9034 131.7 95.6307V94.7102C131.658 94.7614 131.564 94.8082 131.419 94.8509C131.277 94.8906 131.112 94.9261 130.925 94.9574C130.74 94.9858 130.56 95.0114 130.384 95.0341C130.21 95.054 130.07 95.071 129.962 95.0852C129.7 95.1193 129.456 95.1747 129.229 95.2514C129.004 95.3253 128.822 95.4375 128.683 95.5881C128.547 95.7358 128.479 95.9375 128.479 96.1932C128.479 96.5426 128.608 96.8068 128.866 96.9858C129.128 97.1619 129.459 97.25 129.859 97.25Z" fill="#FF003C"/>
<path d="M246.915 98H245.807L249.011 89.2727H250.102L253.307 98H252.199L249.591 90.6534H249.523L246.915 98ZM247.324 94.5909H251.79V95.5284H247.324V94.5909ZM255.536 89.2727V98H254.53V89.2727H255.536ZM257.377 100.455V91.4545H258.349V92.4943H258.468C258.542 92.3807 258.645 92.2358 258.775 92.0597C258.909 91.8807 259.099 91.7216 259.346 91.5824C259.596 91.4403 259.934 91.3693 260.36 91.3693C260.912 91.3693 261.397 91.5071 261.818 91.7827C262.238 92.0582 262.566 92.4489 262.802 92.9545C263.038 93.4602 263.156 94.0568 263.156 94.7443C263.156 95.4375 263.038 96.0384 262.802 96.5469C262.566 97.0526 262.24 97.4446 261.822 97.723C261.404 97.9986 260.923 98.1364 260.377 98.1364C259.957 98.1364 259.62 98.0668 259.368 97.9276C259.115 97.7855 258.92 97.625 258.784 97.446C258.647 97.2642 258.542 97.1136 258.468 96.9943H258.383V100.455H257.377ZM258.366 94.7273C258.366 95.2216 258.439 95.6577 258.583 96.0355C258.728 96.4105 258.94 96.7045 259.218 96.9176C259.497 97.1278 259.838 97.233 260.241 97.233C260.662 97.233 261.012 97.1222 261.294 96.9006C261.578 96.6761 261.791 96.375 261.933 95.9972C262.078 95.6165 262.15 95.1932 262.15 94.7273C262.15 94.267 262.079 93.8523 261.937 93.483C261.798 93.1108 261.586 92.8168 261.302 92.6009C261.021 92.3821 260.667 92.2727 260.241 92.2727C259.832 92.2727 259.488 92.3764 259.21 92.5838C258.931 92.7884 258.721 93.0753 258.579 93.4446C258.437 93.8111 258.366 94.2386 258.366 94.7273ZM265.696 94.0625V98H264.69V89.2727H265.696V92.4773H265.781C265.934 92.1392 266.164 91.8707 266.471 91.6719C266.781 91.4702 267.193 91.3693 267.707 91.3693C268.153 91.3693 268.544 91.4588 268.879 91.6378C269.214 91.8139 269.474 92.0852 269.659 92.4517C269.846 92.8153 269.94 93.2784 269.94 93.8409V98H268.934V93.9091C268.934 93.3892 268.799 92.9872 268.529 92.7031C268.262 92.4162 267.892 92.2727 267.417 92.2727C267.088 92.2727 266.792 92.3423 266.531 92.4815C266.272 92.6207 266.068 92.8239 265.917 93.0909C265.77 93.358 265.696 93.6818 265.696 94.0625ZM273.706 98.1534C273.291 98.1534 272.915 98.0753 272.577 97.919C272.239 97.7599 271.97 97.5312 271.771 97.233C271.572 96.9318 271.473 96.5682 271.473 96.142C271.473 95.767 271.547 95.4631 271.695 95.2301C271.842 94.9943 272.04 94.8097 272.287 94.6761C272.534 94.5426 272.807 94.4432 273.105 94.3778C273.406 94.3097 273.709 94.2557 274.013 94.2159C274.411 94.1648 274.733 94.1264 274.98 94.1009C275.23 94.0724 275.412 94.0256 275.526 93.9602C275.642 93.8949 275.7 93.7812 275.7 93.6193V93.5852C275.7 93.1648 275.585 92.8381 275.355 92.6051C275.128 92.3722 274.783 92.2557 274.32 92.2557C273.839 92.2557 273.463 92.3608 273.19 92.571C272.918 92.7812 272.726 93.0057 272.615 93.2443L271.661 92.9034C271.831 92.5057 272.058 92.196 272.342 91.9744C272.629 91.75 272.942 91.5937 273.28 91.5057C273.621 91.4148 273.956 91.3693 274.286 91.3693C274.496 91.3693 274.737 91.3949 275.01 91.446C275.286 91.4943 275.551 91.5952 275.807 91.7486C276.065 91.902 276.28 92.1335 276.45 92.4432C276.621 92.7528 276.706 93.1676 276.706 93.6875V98H275.7V97.1136H275.649C275.581 97.2557 275.467 97.4077 275.308 97.5696C275.149 97.7315 274.938 97.8693 274.673 97.983C274.409 98.0966 274.087 98.1534 273.706 98.1534ZM273.859 97.25C274.257 97.25 274.592 97.1719 274.865 97.0156C275.141 96.8594 275.348 96.6577 275.487 96.4105C275.629 96.1634 275.7 95.9034 275.7 95.6307V94.7102C275.658 94.7614 275.564 94.8082 275.419 94.8509C275.277 94.8906 275.112 94.9261 274.925 94.9574C274.74 94.9858 274.56 95.0114 274.384 95.0341C274.21 95.054 274.07 95.071 273.962 95.0852C273.7 95.1193 273.456 95.1747 273.229 95.2514C273.004 95.3253 272.822 95.4375 272.683 95.5881C272.547 95.7358 272.479 95.9375 272.479 96.1932C272.479 96.5426 272.608 96.8068 272.866 96.9858C273.128 97.1619 273.459 97.25 273.859 97.25Z" fill="#FF003C"/>
<path d="M323.057 163V154.273H324.114V162.062H328.17V163H323.057ZM329.67 163V156.455H330.676V163H329.67ZM330.182 155.364C329.986 155.364 329.817 155.297 329.675 155.163C329.536 155.03 329.466 154.869 329.466 154.682C329.466 154.494 329.536 154.334 329.675 154.2C329.817 154.067 329.986 154 330.182 154C330.378 154 330.545 154.067 330.685 154.2C330.827 154.334 330.898 154.494 330.898 154.682C330.898 154.869 330.827 155.03 330.685 155.163C330.545 155.297 330.378 155.364 330.182 155.364ZM333.524 159.062V163H332.518V156.455H333.49V157.477H333.575C333.728 157.145 333.961 156.878 334.274 156.676C334.586 156.472 334.99 156.369 335.484 156.369C335.927 156.369 336.315 156.46 336.647 156.642C336.98 156.821 337.238 157.094 337.423 157.46C337.608 157.824 337.7 158.284 337.7 158.841V163H336.694V158.909C336.694 158.395 336.561 157.994 336.294 157.707C336.027 157.418 335.66 157.273 335.194 157.273C334.873 157.273 334.586 157.342 334.333 157.482C334.083 157.621 333.886 157.824 333.741 158.091C333.596 158.358 333.524 158.682 333.524 159.062ZM342.282 163.136C341.651 163.136 341.107 162.997 340.65 162.719C340.195 162.438 339.844 162.045 339.597 161.543C339.353 161.037 339.231 160.449 339.231 159.778C339.231 159.108 339.353 158.517 339.597 158.006C339.844 157.491 340.188 157.091 340.629 156.804C341.072 156.514 341.589 156.369 342.18 156.369C342.521 156.369 342.857 156.426 343.19 156.54C343.522 156.653 343.825 156.838 344.097 157.094C344.37 157.347 344.587 157.682 344.749 158.099C344.911 158.517 344.992 159.031 344.992 159.642V160.068H339.947V159.199H343.969C343.969 158.83 343.896 158.5 343.748 158.21C343.603 157.92 343.396 157.692 343.126 157.524C342.859 157.357 342.543 157.273 342.18 157.273C341.779 157.273 341.433 157.372 341.14 157.571C340.85 157.767 340.627 158.023 340.471 158.338C340.315 158.653 340.237 158.991 340.237 159.352V159.932C340.237 160.426 340.322 160.845 340.492 161.189C340.665 161.53 340.906 161.79 341.212 161.969C341.519 162.145 341.876 162.233 342.282 162.233C342.546 162.233 342.785 162.196 342.998 162.122C343.214 162.045 343.4 161.932 343.556 161.781C343.712 161.628 343.833 161.437 343.918 161.21L344.89 161.483C344.788 161.812 344.616 162.102 344.374 162.352C344.133 162.599 343.835 162.793 343.479 162.932C343.124 163.068 342.725 163.136 342.282 163.136ZM352.641 163.136C352.011 163.136 351.467 162.997 351.009 162.719C350.555 162.438 350.204 162.045 349.957 161.543C349.712 161.037 349.59 160.449 349.59 159.778C349.59 159.108 349.712 158.517 349.957 158.006C350.204 157.491 350.548 157.091 350.988 156.804C351.431 156.514 351.948 156.369 352.539 156.369C352.88 156.369 353.217 156.426 353.549 156.54C353.881 156.653 354.184 156.838 354.457 157.094C354.729 157.347 354.947 157.682 355.109 158.099C355.271 158.517 355.352 159.031 355.352 159.642V160.068H350.306V159.199H354.329C354.329 158.83 354.255 158.5 354.107 158.21C353.962 157.92 353.755 157.692 353.485 157.524C353.218 157.357 352.903 157.273 352.539 157.273C352.138 157.273 351.792 157.372 351.499 157.571C351.21 157.767 350.987 158.023 350.83 158.338C350.674 158.653 350.596 158.991 350.596 159.352V159.932C350.596 160.426 350.681 160.845 350.852 161.189C351.025 161.53 351.265 161.79 351.572 161.969C351.879 162.145 352.235 162.233 352.641 162.233C352.906 162.233 353.144 162.196 353.357 162.122C353.573 162.045 353.759 161.932 353.915 161.781C354.072 161.628 354.192 161.437 354.278 161.21L355.249 161.483C355.147 161.812 354.975 162.102 354.734 162.352C354.492 162.599 354.194 162.793 353.839 162.932C353.484 163.068 353.085 163.136 352.641 163.136ZM357.887 159.062V163H356.881V156.455H357.853V157.477H357.938C358.092 157.145 358.325 156.878 358.637 156.676C358.95 156.472 359.353 156.369 359.847 156.369C360.29 156.369 360.678 156.46 361.011 156.642C361.343 156.821 361.602 157.094 361.786 157.46C361.971 157.824 362.063 158.284 362.063 158.841V163H361.058V158.909C361.058 158.395 360.924 157.994 360.657 157.707C360.39 157.418 360.023 157.273 359.558 157.273C359.237 157.273 358.95 157.342 358.697 157.482C358.447 157.621 358.249 157.824 358.104 158.091C357.96 158.358 357.887 158.682 357.887 159.062ZM366.373 163.136C365.827 163.136 365.346 162.999 364.928 162.723C364.51 162.445 364.184 162.053 363.948 161.547C363.712 161.038 363.594 160.438 363.594 159.744C363.594 159.057 363.712 158.46 363.948 157.955C364.184 157.449 364.512 157.058 364.932 156.783C365.353 156.507 365.838 156.369 366.39 156.369C366.816 156.369 367.152 156.44 367.4 156.582C367.65 156.722 367.84 156.881 367.971 157.06C368.104 157.236 368.208 157.381 368.282 157.494H368.367V154.273H369.373V163H368.401V161.994H368.282C368.208 162.114 368.103 162.264 367.966 162.446C367.83 162.625 367.635 162.786 367.382 162.928C367.13 163.067 366.793 163.136 366.373 163.136ZM366.509 162.233C366.912 162.233 367.253 162.128 367.532 161.918C367.81 161.705 368.022 161.411 368.167 161.036C368.311 160.658 368.384 160.222 368.384 159.727C368.384 159.239 368.313 158.811 368.171 158.445C368.029 158.075 367.819 157.788 367.54 157.584C367.262 157.376 366.918 157.273 366.509 157.273C366.083 157.273 365.728 157.382 365.444 157.601C365.162 157.817 364.951 158.111 364.809 158.483C364.669 158.852 364.6 159.267 364.6 159.727C364.6 160.193 364.671 160.616 364.813 160.997C364.958 161.375 365.171 161.676 365.452 161.901C365.736 162.122 366.088 162.233 366.509 162.233Z" fill="#FF003C"/>
<path d="M38.9716 147.273V156H37.9148V148.381H37.8636L35.733 149.795V148.722L37.9148 147.273H38.9716ZM41.7159 156.068C41.5057 156.068 41.3253 155.993 41.1747 155.842C41.0241 155.692 40.9489 155.511 40.9489 155.301C40.9489 155.091 41.0241 154.911 41.1747 154.76C41.3253 154.609 41.5057 154.534 41.7159 154.534C41.9261 154.534 42.1065 154.609 42.2571 154.76C42.4077 154.911 42.483 155.091 42.483 155.301C42.483 155.44 42.4474 155.568 42.3764 155.685C42.3082 155.801 42.2159 155.895 42.0994 155.966C41.9858 156.034 41.858 156.068 41.7159 156.068ZM46.8221 156.119C46.3221 156.119 45.8718 156.02 45.4712 155.821C45.0707 155.622 44.7496 155.349 44.5082 155.003C44.2667 154.656 44.1346 154.261 44.1119 153.818H45.1346C45.1744 154.213 45.3533 154.54 45.6715 154.798C45.9925 155.054 46.3761 155.182 46.8221 155.182C47.18 155.182 47.4982 155.098 47.7766 154.93C48.0579 154.763 48.2781 154.533 48.4371 154.24C48.5991 153.945 48.68 153.611 48.68 153.239C48.68 152.858 48.5962 152.518 48.4286 152.22C48.2638 151.919 48.0366 151.682 47.7468 151.509C47.457 151.335 47.1261 151.247 46.7539 151.244C46.4869 151.241 46.2127 151.283 45.9315 151.368C45.6502 151.45 45.4187 151.557 45.2369 151.688L44.2482 151.568L44.7766 147.273H49.3107V148.21H45.663L45.3562 150.784H45.4073C45.5863 150.642 45.8107 150.524 46.0806 150.43C46.3505 150.337 46.6317 150.29 46.9244 150.29C47.4585 150.29 47.9343 150.418 48.3519 150.673C48.7724 150.926 49.1019 151.273 49.3406 151.713C49.582 152.153 49.7028 152.656 49.7028 153.222C49.7028 153.778 49.5778 154.276 49.3278 154.713C49.0806 155.148 48.7397 155.491 48.305 155.744C47.8704 155.994 47.3761 156.119 46.8221 156.119ZM51.4126 158.455V149.455H52.3842V150.494H52.5036C52.5774 150.381 52.6797 150.236 52.8104 150.06C52.9439 149.881 53.1342 149.722 53.3814 149.582C53.6314 149.44 53.9695 149.369 54.3956 149.369C54.9467 149.369 55.4325 149.507 55.853 149.783C56.2734 150.058 56.6016 150.449 56.8374 150.955C57.0732 151.46 57.1911 152.057 57.1911 152.744C57.1911 153.438 57.0732 154.038 56.8374 154.547C56.6016 155.053 56.2749 155.445 55.8572 155.723C55.4396 155.999 54.9581 156.136 54.4126 156.136C53.9922 156.136 53.6555 156.067 53.4027 155.928C53.1499 155.786 52.9553 155.625 52.8189 155.446C52.6825 155.264 52.5774 155.114 52.5036 154.994H52.4183V158.455H51.4126ZM52.4013 152.727C52.4013 153.222 52.4737 153.658 52.6186 154.036C52.7635 154.411 52.9751 154.705 53.2536 154.918C53.532 155.128 53.8729 155.233 54.2763 155.233C54.6967 155.233 55.0476 155.122 55.3288 154.901C55.6129 154.676 55.826 154.375 55.968 153.997C56.1129 153.616 56.1854 153.193 56.1854 152.727C56.1854 152.267 56.1143 151.852 55.9723 151.483C55.8331 151.111 55.6214 150.817 55.3374 150.601C55.0561 150.382 54.7024 150.273 54.2763 150.273C53.8672 150.273 53.5234 150.376 53.245 150.584C52.9666 150.788 52.7564 151.075 52.6143 151.445C52.4723 151.811 52.4013 152.239 52.4013 152.727ZM59.2056 149.455L60.7738 152.131L62.342 149.455H63.5011L61.3874 152.727L63.5011 156H62.342L60.7738 153.46L59.2056 156H58.0465L60.1261 152.727L58.0465 149.455H59.2056ZM71.1577 149.455V150.307H67.7656V149.455H71.1577ZM68.7543 147.886H69.7599V154.125C69.7599 154.409 69.8011 154.622 69.8835 154.764C69.9688 154.903 70.0767 154.997 70.2074 155.045C70.3409 155.091 70.4815 155.114 70.6293 155.114C70.7401 155.114 70.831 155.108 70.902 155.097C70.973 155.082 71.0298 155.071 71.0724 155.062L71.277 155.966C71.2088 155.991 71.1136 156.017 70.9915 156.043C70.8693 156.071 70.7145 156.085 70.527 156.085C70.2429 156.085 69.9645 156.024 69.6918 155.902C69.4219 155.78 69.1974 155.594 69.0185 155.344C68.8423 155.094 68.7543 154.778 68.7543 154.398V147.886ZM73.8168 152.062V156H72.8111V147.273H73.8168V150.477H73.902C74.0554 150.139 74.2855 149.871 74.5923 149.672C74.902 149.47 75.3139 149.369 75.8281 149.369C76.2741 149.369 76.6648 149.459 77 149.638C77.3352 149.814 77.5952 150.085 77.7798 150.452C77.9673 150.815 78.0611 151.278 78.0611 151.841V156H77.0554V151.909C77.0554 151.389 76.9205 150.987 76.6506 150.703C76.3835 150.416 76.0128 150.273 75.5384 150.273C75.2088 150.273 74.9134 150.342 74.652 150.482C74.3935 150.621 74.1889 150.824 74.0384 151.091C73.8906 151.358 73.8168 151.682 73.8168 152.062ZM79.9009 156V149.455H80.9066V156H79.9009ZM80.4123 148.364C80.2163 148.364 80.0472 148.297 79.9052 148.163C79.766 148.03 79.6964 147.869 79.6964 147.682C79.6964 147.494 79.766 147.334 79.9052 147.2C80.0472 147.067 80.2163 147 80.4123 147C80.6083 147 80.7759 147.067 80.9151 147.2C81.0572 147.334 81.1282 147.494 81.1282 147.682C81.1282 147.869 81.0572 148.03 80.9151 148.163C80.7759 148.297 80.6083 148.364 80.4123 148.364ZM85.4077 156.136C84.794 156.136 84.2656 155.991 83.8224 155.702C83.3793 155.412 83.0384 155.013 82.7997 154.504C82.5611 153.996 82.4418 153.415 82.4418 152.761C82.4418 152.097 82.5639 151.51 82.8082 151.001C83.0554 150.49 83.3991 150.091 83.8395 149.804C84.2827 149.514 84.7997 149.369 85.3906 149.369C85.8509 149.369 86.2656 149.455 86.6349 149.625C87.0043 149.795 87.3068 150.034 87.5426 150.341C87.7784 150.648 87.9247 151.006 87.9815 151.415H86.9759C86.8991 151.116 86.7287 150.852 86.4645 150.622C86.2031 150.389 85.8509 150.273 85.4077 150.273C85.0156 150.273 84.6719 150.375 84.3764 150.58C84.0838 150.781 83.8551 151.067 83.6903 151.436C83.5284 151.803 83.4474 152.233 83.4474 152.727C83.4474 153.233 83.527 153.673 83.6861 154.048C83.848 154.423 84.0753 154.714 84.3679 154.922C84.6634 155.129 85.0099 155.233 85.4077 155.233C85.669 155.233 85.9062 155.188 86.1193 155.097C86.3324 155.006 86.5128 154.875 86.6605 154.705C86.8082 154.534 86.9134 154.33 86.9759 154.091H87.9815C87.9247 154.477 87.7841 154.825 87.5597 155.135C87.3381 155.442 87.044 155.686 86.6776 155.868C86.3139 156.047 85.8906 156.136 85.4077 156.136ZM90.3892 153.614L90.3722 152.369H90.5767L93.4403 149.455H94.6847L91.6335 152.54H91.5483L90.3892 153.614ZM89.4517 156V147.273H90.4574V156H89.4517ZM93.6108 156L91.054 152.761L91.7699 152.062L94.8892 156H93.6108ZM100.36 147.273V156H99.354V147.273H100.36ZM102.202 156V149.455H103.207V156H102.202ZM102.713 148.364C102.517 148.364 102.348 148.297 102.206 148.163C102.067 148.03 101.997 147.869 101.997 147.682C101.997 147.494 102.067 147.334 102.206 147.2C102.348 147.067 102.517 147 102.713 147C102.909 147 103.077 147.067 103.216 147.2C103.358 147.334 103.429 147.494 103.429 147.682C103.429 147.869 103.358 148.03 103.216 148.163C103.077 148.297 102.909 148.364 102.713 148.364ZM106.055 152.062V156H105.049V149.455H106.021V150.477H106.106C106.26 150.145 106.493 149.878 106.805 149.676C107.118 149.472 107.521 149.369 108.015 149.369C108.458 149.369 108.846 149.46 109.179 149.642C109.511 149.821 109.77 150.094 109.954 150.46C110.139 150.824 110.231 151.284 110.231 151.841V156H109.225V151.909C109.225 151.395 109.092 150.994 108.825 150.707C108.558 150.418 108.191 150.273 107.725 150.273C107.404 150.273 107.118 150.342 106.865 150.482C106.615 150.621 106.417 150.824 106.272 151.091C106.127 151.358 106.055 151.682 106.055 152.062ZM114.813 156.136C114.183 156.136 113.638 155.997 113.181 155.719C112.727 155.438 112.376 155.045 112.129 154.543C111.884 154.037 111.762 153.449 111.762 152.778C111.762 152.108 111.884 151.517 112.129 151.006C112.376 150.491 112.719 150.091 113.16 149.804C113.603 149.514 114.12 149.369 114.711 149.369C115.052 149.369 115.388 149.426 115.721 149.54C116.053 149.653 116.356 149.838 116.629 150.094C116.901 150.347 117.119 150.682 117.281 151.099C117.442 151.517 117.523 152.031 117.523 152.642V153.068H112.478V152.199H116.501C116.501 151.83 116.427 151.5 116.279 151.21C116.134 150.92 115.927 150.692 115.657 150.524C115.39 150.357 115.075 150.273 114.711 150.273C114.31 150.273 113.964 150.372 113.671 150.571C113.381 150.767 113.158 151.023 113.002 151.338C112.846 151.653 112.768 151.991 112.768 152.352V152.932C112.768 153.426 112.853 153.845 113.023 154.189C113.197 154.53 113.437 154.79 113.744 154.969C114.05 155.145 114.407 155.233 114.813 155.233C115.077 155.233 115.316 155.196 115.529 155.122C115.745 155.045 115.931 154.932 116.087 154.781C116.244 154.628 116.364 154.437 116.45 154.21L117.421 154.483C117.319 154.812 117.147 155.102 116.906 155.352C116.664 155.599 116.366 155.793 116.011 155.932C115.656 156.068 115.256 156.136 114.813 156.136ZM35.9034 171V170.233L38.7841 167.08C39.1222 166.71 39.4006 166.389 39.6193 166.116C39.8381 165.841 40 165.582 40.1051 165.341C40.2131 165.097 40.267 164.841 40.267 164.574C40.267 164.267 40.1932 164.001 40.0455 163.777C39.9006 163.553 39.7017 163.379 39.4489 163.257C39.196 163.135 38.9119 163.074 38.5966 163.074C38.2614 163.074 37.9688 163.143 37.7188 163.283C37.4716 163.419 37.2798 163.611 37.1435 163.858C37.0099 164.105 36.9432 164.395 36.9432 164.727H35.9375C35.9375 164.216 36.0554 163.767 36.2912 163.381C36.527 162.994 36.848 162.693 37.2543 162.477C37.6634 162.261 38.1222 162.153 38.6307 162.153C39.142 162.153 39.5952 162.261 39.9901 162.477C40.3849 162.693 40.6946 162.984 40.919 163.351C41.1435 163.717 41.2557 164.125 41.2557 164.574C41.2557 164.895 41.1974 165.209 41.081 165.516C40.9673 165.82 40.7685 166.159 40.4844 166.534C40.2031 166.906 39.8125 167.361 39.3125 167.898L37.3523 169.994V170.062H41.4091V171H35.9034ZM49.4077 164.455V165.307H46.0156V164.455H49.4077ZM47.0043 162.886H48.0099V169.125C48.0099 169.409 48.0511 169.622 48.1335 169.764C48.2188 169.903 48.3267 169.997 48.4574 170.045C48.5909 170.091 48.7315 170.114 48.8793 170.114C48.9901 170.114 49.081 170.108 49.152 170.097C49.223 170.082 49.2798 170.071 49.3224 170.062L49.527 170.966C49.4588 170.991 49.3636 171.017 49.2415 171.043C49.1193 171.071 48.9645 171.085 48.777 171.085C48.4929 171.085 48.2145 171.024 47.9418 170.902C47.6719 170.78 47.4474 170.594 47.2685 170.344C47.0923 170.094 47.0043 169.778 47.0043 169.398V162.886ZM50.9205 171V164.455H51.892V165.443H51.9602C52.0795 165.119 52.2955 164.857 52.608 164.655C52.9205 164.453 53.2727 164.352 53.6648 164.352C53.7386 164.352 53.831 164.354 53.9418 164.357C54.0526 164.359 54.1364 164.364 54.1932 164.369V165.392C54.1591 165.384 54.081 165.371 53.9588 165.354C53.8395 165.334 53.7131 165.324 53.5795 165.324C53.2614 165.324 52.9773 165.391 52.7273 165.524C52.4801 165.655 52.2841 165.837 52.1392 166.07C51.9972 166.3 51.9261 166.562 51.9261 166.858V171H50.9205ZM55.3853 171V164.455H56.391V171H55.3853ZM55.8967 163.364C55.7006 163.364 55.5316 163.297 55.3896 163.163C55.2504 163.03 55.1808 162.869 55.1808 162.682C55.1808 162.494 55.2504 162.334 55.3896 162.2C55.5316 162.067 55.7006 162 55.8967 162C56.0927 162 56.2603 162.067 56.3995 162.2C56.5415 162.334 56.6126 162.494 56.6126 162.682C56.6126 162.869 56.5415 163.03 56.3995 163.163C56.2603 163.297 56.0927 163.364 55.8967 163.364ZM60.1591 171.153C59.7443 171.153 59.3679 171.075 59.0298 170.919C58.6918 170.76 58.4233 170.531 58.2244 170.233C58.0256 169.932 57.9261 169.568 57.9261 169.142C57.9261 168.767 58 168.463 58.1477 168.23C58.2955 167.994 58.4929 167.81 58.7401 167.676C58.9872 167.543 59.2599 167.443 59.5582 167.378C59.8594 167.31 60.1619 167.256 60.4659 167.216C60.8636 167.165 61.1861 167.126 61.4332 167.101C61.6832 167.072 61.8651 167.026 61.9787 166.96C62.0952 166.895 62.1534 166.781 62.1534 166.619V166.585C62.1534 166.165 62.0384 165.838 61.8082 165.605C61.581 165.372 61.2358 165.256 60.7727 165.256C60.2926 165.256 59.9162 165.361 59.6435 165.571C59.3707 165.781 59.179 166.006 59.0682 166.244L58.1136 165.903C58.2841 165.506 58.5114 165.196 58.7955 164.974C59.0824 164.75 59.3949 164.594 59.733 164.506C60.0739 164.415 60.4091 164.369 60.7386 164.369C60.9489 164.369 61.1903 164.395 61.4631 164.446C61.7386 164.494 62.0043 164.595 62.2599 164.749C62.5185 164.902 62.733 165.134 62.9034 165.443C63.0739 165.753 63.1591 166.168 63.1591 166.688V171H62.1534V170.114H62.1023C62.0341 170.256 61.9205 170.408 61.7614 170.57C61.6023 170.732 61.3906 170.869 61.1264 170.983C60.8622 171.097 60.5398 171.153 60.1591 171.153ZM60.3125 170.25C60.7102 170.25 61.0455 170.172 61.3182 170.016C61.5938 169.859 61.8011 169.658 61.9403 169.411C62.0824 169.163 62.1534 168.903 62.1534 168.631V167.71C62.1108 167.761 62.017 167.808 61.8722 167.851C61.7301 167.891 61.5653 167.926 61.3778 167.957C61.1932 167.986 61.0128 168.011 60.8366 168.034C60.6634 168.054 60.5227 168.071 60.4148 168.085C60.1534 168.119 59.9091 168.175 59.6818 168.251C59.4574 168.325 59.2756 168.437 59.1364 168.588C59 168.736 58.9318 168.937 58.9318 169.193C58.9318 169.543 59.0611 169.807 59.3196 169.986C59.581 170.162 59.9119 170.25 60.3125 170.25ZM66.0004 167.062V171H64.9947V164.455H65.9663V165.477H66.0515C66.2049 165.145 66.4379 164.878 66.7504 164.676C67.0629 164.472 67.4663 164.369 67.9606 164.369C68.4038 164.369 68.7915 164.46 69.1239 164.642C69.4563 164.821 69.7148 165.094 69.8995 165.46C70.0842 165.824 70.1765 166.284 70.1765 166.841V171H69.1708V166.909C69.1708 166.395 69.0373 165.994 68.7702 165.707C68.5032 165.418 68.1367 165.273 67.6708 165.273C67.3498 165.273 67.0629 165.342 66.81 165.482C66.56 165.621 66.3626 165.824 66.2177 166.091C66.0728 166.358 66.0004 166.682 66.0004 167.062ZM74.6562 173.591C74.1705 173.591 73.7528 173.528 73.4034 173.403C73.054 173.281 72.7628 173.119 72.5298 172.918C72.2997 172.719 72.1165 172.506 71.9801 172.278L72.7812 171.716C72.8722 171.835 72.9872 171.972 73.1264 172.125C73.2656 172.281 73.456 172.416 73.6974 172.53C73.9418 172.646 74.2614 172.705 74.6562 172.705C75.1847 172.705 75.6207 172.577 75.9645 172.321C76.3082 172.065 76.4801 171.665 76.4801 171.119V169.79H76.3949C76.321 169.909 76.2159 170.057 76.0795 170.233C75.946 170.406 75.7528 170.561 75.5 170.697C75.25 170.831 74.9119 170.898 74.4858 170.898C73.9574 170.898 73.483 170.773 73.0625 170.523C72.6449 170.273 72.3139 169.909 72.0696 169.432C71.8281 168.955 71.7074 168.375 71.7074 167.693C71.7074 167.023 71.8253 166.439 72.0611 165.942C72.2969 165.442 72.625 165.055 73.0455 164.783C73.4659 164.507 73.9517 164.369 74.5028 164.369C74.929 164.369 75.267 164.44 75.517 164.582C75.7699 164.722 75.9631 164.881 76.0966 165.06C76.233 165.236 76.3381 165.381 76.4119 165.494H76.5142V164.455H77.4858V171.188C77.4858 171.75 77.358 172.207 77.1023 172.56C76.8494 172.915 76.5085 173.175 76.0795 173.339C75.6534 173.507 75.179 173.591 74.6562 173.591ZM74.6222 169.994C75.0256 169.994 75.3665 169.902 75.6449 169.717C75.9233 169.533 76.1349 169.267 76.2798 168.92C76.4247 168.574 76.4972 168.159 76.4972 167.676C76.4972 167.205 76.4261 166.788 76.2841 166.428C76.142 166.067 75.9318 165.784 75.6534 165.58C75.375 165.375 75.0313 165.273 74.6222 165.273C74.196 165.273 73.8409 165.381 73.5568 165.597C73.2756 165.812 73.0639 166.102 72.9219 166.466C72.7827 166.83 72.7131 167.233 72.7131 167.676C72.7131 168.131 72.7841 168.533 72.9261 168.882C73.071 169.229 73.2841 169.501 73.5653 169.7C73.8494 169.896 74.2017 169.994 74.6222 169.994ZM80.3324 162.273V171H79.3267V162.273H80.3324ZM84.9187 171.136C84.288 171.136 83.744 170.997 83.2866 170.719C82.832 170.438 82.4812 170.045 82.234 169.543C81.9897 169.037 81.8675 168.449 81.8675 167.778C81.8675 167.108 81.9897 166.517 82.234 166.006C82.4812 165.491 82.8249 165.091 83.2653 164.804C83.7085 164.514 84.2255 164.369 84.8164 164.369C85.1573 164.369 85.494 164.426 85.8263 164.54C86.1587 164.653 86.4613 164.838 86.734 165.094C87.0067 165.347 87.2241 165.682 87.386 166.099C87.5479 166.517 87.6289 167.031 87.6289 167.642V168.068H82.5835V167.199H86.6062C86.6062 166.83 86.5323 166.5 86.3846 166.21C86.2397 165.92 86.0323 165.692 85.7624 165.524C85.4954 165.357 85.18 165.273 84.8164 165.273C84.4158 165.273 84.0692 165.372 83.7766 165.571C83.4869 165.767 83.2638 166.023 83.1076 166.338C82.9513 166.653 82.8732 166.991 82.8732 167.352V167.932C82.8732 168.426 82.9585 168.845 83.1289 169.189C83.3022 169.53 83.5423 169.79 83.8491 169.969C84.1559 170.145 84.5124 170.233 84.9187 170.233C85.1829 170.233 85.4215 170.196 85.6346 170.122C85.8505 170.045 86.0366 169.932 86.1928 169.781C86.3491 169.628 86.4698 169.437 86.555 169.21L87.5266 169.483C87.4244 169.812 87.2525 170.102 87.011 170.352C86.7695 170.599 86.4712 170.793 86.1161 170.932C85.761 171.068 85.3619 171.136 84.9187 171.136ZM93.7951 165.92L92.8917 166.176C92.8349 166.026 92.7511 165.879 92.6403 165.737C92.5323 165.592 92.3846 165.473 92.1971 165.379C92.0096 165.286 91.7695 165.239 91.4769 165.239C91.0763 165.239 90.7425 165.331 90.4755 165.516C90.2113 165.697 90.0792 165.929 90.0792 166.21C90.0792 166.46 90.1701 166.658 90.3519 166.803C90.5337 166.947 90.8178 167.068 91.2042 167.165L92.1758 167.403C92.761 167.545 93.1971 167.763 93.484 168.055C93.771 168.345 93.9144 168.719 93.9144 169.176C93.9144 169.551 93.8065 169.886 93.5906 170.182C93.3775 170.477 93.0792 170.71 92.6957 170.881C92.3121 171.051 91.8661 171.136 91.3576 171.136C90.69 171.136 90.1374 170.991 89.6999 170.702C89.2624 170.412 88.9854 169.989 88.869 169.432L89.8235 169.193C89.9144 169.545 90.0863 169.81 90.3391 169.986C90.5948 170.162 90.9286 170.25 91.3406 170.25C91.8093 170.25 92.1815 170.151 92.457 169.952C92.7354 169.75 92.8746 169.509 92.8746 169.227C92.8746 169 92.7951 168.81 92.636 168.656C92.4769 168.5 92.2326 168.384 91.9031 168.307L90.8121 168.051C90.2127 167.909 89.7724 167.689 89.4911 167.391C89.2127 167.089 89.0735 166.713 89.0735 166.261C89.0735 165.892 89.1772 165.565 89.3846 165.281C89.5948 164.997 89.8803 164.774 90.2411 164.612C90.6048 164.45 91.0167 164.369 91.4769 164.369C92.1246 164.369 92.6332 164.511 93.0025 164.795C93.3746 165.08 93.6388 165.455 93.7951 165.92Z" fill="black"/>
<path d="M177.972 147.273V156H176.915V148.381H176.864L174.733 149.795V148.722L176.915 147.273H177.972ZM180.716 156.068C180.506 156.068 180.325 155.993 180.175 155.842C180.024 155.692 179.949 155.511 179.949 155.301C179.949 155.091 180.024 154.911 180.175 154.76C180.325 154.609 180.506 154.534 180.716 154.534C180.926 154.534 181.107 154.609 181.257 154.76C181.408 154.911 181.483 155.091 181.483 155.301C181.483 155.44 181.447 155.568 181.376 155.685C181.308 155.801 181.216 155.895 181.099 155.966C180.986 156.034 180.858 156.068 180.716 156.068ZM183.271 156V155.233L186.151 152.08C186.489 151.71 186.768 151.389 186.987 151.116C187.205 150.841 187.367 150.582 187.472 150.341C187.58 150.097 187.634 149.841 187.634 149.574C187.634 149.267 187.56 149.001 187.413 148.777C187.268 148.553 187.069 148.379 186.816 148.257C186.563 148.135 186.279 148.074 185.964 148.074C185.629 148.074 185.336 148.143 185.086 148.283C184.839 148.419 184.647 148.611 184.511 148.858C184.377 149.105 184.31 149.395 184.31 149.727H183.305C183.305 149.216 183.423 148.767 183.658 148.381C183.894 147.994 184.215 147.693 184.621 147.477C185.031 147.261 185.489 147.153 185.998 147.153C186.509 147.153 186.962 147.261 187.357 147.477C187.752 147.693 188.062 147.984 188.286 148.351C188.511 148.717 188.623 149.125 188.623 149.574C188.623 149.895 188.565 150.209 188.448 150.516C188.335 150.82 188.136 151.159 187.852 151.534C187.57 151.906 187.18 152.361 186.68 152.898L184.719 154.994V155.062H188.776V156H183.271ZM193.263 156.119C192.763 156.119 192.313 156.02 191.913 155.821C191.512 155.622 191.191 155.349 190.95 155.003C190.708 154.656 190.576 154.261 190.553 153.818H191.576C191.616 154.213 191.795 154.54 192.113 154.798C192.434 155.054 192.817 155.182 193.263 155.182C193.621 155.182 193.94 155.098 194.218 154.93C194.499 154.763 194.719 154.533 194.879 154.24C195.04 153.945 195.121 153.611 195.121 153.239C195.121 152.858 195.038 152.518 194.87 152.22C194.705 151.919 194.478 151.682 194.188 151.509C193.898 151.335 193.567 151.247 193.195 151.244C192.928 151.241 192.654 151.283 192.373 151.368C192.092 151.45 191.86 151.557 191.678 151.688L190.69 151.568L191.218 147.273H195.752V148.21H192.104L191.798 150.784H191.849C192.028 150.642 192.252 150.524 192.522 150.43C192.792 150.337 193.073 150.29 193.366 150.29C193.9 150.29 194.376 150.418 194.793 150.673C195.214 150.926 195.543 151.273 195.782 151.713C196.023 152.153 196.144 152.656 196.144 153.222C196.144 153.778 196.019 154.276 195.769 154.713C195.522 155.148 195.181 155.491 194.746 155.744C194.312 155.994 193.817 156.119 193.263 156.119ZM197.854 158.455V149.455H198.826V150.494H198.945C199.019 150.381 199.121 150.236 199.252 150.06C199.385 149.881 199.576 149.722 199.823 149.582C200.073 149.44 200.411 149.369 200.837 149.369C201.388 149.369 201.874 149.507 202.294 149.783C202.715 150.058 203.043 150.449 203.279 150.955C203.515 151.46 203.632 152.057 203.632 152.744C203.632 153.438 203.515 154.038 203.279 154.547C203.043 155.053 202.716 155.445 202.299 155.723C201.881 155.999 201.4 156.136 200.854 156.136C200.434 156.136 200.097 156.067 199.844 155.928C199.591 155.786 199.397 155.625 199.26 155.446C199.124 155.264 199.019 155.114 198.945 154.994H198.86V158.455H197.854ZM198.843 152.727C198.843 153.222 198.915 153.658 199.06 154.036C199.205 154.411 199.417 154.705 199.695 154.918C199.973 155.128 200.314 155.233 200.718 155.233C201.138 155.233 201.489 155.122 201.77 154.901C202.054 154.676 202.267 154.375 202.409 153.997C202.554 153.616 202.627 153.193 202.627 152.727C202.627 152.267 202.556 151.852 202.414 151.483C202.275 151.111 202.063 150.817 201.779 150.601C201.498 150.382 201.144 150.273 200.718 150.273C200.309 150.273 199.965 150.376 199.686 150.584C199.408 150.788 199.198 151.075 199.056 151.445C198.914 151.811 198.843 152.239 198.843 152.727ZM205.647 149.455L207.215 152.131L208.783 149.455H209.942L207.829 152.727L209.942 156H208.783L207.215 153.46L205.647 156H204.488L206.567 152.727L204.488 149.455H205.647ZM217.599 149.455V150.307H214.207V149.455H217.599ZM215.196 147.886H216.201V154.125C216.201 154.409 216.243 154.622 216.325 154.764C216.41 154.903 216.518 154.997 216.649 155.045C216.782 155.091 216.923 155.114 217.071 155.114C217.181 155.114 217.272 155.108 217.343 155.097C217.414 155.082 217.471 155.071 217.514 155.062L217.718 155.966C217.65 155.991 217.555 156.017 217.433 156.043C217.311 156.071 217.156 156.085 216.968 156.085C216.684 156.085 216.406 156.024 216.133 155.902C215.863 155.78 215.639 155.594 215.46 155.344C215.284 155.094 215.196 154.778 215.196 154.398V147.886ZM220.258 152.062V156H219.252V147.273H220.258V150.477H220.343C220.497 150.139 220.727 149.871 221.034 149.672C221.343 149.47 221.755 149.369 222.27 149.369C222.716 149.369 223.106 149.459 223.441 149.638C223.777 149.814 224.037 150.085 224.221 150.452C224.409 150.815 224.502 151.278 224.502 151.841V156H223.497V151.909C223.497 151.389 223.362 150.987 223.092 150.703C222.825 150.416 222.454 150.273 221.98 150.273C221.65 150.273 221.355 150.342 221.093 150.482C220.835 150.621 220.63 150.824 220.48 151.091C220.332 151.358 220.258 151.682 220.258 152.062ZM226.342 156V149.455H227.348V156H226.342ZM226.854 148.364C226.658 148.364 226.489 148.297 226.347 148.163C226.207 148.03 226.138 147.869 226.138 147.682C226.138 147.494 226.207 147.334 226.347 147.2C226.489 147.067 226.658 147 226.854 147C227.05 147 227.217 147.067 227.357 147.2C227.499 147.334 227.57 147.494 227.57 147.682C227.57 147.869 227.499 148.03 227.357 148.163C227.217 148.297 227.05 148.364 226.854 148.364ZM231.849 156.136C231.235 156.136 230.707 155.991 230.264 155.702C229.821 155.412 229.48 155.013 229.241 154.504C229.002 153.996 228.883 153.415 228.883 152.761C228.883 152.097 229.005 151.51 229.25 151.001C229.497 150.49 229.841 150.091 230.281 149.804C230.724 149.514 231.241 149.369 231.832 149.369C232.292 149.369 232.707 149.455 233.076 149.625C233.446 149.795 233.748 150.034 233.984 150.341C234.22 150.648 234.366 151.006 234.423 151.415H233.417C233.341 151.116 233.17 150.852 232.906 150.622C232.645 150.389 232.292 150.273 231.849 150.273C231.457 150.273 231.113 150.375 230.818 150.58C230.525 150.781 230.297 151.067 230.132 151.436C229.97 151.803 229.889 152.233 229.889 152.727C229.889 153.233 229.968 153.673 230.127 154.048C230.289 154.423 230.517 154.714 230.809 154.922C231.105 155.129 231.451 155.233 231.849 155.233C232.11 155.233 232.348 155.188 232.561 155.097C232.774 155.006 232.954 154.875 233.102 154.705C233.25 154.534 233.355 154.33 233.417 154.091H234.423C234.366 154.477 234.225 154.825 234.001 155.135C233.779 155.442 233.485 155.686 233.119 155.868C232.755 156.047 232.332 156.136 231.849 156.136ZM236.831 153.614L236.814 152.369H237.018L239.882 149.455H241.126L238.075 152.54H237.99L236.831 153.614ZM235.893 156V147.273H236.899V156H235.893ZM240.052 156L237.495 152.761L238.211 152.062L241.331 156H240.052ZM246.801 147.273V156H245.795V147.273H246.801ZM248.643 156V149.455H249.649V156H248.643ZM249.154 148.364C248.958 148.364 248.789 148.297 248.647 148.163C248.508 148.03 248.439 147.869 248.439 147.682C248.439 147.494 248.508 147.334 248.647 147.2C248.789 147.067 248.958 147 249.154 147C249.35 147 249.518 147.067 249.657 147.2C249.799 147.334 249.87 147.494 249.87 147.682C249.87 147.869 249.799 148.03 249.657 148.163C249.518 148.297 249.35 148.364 249.154 148.364ZM252.496 152.062V156H251.491V149.455H252.462V150.477H252.548C252.701 150.145 252.934 149.878 253.246 149.676C253.559 149.472 253.962 149.369 254.457 149.369C254.9 149.369 255.288 149.46 255.62 149.642C255.952 149.821 256.211 150.094 256.396 150.46C256.58 150.824 256.673 151.284 256.673 151.841V156H255.667V151.909C255.667 151.395 255.533 150.994 255.266 150.707C254.999 150.418 254.633 150.273 254.167 150.273C253.846 150.273 253.559 150.342 253.306 150.482C253.056 150.621 252.859 150.824 252.714 151.091C252.569 151.358 252.496 151.682 252.496 152.062ZM261.255 156.136C260.624 156.136 260.08 155.997 259.623 155.719C259.168 155.438 258.817 155.045 258.57 154.543C258.326 154.037 258.203 153.449 258.203 152.778C258.203 152.108 258.326 151.517 258.57 151.006C258.817 150.491 259.161 150.091 259.601 149.804C260.044 149.514 260.561 149.369 261.152 149.369C261.493 149.369 261.83 149.426 262.162 149.54C262.495 149.653 262.797 149.838 263.07 150.094C263.343 150.347 263.56 150.682 263.722 151.099C263.884 151.517 263.965 152.031 263.965 152.642V153.068H258.919V152.199H262.942C262.942 151.83 262.868 151.5 262.721 151.21C262.576 150.92 262.368 150.692 262.098 150.524C261.831 150.357 261.516 150.273 261.152 150.273C260.752 150.273 260.405 150.372 260.113 150.571C259.823 150.767 259.6 151.023 259.444 151.338C259.287 151.653 259.209 151.991 259.209 152.352V152.932C259.209 153.426 259.294 153.845 259.465 154.189C259.638 154.53 259.878 154.79 260.185 154.969C260.492 155.145 260.848 155.233 261.255 155.233C261.519 155.233 261.757 155.196 261.971 155.122C262.186 155.045 262.373 154.932 262.529 154.781C262.685 154.628 262.806 154.437 262.891 154.21L263.863 154.483C263.76 154.812 263.588 155.102 263.347 155.352C263.105 155.599 262.807 155.793 262.452 155.932C262.097 156.068 261.698 156.136 261.255 156.136ZM174.903 171V170.233L177.784 167.08C178.122 166.71 178.401 166.389 178.619 166.116C178.838 165.841 179 165.582 179.105 165.341C179.213 165.097 179.267 164.841 179.267 164.574C179.267 164.267 179.193 164.001 179.045 163.777C178.901 163.553 178.702 163.379 178.449 163.257C178.196 163.135 177.912 163.074 177.597 163.074C177.261 163.074 176.969 163.143 176.719 163.283C176.472 163.419 176.28 163.611 176.143 163.858C176.01 164.105 175.943 164.395 175.943 164.727H174.938C174.938 164.216 175.055 163.767 175.291 163.381C175.527 162.994 175.848 162.693 176.254 162.477C176.663 162.261 177.122 162.153 177.631 162.153C178.142 162.153 178.595 162.261 178.99 162.477C179.385 162.693 179.695 162.984 179.919 163.351C180.143 163.717 180.256 164.125 180.256 164.574C180.256 164.895 180.197 165.209 180.081 165.516C179.967 165.82 179.768 166.159 179.484 166.534C179.203 166.906 178.812 167.361 178.312 167.898L176.352 169.994V170.062H180.409V171H174.903ZM188.408 164.455V165.307H185.016V164.455H188.408ZM186.004 162.886H187.01V169.125C187.01 169.409 187.051 169.622 187.134 169.764C187.219 169.903 187.327 169.997 187.457 170.045C187.591 170.091 187.732 170.114 187.879 170.114C187.99 170.114 188.081 170.108 188.152 170.097C188.223 170.082 188.28 170.071 188.322 170.062L188.527 170.966C188.459 170.991 188.364 171.017 188.241 171.043C188.119 171.071 187.964 171.085 187.777 171.085C187.493 171.085 187.214 171.024 186.942 170.902C186.672 170.78 186.447 170.594 186.268 170.344C186.092 170.094 186.004 169.778 186.004 169.398V162.886ZM189.92 171V164.455H190.892V165.443H190.96C191.08 165.119 191.295 164.857 191.608 164.655C191.92 164.453 192.273 164.352 192.665 164.352C192.739 164.352 192.831 164.354 192.942 164.357C193.053 164.359 193.136 164.364 193.193 164.369V165.392C193.159 165.384 193.081 165.371 192.959 165.354C192.839 165.334 192.713 165.324 192.58 165.324C192.261 165.324 191.977 165.391 191.727 165.524C191.48 165.655 191.284 165.837 191.139 166.07C190.997 166.3 190.926 166.562 190.926 166.858V171H189.92ZM194.385 171V164.455H195.391V171H194.385ZM194.897 163.364C194.701 163.364 194.532 163.297 194.39 163.163C194.25 163.03 194.181 162.869 194.181 162.682C194.181 162.494 194.25 162.334 194.39 162.2C194.532 162.067 194.701 162 194.897 162C195.093 162 195.26 162.067 195.4 162.2C195.542 162.334 195.613 162.494 195.613 162.682C195.613 162.869 195.542 163.03 195.4 163.163C195.26 163.297 195.093 163.364 194.897 163.364ZM199.159 171.153C198.744 171.153 198.368 171.075 198.03 170.919C197.692 170.76 197.423 170.531 197.224 170.233C197.026 169.932 196.926 169.568 196.926 169.142C196.926 168.767 197 168.463 197.148 168.23C197.295 167.994 197.493 167.81 197.74 167.676C197.987 167.543 198.26 167.443 198.558 167.378C198.859 167.31 199.162 167.256 199.466 167.216C199.864 167.165 200.186 167.126 200.433 167.101C200.683 167.072 200.865 167.026 200.979 166.96C201.095 166.895 201.153 166.781 201.153 166.619V166.585C201.153 166.165 201.038 165.838 200.808 165.605C200.581 165.372 200.236 165.256 199.773 165.256C199.293 165.256 198.916 165.361 198.643 165.571C198.371 165.781 198.179 166.006 198.068 166.244L197.114 165.903C197.284 165.506 197.511 165.196 197.795 164.974C198.082 164.75 198.395 164.594 198.733 164.506C199.074 164.415 199.409 164.369 199.739 164.369C199.949 164.369 200.19 164.395 200.463 164.446C200.739 164.494 201.004 164.595 201.26 164.749C201.518 164.902 201.733 165.134 201.903 165.443C202.074 165.753 202.159 166.168 202.159 166.688V171H201.153V170.114H201.102C201.034 170.256 200.92 170.408 200.761 170.57C200.602 170.732 200.391 170.869 200.126 170.983C199.862 171.097 199.54 171.153 199.159 171.153ZM199.312 170.25C199.71 170.25 200.045 170.172 200.318 170.016C200.594 169.859 200.801 169.658 200.94 169.411C201.082 169.163 201.153 168.903 201.153 168.631V167.71C201.111 167.761 201.017 167.808 200.872 167.851C200.73 167.891 200.565 167.926 200.378 167.957C200.193 167.986 200.013 168.011 199.837 168.034C199.663 168.054 199.523 168.071 199.415 168.085C199.153 168.119 198.909 168.175 198.682 168.251C198.457 168.325 198.276 168.437 198.136 168.588C198 168.736 197.932 168.937 197.932 169.193C197.932 169.543 198.061 169.807 198.32 169.986C198.581 170.162 198.912 170.25 199.312 170.25ZM205 167.062V171H203.995V164.455H204.966V165.477H205.051C205.205 165.145 205.438 164.878 205.75 164.676C206.063 164.472 206.466 164.369 206.961 164.369C207.404 164.369 207.792 164.46 208.124 164.642C208.456 164.821 208.715 165.094 208.9 165.46C209.084 165.824 209.176 166.284 209.176 166.841V171H208.171V166.909C208.171 166.395 208.037 165.994 207.77 165.707C207.503 165.418 207.137 165.273 206.671 165.273C206.35 165.273 206.063 165.342 205.81 165.482C205.56 165.621 205.363 165.824 205.218 166.091C205.073 166.358 205 166.682 205 167.062ZM213.656 173.591C213.17 173.591 212.753 173.528 212.403 173.403C212.054 173.281 211.763 173.119 211.53 172.918C211.3 172.719 211.116 172.506 210.98 172.278L211.781 171.716C211.872 171.835 211.987 171.972 212.126 172.125C212.266 172.281 212.456 172.416 212.697 172.53C212.942 172.646 213.261 172.705 213.656 172.705C214.185 172.705 214.621 172.577 214.964 172.321C215.308 172.065 215.48 171.665 215.48 171.119V169.79H215.395C215.321 169.909 215.216 170.057 215.08 170.233C214.946 170.406 214.753 170.561 214.5 170.697C214.25 170.831 213.912 170.898 213.486 170.898C212.957 170.898 212.483 170.773 212.062 170.523C211.645 170.273 211.314 169.909 211.07 169.432C210.828 168.955 210.707 168.375 210.707 167.693C210.707 167.023 210.825 166.439 211.061 165.942C211.297 165.442 211.625 165.055 212.045 164.783C212.466 164.507 212.952 164.369 213.503 164.369C213.929 164.369 214.267 164.44 214.517 164.582C214.77 164.722 214.963 164.881 215.097 165.06C215.233 165.236 215.338 165.381 215.412 165.494H215.514V164.455H216.486V171.188C216.486 171.75 216.358 172.207 216.102 172.56C215.849 172.915 215.509 173.175 215.08 173.339C214.653 173.507 214.179 173.591 213.656 173.591ZM213.622 169.994C214.026 169.994 214.366 169.902 214.645 169.717C214.923 169.533 215.135 169.267 215.28 168.92C215.425 168.574 215.497 168.159 215.497 167.676C215.497 167.205 215.426 166.788 215.284 166.428C215.142 166.067 214.932 165.784 214.653 165.58C214.375 165.375 214.031 165.273 213.622 165.273C213.196 165.273 212.841 165.381 212.557 165.597C212.276 165.812 212.064 166.102 211.922 166.466C211.783 166.83 211.713 167.233 211.713 167.676C211.713 168.131 211.784 168.533 211.926 168.882C212.071 169.229 212.284 169.501 212.565 169.7C212.849 169.896 213.202 169.994 213.622 169.994ZM219.332 162.273V171H218.327V162.273H219.332ZM223.919 171.136C223.288 171.136 222.744 170.997 222.287 170.719C221.832 170.438 221.481 170.045 221.234 169.543C220.99 169.037 220.868 168.449 220.868 167.778C220.868 167.108 220.99 166.517 221.234 166.006C221.481 165.491 221.825 165.091 222.265 164.804C222.708 164.514 223.225 164.369 223.816 164.369C224.157 164.369 224.494 164.426 224.826 164.54C225.159 164.653 225.461 164.838 225.734 165.094C226.007 165.347 226.224 165.682 226.386 166.099C226.548 166.517 226.629 167.031 226.629 167.642V168.068H221.583V167.199H225.606C225.606 166.83 225.532 166.5 225.385 166.21C225.24 165.92 225.032 165.692 224.762 165.524C224.495 165.357 224.18 165.273 223.816 165.273C223.416 165.273 223.069 165.372 222.777 165.571C222.487 165.767 222.264 166.023 222.108 166.338C221.951 166.653 221.873 166.991 221.873 167.352V167.932C221.873 168.426 221.958 168.845 222.129 169.189C222.302 169.53 222.542 169.79 222.849 169.969C223.156 170.145 223.512 170.233 223.919 170.233C224.183 170.233 224.422 170.196 224.635 170.122C224.85 170.045 225.037 169.932 225.193 169.781C225.349 169.628 225.47 169.437 225.555 169.21L226.527 169.483C226.424 169.812 226.252 170.102 226.011 170.352C225.77 170.599 225.471 170.793 225.116 170.932C224.761 171.068 224.362 171.136 223.919 171.136ZM232.795 165.92L231.892 166.176C231.835 166.026 231.751 165.879 231.64 165.737C231.532 165.592 231.385 165.473 231.197 165.379C231.01 165.286 230.77 165.239 230.477 165.239C230.076 165.239 229.743 165.331 229.475 165.516C229.211 165.697 229.079 165.929 229.079 166.21C229.079 166.46 229.17 166.658 229.352 166.803C229.534 166.947 229.818 167.068 230.204 167.165L231.176 167.403C231.761 167.545 232.197 167.763 232.484 168.055C232.771 168.345 232.914 168.719 232.914 169.176C232.914 169.551 232.806 169.886 232.591 170.182C232.377 170.477 232.079 170.71 231.696 170.881C231.312 171.051 230.866 171.136 230.358 171.136C229.69 171.136 229.137 170.991 228.7 170.702C228.262 170.412 227.985 169.989 227.869 169.432L228.824 169.193C228.914 169.545 229.086 169.81 229.339 169.986C229.595 170.162 229.929 170.25 230.341 170.25C230.809 170.25 231.181 170.151 231.457 169.952C231.735 169.75 231.875 169.509 231.875 169.227C231.875 169 231.795 168.81 231.636 168.656C231.477 168.5 231.233 168.384 230.903 168.307L229.812 168.051C229.213 167.909 228.772 167.689 228.491 167.391C228.213 167.089 228.074 166.713 228.074 166.261C228.074 165.892 228.177 165.565 228.385 165.281C228.595 164.997 228.88 164.774 229.241 164.612C229.605 164.45 230.017 164.369 230.477 164.369C231.125 164.369 231.633 164.511 232.002 164.795C232.375 165.08 232.639 165.455 232.795 165.92Z" fill="black"/>
<rect x="26" y="60.1428" width="9.14286" height="9.14286" fill="white" stroke="black"/>
<rect x="35.1428" y="60.1428" width="9.14286" height="9.14286" fill="#B7B7B7" stroke="black"/>
<rect x="62.5713" y="60.1428" width="9.14286" height="9.14286" fill="#666565" stroke="black"/>
<rect x="44.2859" y="60.1428" width="9.14286" height="9.14286" fill="#666565" stroke="black"/>
<rect x="71.7141" y="60.1428" width="9.14286" height="9.14286" fill="#B7B7B7" stroke="black"/>
<rect x="53.4287" y="60.1428" width="9.14286" height="9.14286" fill="#666565" stroke="black"/>
<rect x="80.8572" y="60.1428" width="9.14286" height="9.14286" fill="white" stroke="black"/>
<circle cx="30.5715" cy="64.9682" r="0.761905" fill="black"/>
<circle cx="39.7143" cy="64.9682" r="0.761905" fill="black"/>
<circle cx="67.1428" cy="64.9682" r="0.761905" fill="black"/>
<circle cx="48.8571" cy="64.9682" r="0.761905" fill="black"/>
<circle cx="76.2856" cy="64.9682" r="0.761905" fill="black"/>
<circle cx="57.9999" cy="64.9682" r="0.761905" fill="black"/>
<circle cx="85.4286" cy="64.9682" r="0.761905" fill="black"/>
<rect width="4.52222" height="4.52222" transform="matrix(1 0 0 -1 173 66.5222)" fill="white" stroke="black"/>
<rect width="4.52222" height="4.52222" transform="matrix(1 0 0 -1 177.522 66.5222)" fill="#DFDEDE" stroke="black"/>
<rect width="4.52222" height="4.52222" transform="matrix(1 0 0 -1 191.089 66.5222)" fill="#666565" stroke="black"/>
<rect width="4.52222" height="4.52222" transform="matrix(1 0 0 -1 182.044 66.5222)" fill="#B7B7B7" stroke="black"/>
<rect width="4.52222" height="4.52222" transform="matrix(1 0 0 -1 195.611 66.5222)" fill="#666565" stroke="black"/>
<rect width="4.52222" height="4.52222" transform="matrix(1 0 0 -1 186.567 66.5222)" fill="#A2A0A0" stroke="black"/>
<rect width="4.52222" height="4.52222" transform="matrix(1 0 0 -1 200.133 66.5222)" fill="#666565" stroke="black"/>
<circle cx="0.376851" cy="0.376851" r="0.376851" transform="matrix(1 0 0 -1 174.884 64.5123)" fill="black"/>
<circle cx="0.376851" cy="0.376851" r="0.376851" transform="matrix(1 0 0 -1 179.406 64.5123)" fill="black"/>
<circle cx="0.376851" cy="0.376851" r="0.376851" transform="matrix(1 0 0 -1 192.973 64.5123)" fill="black"/>
<circle cx="0.376851" cy="0.376851" r="0.376851" transform="matrix(1 0 0 -1 183.929 64.5123)" fill="black"/>
<circle cx="0.376851" cy="0.376851" r="0.376851" transform="matrix(1 0 0 -1 197.495 64.5123)" fill="black"/>
<circle cx="0.376851" cy="0.376851" r="0.376851" transform="matrix(1 0 0 -1 188.451 64.5123)" fill="black"/>
<circle cx="0.376851" cy="0.376851" r="0.376851" transform="matrix(1 0 0 -1 202.018 64.5123)" fill="black"/>
<rect width="4.52222" height="4.52222" transform="matrix(1 0 0 -1 204.726 66.5222)" fill="#666565" stroke="black"/>
<rect width="4.52222" height="4.52222" transform="matrix(1 0 0 -1 218.293 66.5222)" fill="#B7B7B7" stroke="black"/>
<rect width="4.52222" height="4.52222" transform="matrix(1 0 0 -1 209.249 66.5222)" fill="#666565" stroke="black"/>
<rect width="4.52222" height="4.52222" transform="matrix(1 0 0 -1 222.815 66.5222)" fill="#DFDEDE" stroke="black"/>
<rect width="4.52222" height="4.52222" transform="matrix(1 0 0 -1 213.771 66.5222)" fill="#A2A0A0" stroke="black"/>
<rect width="4.52222" height="4.52222" transform="matrix(1 0 0 -1 227.337 66.5222)" fill="white" stroke="black"/>
<circle cx="0.376851" cy="0.376851" r="0.376851" transform="matrix(1 0 0 -1 206.61 64.5123)" fill="black"/>
<circle cx="0.376851" cy="0.376851" r="0.376851" transform="matrix(1 0 0 -1 220.177 64.5123)" fill="black"/>
<circle cx="0.376851" cy="0.376851" r="0.376851" transform="matrix(1 0 0 -1 211.133 64.5123)" fill="black"/>
<circle cx="0.376851" cy="0.376851" r="0.376851" transform="matrix(1 0 0 -1 224.699 64.5123)" fill="black"/>
<circle cx="0.376851" cy="0.376851" r="0.376851" transform="matrix(1 0 0 -1 215.655 64.5123)" fill="black"/>
<circle cx="0.376851" cy="0.376851" r="0.376851" transform="matrix(1 0 0 -1 229.221 64.5123)" fill="black"/>
<defs>
<linearGradient id="paint0_linear_149_39" x1="348.5" y1="116" x2="348.5" y2="137" gradientUnits="userSpaceOnUse">
<stop stop-color="#0999C9"/>
<stop offset="1" stop-color="#0999C9" stop-opacity="0"/>
</linearGradient>
</defs>
</svg>
