<svg width="682" height="374" viewBox="0 0 682 374" fill="none" xmlns="http://www.w3.org/2000/svg">
<rect width="682" height="374" fill="white"/>
<rect opacity="0.25" x="108" y="302" width="101" height="29" fill="#0999C9"/>
<rect x="316" y="63.5" width="54" height="162" fill="#0999C9" fill-opacity="0.25" stroke="#0999C9"/>
<rect x="522.5" y="63.5" width="61" height="162" fill="#0999C9" fill-opacity="0.25" stroke="#0999C9"/>
<line x1="315.525" y1="225.843" x2="369.525" y2="62.8428" stroke="#0999C9" stroke-opacity="0.25"/>
<line x1="525.507" y1="225.918" x2="552.507" y2="62.9183" stroke="#0999C9" stroke-opacity="0.25"/>
<line x1="554.507" y1="225.918" x2="581.507" y2="62.9183" stroke="#0999C9" stroke-opacity="0.25"/>
<rect x="306.5" y="151" width="18" height="18" fill="white" stroke="black"/>
<rect x="514" y="151" width="18" height="18" fill="white" stroke="black"/>
<rect x="324.5" y="151" width="18" height="18" fill="#666565" stroke="black"/>
<rect x="532" y="151" width="18" height="18" fill="#666565" stroke="black"/>
<rect x="550" y="151" width="3" height="18" fill="#666565" stroke="black"/>
<rect x="553" y="151" width="4" height="18" fill="#666565" stroke="black"/>
<rect x="342.5" y="151" width="18" height="18" fill="#666565" stroke="black"/>
<rect x="557" y="151" width="18" height="18" fill="#666565" stroke="black"/>
<rect x="360.5" y="151" width="18" height="18" fill="white" stroke="black"/>
<rect x="575" y="151" width="18" height="18" fill="white" stroke="black"/>
<path d="M306 193H315L332.5 180H351L370.5 193H378.5" stroke="#FF003C"/>
<path d="M49 331H96.5714L123.755 302H191.714L222.296 331H271" stroke="#FF003C" stroke-width="2"/>
<path d="M511 193L521 193.268L542 180H567L584.5 193H595.5" stroke="#FF003C"/>
<line x1="343" y1="226" x2="343" y2="63" stroke="black" stroke-dasharray="2 2"/>
<line x1="553" y1="226" x2="553" y2="63" stroke="black" stroke-dasharray="2 2"/>
<circle cx="343.5" cy="63" r="3" fill="black"/>
<circle cx="553.5" cy="63" r="3" fill="black"/>
<circle cx="343.5" cy="226" r="3" fill="black"/>
<circle cx="553.5" cy="226" r="3" fill="black"/>
<path d="M387.915 197H386.807L390.011 188.273H391.102L394.307 197H393.199L390.591 189.653H390.523L387.915 197ZM388.324 193.591H392.79V194.528H388.324V193.591ZM396.536 188.273V197H395.53V188.273H396.536ZM398.377 199.455V190.455H399.349V191.494H399.468C399.542 191.381 399.645 191.236 399.775 191.06C399.909 190.881 400.099 190.722 400.346 190.582C400.596 190.44 400.934 190.369 401.36 190.369C401.912 190.369 402.397 190.507 402.818 190.783C403.238 191.058 403.566 191.449 403.802 191.955C404.038 192.46 404.156 193.057 404.156 193.744C404.156 194.438 404.038 195.038 403.802 195.547C403.566 196.053 403.24 196.445 402.822 196.723C402.404 196.999 401.923 197.136 401.377 197.136C400.957 197.136 400.62 197.067 400.368 196.928C400.115 196.786 399.92 196.625 399.784 196.446C399.647 196.264 399.542 196.114 399.468 195.994H399.383V199.455H398.377ZM399.366 193.727C399.366 194.222 399.439 194.658 399.583 195.036C399.728 195.411 399.94 195.705 400.218 195.918C400.497 196.128 400.838 196.233 401.241 196.233C401.662 196.233 402.012 196.122 402.294 195.901C402.578 195.676 402.791 195.375 402.933 194.997C403.078 194.616 403.15 194.193 403.15 193.727C403.15 193.267 403.079 192.852 402.937 192.483C402.798 192.111 402.586 191.817 402.302 191.601C402.021 191.382 401.667 191.273 401.241 191.273C400.832 191.273 400.488 191.376 400.21 191.584C399.931 191.788 399.721 192.075 399.579 192.445C399.437 192.811 399.366 193.239 399.366 193.727ZM406.696 193.062V197H405.69V188.273H406.696V191.477H406.781C406.934 191.139 407.164 190.871 407.471 190.672C407.781 190.47 408.193 190.369 408.707 190.369C409.153 190.369 409.544 190.459 409.879 190.638C410.214 190.814 410.474 191.085 410.659 191.452C410.846 191.815 410.94 192.278 410.94 192.841V197H409.934V192.909C409.934 192.389 409.799 191.987 409.529 191.703C409.262 191.416 408.892 191.273 408.417 191.273C408.088 191.273 407.792 191.342 407.531 191.482C407.272 191.621 407.068 191.824 406.917 192.091C406.77 192.358 406.696 192.682 406.696 193.062ZM414.706 197.153C414.291 197.153 413.915 197.075 413.577 196.919C413.239 196.76 412.97 196.531 412.771 196.233C412.572 195.932 412.473 195.568 412.473 195.142C412.473 194.767 412.547 194.463 412.695 194.23C412.842 193.994 413.04 193.81 413.287 193.676C413.534 193.543 413.807 193.443 414.105 193.378C414.406 193.31 414.709 193.256 415.013 193.216C415.411 193.165 415.733 193.126 415.98 193.101C416.23 193.072 416.412 193.026 416.526 192.96C416.642 192.895 416.7 192.781 416.7 192.619V192.585C416.7 192.165 416.585 191.838 416.355 191.605C416.128 191.372 415.783 191.256 415.32 191.256C414.839 191.256 414.463 191.361 414.19 191.571C413.918 191.781 413.726 192.006 413.615 192.244L412.661 191.903C412.831 191.506 413.058 191.196 413.342 190.974C413.629 190.75 413.942 190.594 414.28 190.506C414.621 190.415 414.956 190.369 415.286 190.369C415.496 190.369 415.737 190.395 416.01 190.446C416.286 190.494 416.551 190.595 416.807 190.749C417.065 190.902 417.28 191.134 417.45 191.443C417.621 191.753 417.706 192.168 417.706 192.688V197H416.7V196.114H416.649C416.581 196.256 416.467 196.408 416.308 196.57C416.149 196.732 415.938 196.869 415.673 196.983C415.409 197.097 415.087 197.153 414.706 197.153ZM414.859 196.25C415.257 196.25 415.592 196.172 415.865 196.016C416.141 195.859 416.348 195.658 416.487 195.411C416.629 195.163 416.7 194.903 416.7 194.631V193.71C416.658 193.761 416.564 193.808 416.419 193.851C416.277 193.891 416.112 193.926 415.925 193.957C415.74 193.986 415.56 194.011 415.384 194.034C415.21 194.054 415.07 194.071 414.962 194.085C414.7 194.119 414.456 194.175 414.229 194.251C414.004 194.325 413.822 194.437 413.683 194.588C413.547 194.736 413.479 194.937 413.479 195.193C413.479 195.543 413.608 195.807 413.866 195.986C414.128 196.162 414.459 196.25 414.859 196.25Z" fill="#FF003C"/>
<path d="M278.415 336H277.307L280.511 327.273H281.602L284.807 336H283.699L281.091 328.653H281.023L278.415 336ZM278.824 332.591H283.29V333.528H278.824V332.591ZM287.036 327.273V336H286.03V327.273H287.036ZM288.877 338.455V329.455H289.849V330.494H289.968C290.042 330.381 290.145 330.236 290.275 330.06C290.409 329.881 290.599 329.722 290.846 329.582C291.096 329.44 291.434 329.369 291.86 329.369C292.412 329.369 292.897 329.507 293.318 329.783C293.738 330.058 294.066 330.449 294.302 330.955C294.538 331.46 294.656 332.057 294.656 332.744C294.656 333.438 294.538 334.038 294.302 334.547C294.066 335.053 293.74 335.445 293.322 335.723C292.904 335.999 292.423 336.136 291.877 336.136C291.457 336.136 291.12 336.067 290.868 335.928C290.615 335.786 290.42 335.625 290.284 335.446C290.147 335.264 290.042 335.114 289.968 334.994H289.883V338.455H288.877ZM289.866 332.727C289.866 333.222 289.939 333.658 290.083 334.036C290.228 334.411 290.44 334.705 290.718 334.918C290.997 335.128 291.338 335.233 291.741 335.233C292.162 335.233 292.512 335.122 292.794 334.901C293.078 334.676 293.291 334.375 293.433 333.997C293.578 333.616 293.65 333.193 293.65 332.727C293.65 332.267 293.579 331.852 293.437 331.483C293.298 331.111 293.086 330.817 292.802 330.601C292.521 330.382 292.167 330.273 291.741 330.273C291.332 330.273 290.988 330.376 290.71 330.584C290.431 330.788 290.221 331.075 290.079 331.445C289.937 331.811 289.866 332.239 289.866 332.727ZM297.196 332.062V336H296.19V327.273H297.196V330.477H297.281C297.434 330.139 297.664 329.871 297.971 329.672C298.281 329.47 298.693 329.369 299.207 329.369C299.653 329.369 300.044 329.459 300.379 329.638C300.714 329.814 300.974 330.085 301.159 330.452C301.346 330.815 301.44 331.278 301.44 331.841V336H300.434V331.909C300.434 331.389 300.299 330.987 300.029 330.703C299.762 330.416 299.392 330.273 298.917 330.273C298.588 330.273 298.292 330.342 298.031 330.482C297.772 330.621 297.568 330.824 297.417 331.091C297.27 331.358 297.196 331.682 297.196 332.062ZM305.206 336.153C304.791 336.153 304.415 336.075 304.077 335.919C303.739 335.76 303.47 335.531 303.271 335.233C303.072 334.932 302.973 334.568 302.973 334.142C302.973 333.767 303.047 333.463 303.195 333.23C303.342 332.994 303.54 332.81 303.787 332.676C304.034 332.543 304.307 332.443 304.605 332.378C304.906 332.31 305.209 332.256 305.513 332.216C305.911 332.165 306.233 332.126 306.48 332.101C306.73 332.072 306.912 332.026 307.026 331.96C307.142 331.895 307.2 331.781 307.2 331.619V331.585C307.2 331.165 307.085 330.838 306.855 330.605C306.628 330.372 306.283 330.256 305.82 330.256C305.339 330.256 304.963 330.361 304.69 330.571C304.418 330.781 304.226 331.006 304.115 331.244L303.161 330.903C303.331 330.506 303.558 330.196 303.842 329.974C304.129 329.75 304.442 329.594 304.78 329.506C305.121 329.415 305.456 329.369 305.786 329.369C305.996 329.369 306.237 329.395 306.51 329.446C306.786 329.494 307.051 329.595 307.307 329.749C307.565 329.902 307.78 330.134 307.95 330.443C308.121 330.753 308.206 331.168 308.206 331.688V336H307.2V335.114H307.149C307.081 335.256 306.967 335.408 306.808 335.57C306.649 335.732 306.438 335.869 306.173 335.983C305.909 336.097 305.587 336.153 305.206 336.153ZM305.359 335.25C305.757 335.25 306.092 335.172 306.365 335.016C306.641 334.859 306.848 334.658 306.987 334.411C307.129 334.163 307.2 333.903 307.2 333.631V332.71C307.158 332.761 307.064 332.808 306.919 332.851C306.777 332.891 306.612 332.926 306.425 332.957C306.24 332.986 306.06 333.011 305.884 333.034C305.71 333.054 305.57 333.071 305.462 333.085C305.2 333.119 304.956 333.175 304.729 333.251C304.504 333.325 304.322 333.437 304.183 333.588C304.047 333.736 303.979 333.937 303.979 334.193C303.979 334.543 304.108 334.807 304.366 334.986C304.628 335.162 304.959 335.25 305.359 335.25Z" fill="#FF003C"/>
<path d="M62.8807 359V351.727H67.2415V352.509H63.7614V354.966H66.9148V355.747H63.7614V359H62.8807ZM68.6362 359V353.545H69.4743V359H68.6362ZM69.0623 352.636C68.899 352.636 68.7581 352.581 68.6397 352.469C68.5237 352.358 68.4657 352.224 68.4657 352.068C68.4657 351.912 68.5237 351.778 68.6397 351.667C68.7581 351.556 68.899 351.5 69.0623 351.5C69.2257 351.5 69.3654 351.556 69.4814 351.667C69.5997 351.778 69.6589 351.912 69.6589 352.068C69.6589 352.224 69.5997 352.358 69.4814 352.469C69.3654 352.581 69.2257 352.636 69.0623 352.636ZM71.8473 351.727V359H71.0092V351.727H71.8473ZM75.7544 353.545V354.256H72.9277V353.545H75.7544ZM73.7516 352.239H74.5897V357.438C74.5897 357.674 74.624 357.852 74.6926 357.97C74.7637 358.086 74.8536 358.164 74.9625 358.205C75.0738 358.242 75.191 358.261 75.3141 358.261C75.4064 358.261 75.4822 358.257 75.5414 358.247C75.6006 358.235 75.6479 358.226 75.6834 358.219L75.8539 358.972C75.7971 358.993 75.7177 359.014 75.6159 359.036C75.5141 359.059 75.3851 359.071 75.2289 359.071C74.9921 359.071 74.7601 359.02 74.5328 358.918C74.3079 358.817 74.1209 358.661 73.9718 358.453C73.825 358.245 73.7516 357.982 73.7516 357.665V352.239ZM79.2434 359.114C78.7179 359.114 78.2645 358.998 77.8833 358.766C77.5046 358.531 77.2122 358.205 77.0062 357.786C76.8026 357.364 76.7008 356.874 76.7008 356.315C76.7008 355.757 76.8026 355.264 77.0062 354.838C77.2122 354.41 77.4986 354.076 77.8656 353.837C78.2349 353.595 78.6658 353.474 79.1582 353.474C79.4423 353.474 79.7228 353.522 79.9998 353.616C80.2768 353.711 80.5289 353.865 80.7562 354.078C80.9835 354.289 81.1646 354.568 81.2995 354.916C81.4345 355.264 81.502 355.693 81.502 356.202V356.557H77.2974V355.832H80.6497C80.6497 355.525 80.5881 355.25 80.465 355.009C80.3443 354.767 80.1715 354.576 79.9466 354.437C79.724 354.297 79.4612 354.227 79.1582 354.227C78.8244 354.227 78.5356 354.31 78.2917 354.476C78.0502 354.639 77.8644 354.852 77.7342 355.115C77.604 355.378 77.5389 355.66 77.5389 355.96V356.443C77.5389 356.855 77.6099 357.204 77.752 357.491C77.8964 357.775 78.0964 357.991 78.3521 358.141C78.6078 358.287 78.9049 358.361 79.2434 358.361C79.4636 358.361 79.6625 358.33 79.84 358.268C80.0199 358.205 80.175 358.11 80.3052 357.984C80.4354 357.857 80.536 357.698 80.6071 357.509L81.4167 357.736C81.3315 358.01 81.1883 358.252 80.987 358.46C80.7858 358.666 80.5372 358.827 80.2413 358.943C79.9454 359.057 79.6127 359.114 79.2434 359.114ZM82.7768 359V353.545H83.5865V354.369H83.6433C83.7427 354.099 83.9226 353.88 84.1831 353.712C84.4435 353.544 84.737 353.46 85.0637 353.46C85.1253 353.46 85.2022 353.461 85.2946 353.464C85.3869 353.466 85.4567 353.47 85.5041 353.474V354.327C85.4757 354.32 85.4106 354.309 85.3088 354.295C85.2093 354.278 85.104 354.27 84.9927 354.27C84.7276 354.27 84.4908 354.326 84.2825 354.437C84.0765 354.546 83.9132 354.697 83.7924 354.891C83.6741 355.083 83.6149 355.302 83.6149 355.548V359H82.7768ZM90.5458 359L88.8839 353.545H89.7646L90.9435 357.722H91.0004L92.1651 353.545H93.06L94.2106 357.707H94.2674L95.4464 353.545H96.3271L94.6651 359H93.8413L92.6481 354.81H92.5629L91.3697 359H90.5458ZM97.435 359V353.545H98.2731V359H97.435ZM97.8612 352.636C97.6978 352.636 97.5569 352.581 97.4386 352.469C97.3226 352.358 97.2646 352.224 97.2646 352.068C97.2646 351.912 97.3226 351.778 97.4386 351.667C97.5569 351.556 97.6978 351.5 97.8612 351.5C98.0245 351.5 98.1642 351.556 98.2802 351.667C98.3986 351.778 98.4577 351.912 98.4577 352.068C98.4577 352.224 98.3986 352.358 98.2802 352.469C98.1642 352.581 98.0245 352.636 97.8612 352.636ZM100.646 355.719V359H99.8081V353.545H100.618V354.398H100.689C100.817 354.121 101.011 353.898 101.271 353.73C101.532 353.56 101.868 353.474 102.28 353.474C102.649 353.474 102.972 353.55 103.249 353.702C103.526 353.851 103.742 354.078 103.895 354.384C104.049 354.687 104.126 355.07 104.126 355.534V359H103.288V355.591C103.288 355.162 103.177 354.829 102.954 354.589C102.732 354.348 102.426 354.227 102.038 354.227C101.771 354.227 101.532 354.285 101.321 354.401C101.113 354.517 100.948 354.687 100.827 354.909C100.706 355.132 100.646 355.402 100.646 355.719ZM107.717 359.114C107.263 359.114 106.862 358.999 106.513 358.769C106.165 358.537 105.893 358.21 105.697 357.789C105.5 357.365 105.402 356.865 105.402 356.287C105.402 355.714 105.5 355.217 105.697 354.795C105.893 354.374 106.167 354.049 106.517 353.819C106.867 353.589 107.272 353.474 107.732 353.474C108.087 353.474 108.367 353.534 108.573 353.652C108.781 353.768 108.94 353.901 109.049 354.05C109.16 354.196 109.247 354.317 109.308 354.412H109.379V351.727H110.217V359H109.408V358.162H109.308C109.247 358.261 109.159 358.387 109.045 358.538C108.932 358.687 108.77 358.821 108.559 358.94C108.348 359.056 108.068 359.114 107.717 359.114ZM107.831 358.361C108.167 358.361 108.451 358.273 108.683 358.098C108.915 357.92 109.092 357.675 109.212 357.363C109.333 357.048 109.393 356.685 109.393 356.273C109.393 355.866 109.334 355.509 109.216 355.204C109.098 354.896 108.922 354.657 108.69 354.487C108.458 354.314 108.172 354.227 107.831 354.227C107.476 354.227 107.18 354.318 106.943 354.501C106.709 354.681 106.532 354.926 106.414 355.236C106.298 355.544 106.24 355.889 106.24 356.273C106.24 356.661 106.299 357.014 106.418 357.331C106.538 357.646 106.716 357.897 106.95 358.084C107.187 358.268 107.481 358.361 107.831 358.361ZM114.085 359.114C113.592 359.114 113.16 358.996 112.788 358.762C112.419 358.528 112.13 358.2 111.922 357.778C111.716 357.357 111.613 356.865 111.613 356.301C111.613 355.733 111.716 355.237 111.922 354.813C112.13 354.389 112.419 354.06 112.788 353.826C113.16 353.592 113.592 353.474 114.085 353.474C114.577 353.474 115.008 353.592 115.377 353.826C115.749 354.06 116.038 354.389 116.244 354.813C116.452 355.237 116.556 355.733 116.556 356.301C116.556 356.865 116.452 357.357 116.244 357.778C116.038 358.2 115.749 358.528 115.377 358.762C115.008 358.996 114.577 359.114 114.085 359.114ZM114.085 358.361C114.459 358.361 114.766 358.265 115.008 358.073C115.249 357.881 115.428 357.629 115.544 357.317C115.66 357.004 115.718 356.666 115.718 356.301C115.718 355.937 115.66 355.597 115.544 355.282C115.428 354.967 115.249 354.713 115.008 354.518C114.766 354.324 114.459 354.227 114.085 354.227C113.71 354.227 113.403 354.324 113.161 354.518C112.92 354.713 112.741 354.967 112.625 355.282C112.509 355.597 112.451 355.937 112.451 356.301C112.451 356.666 112.509 357.004 112.625 357.317C112.741 357.629 112.92 357.881 113.161 358.073C113.403 358.265 113.71 358.361 114.085 358.361ZM118.886 359L117.224 353.545H118.104L119.283 357.722H119.34L120.505 353.545H121.4L122.55 357.707H122.607L123.786 353.545H124.667L123.005 359H122.181L120.988 354.81H120.903L119.71 359H118.886Z" fill="black"/>
<path d="M597.915 197H596.807L600.011 188.273H601.102L604.307 197H603.199L600.591 189.653H600.523L597.915 197ZM598.324 193.591H602.79V194.528H598.324V193.591ZM606.536 188.273V197H605.53V188.273H606.536ZM608.377 199.455V190.455H609.349V191.494H609.468C609.542 191.381 609.645 191.236 609.775 191.06C609.909 190.881 610.099 190.722 610.346 190.582C610.596 190.44 610.934 190.369 611.36 190.369C611.912 190.369 612.397 190.507 612.818 190.783C613.238 191.058 613.566 191.449 613.802 191.955C614.038 192.46 614.156 193.057 614.156 193.744C614.156 194.438 614.038 195.038 613.802 195.547C613.566 196.053 613.24 196.445 612.822 196.723C612.404 196.999 611.923 197.136 611.377 197.136C610.957 197.136 610.62 197.067 610.368 196.928C610.115 196.786 609.92 196.625 609.784 196.446C609.647 196.264 609.542 196.114 609.468 195.994H609.383V199.455H608.377ZM609.366 193.727C609.366 194.222 609.439 194.658 609.583 195.036C609.728 195.411 609.94 195.705 610.218 195.918C610.497 196.128 610.838 196.233 611.241 196.233C611.662 196.233 612.012 196.122 612.294 195.901C612.578 195.676 612.791 195.375 612.933 194.997C613.078 194.616 613.15 194.193 613.15 193.727C613.15 193.267 613.079 192.852 612.937 192.483C612.798 192.111 612.586 191.817 612.302 191.601C612.021 191.382 611.667 191.273 611.241 191.273C610.832 191.273 610.488 191.376 610.21 191.584C609.931 191.788 609.721 192.075 609.579 192.445C609.437 192.811 609.366 193.239 609.366 193.727ZM616.696 193.062V197H615.69V188.273H616.696V191.477H616.781C616.934 191.139 617.164 190.871 617.471 190.672C617.781 190.47 618.193 190.369 618.707 190.369C619.153 190.369 619.544 190.459 619.879 190.638C620.214 190.814 620.474 191.085 620.659 191.452C620.846 191.815 620.94 192.278 620.94 192.841V197H619.934V192.909C619.934 192.389 619.799 191.987 619.529 191.703C619.262 191.416 618.892 191.273 618.417 191.273C618.088 191.273 617.792 191.342 617.531 191.482C617.272 191.621 617.068 191.824 616.917 192.091C616.77 192.358 616.696 192.682 616.696 193.062ZM624.706 197.153C624.291 197.153 623.915 197.075 623.577 196.919C623.239 196.76 622.97 196.531 622.771 196.233C622.572 195.932 622.473 195.568 622.473 195.142C622.473 194.767 622.547 194.463 622.695 194.23C622.842 193.994 623.04 193.81 623.287 193.676C623.534 193.543 623.807 193.443 624.105 193.378C624.406 193.31 624.709 193.256 625.013 193.216C625.411 193.165 625.733 193.126 625.98 193.101C626.23 193.072 626.412 193.026 626.526 192.96C626.642 192.895 626.7 192.781 626.7 192.619V192.585C626.7 192.165 626.585 191.838 626.355 191.605C626.128 191.372 625.783 191.256 625.32 191.256C624.839 191.256 624.463 191.361 624.19 191.571C623.918 191.781 623.726 192.006 623.615 192.244L622.661 191.903C622.831 191.506 623.058 191.196 623.342 190.974C623.629 190.75 623.942 190.594 624.28 190.506C624.621 190.415 624.956 190.369 625.286 190.369C625.496 190.369 625.737 190.395 626.01 190.446C626.286 190.494 626.551 190.595 626.807 190.749C627.065 190.902 627.28 191.134 627.45 191.443C627.621 191.753 627.706 192.168 627.706 192.688V197H626.7V196.114H626.649C626.581 196.256 626.467 196.408 626.308 196.57C626.149 196.732 625.938 196.869 625.673 196.983C625.409 197.097 625.087 197.153 624.706 197.153ZM624.859 196.25C625.257 196.25 625.592 196.172 625.865 196.016C626.141 195.859 626.348 195.658 626.487 195.411C626.629 195.163 626.7 194.903 626.7 194.631V193.71C626.658 193.761 626.564 193.808 626.419 193.851C626.277 193.891 626.112 193.926 625.925 193.957C625.74 193.986 625.56 194.011 625.384 194.034C625.21 194.054 625.07 194.071 624.962 194.085C624.7 194.119 624.456 194.175 624.229 194.251C624.004 194.325 623.822 194.437 623.683 194.588C623.547 194.736 623.479 194.937 623.479 195.193C623.479 195.543 623.608 195.807 623.866 195.986C624.128 196.162 624.459 196.25 624.859 196.25Z" fill="#FF003C"/>
<path d="M305.723 34L303.226 25.2727H305.241L306.686 31.3366H306.759L308.352 25.2727H310.078L311.668 31.3494H311.744L313.189 25.2727H315.205L312.707 34H310.909L309.247 28.294H309.179L307.521 34H305.723ZM317.973 30.2159V34H316.158V25.2727H317.922V28.6094H317.999C318.147 28.223 318.385 27.9205 318.715 27.7017C319.044 27.4801 319.458 27.3693 319.955 27.3693C320.409 27.3693 320.806 27.4688 321.144 27.6676C321.485 27.8636 321.749 28.1463 321.936 28.5156C322.127 28.8821 322.221 29.321 322.218 29.8324V34H320.402V30.1562C320.405 29.7528 320.303 29.4389 320.096 29.2145C319.891 28.9901 319.604 28.8778 319.235 28.8778C318.988 28.8778 318.769 28.9304 318.578 29.0355C318.391 29.1406 318.243 29.294 318.135 29.4957C318.03 29.6946 317.976 29.9347 317.973 30.2159ZM326.604 34.1278C325.942 34.1278 325.369 33.9872 324.886 33.706C324.406 33.4219 324.036 33.027 323.774 32.5213C323.513 32.0128 323.382 31.4233 323.382 30.7528C323.382 30.0767 323.513 29.4858 323.774 28.9801C324.036 28.4716 324.406 28.0767 324.886 27.7955C325.369 27.5114 325.942 27.3693 326.604 27.3693C327.266 27.3693 327.837 27.5114 328.317 27.7955C328.8 28.0767 329.172 28.4716 329.433 28.9801C329.695 29.4858 329.825 30.0767 329.825 30.7528C329.825 31.4233 329.695 32.0128 329.433 32.5213C329.172 33.027 328.8 33.4219 328.317 33.706C327.837 33.9872 327.266 34.1278 326.604 34.1278ZM326.612 32.7216C326.913 32.7216 327.165 32.6364 327.366 32.4659C327.568 32.2926 327.72 32.0568 327.822 31.7585C327.928 31.4602 327.98 31.1207 327.98 30.7401C327.98 30.3594 327.928 30.0199 327.822 29.7216C327.72 29.4233 327.568 29.1875 327.366 29.0142C327.165 28.8409 326.913 28.7543 326.612 28.7543C326.308 28.7543 326.053 28.8409 325.845 29.0142C325.641 29.1875 325.486 29.4233 325.381 29.7216C325.278 30.0199 325.227 30.3594 325.227 30.7401C325.227 31.1207 325.278 31.4602 325.381 31.7585C325.486 32.0568 325.641 32.2926 325.845 32.4659C326.053 32.6364 326.308 32.7216 326.612 32.7216ZM332.821 25.2727V34H331.006V25.2727H332.821ZM337.258 34.1278C336.585 34.1278 336.005 33.9915 335.52 33.7188C335.037 33.4432 334.664 33.054 334.403 32.5511C334.142 32.0455 334.011 31.4474 334.011 30.7571C334.011 30.0838 334.142 29.4929 334.403 28.9844C334.664 28.4759 335.032 28.0795 335.507 27.7955C335.984 27.5114 336.544 27.3693 337.186 27.3693C337.618 27.3693 338.02 27.4389 338.392 27.5781C338.767 27.7145 339.093 27.9205 339.372 28.196C339.653 28.4716 339.872 28.8182 340.028 29.2358C340.184 29.6506 340.262 30.1364 340.262 30.6932V31.1918H334.735V30.0668H338.554C338.554 29.8054 338.497 29.5739 338.383 29.3722C338.27 29.1705 338.112 29.0128 337.91 28.8991C337.711 28.7827 337.48 28.7244 337.216 28.7244C336.94 28.7244 336.696 28.7884 336.483 28.9162C336.272 29.0412 336.108 29.2102 335.988 29.4233C335.869 29.6335 335.808 29.8679 335.805 30.1264V31.196C335.805 31.5199 335.865 31.7997 335.984 32.0355C336.106 32.2713 336.278 32.4531 336.5 32.581C336.721 32.7088 336.984 32.7727 337.288 32.7727C337.49 32.7727 337.674 32.7443 337.842 32.6875C338.01 32.6307 338.153 32.5455 338.272 32.4318C338.392 32.3182 338.483 32.179 338.545 32.0142L340.224 32.125C340.139 32.5284 339.964 32.8807 339.7 33.1818C339.439 33.4801 339.1 33.7131 338.686 33.8807C338.274 34.0455 337.798 34.1278 337.258 34.1278ZM349.67 29.321L348.009 29.4233C347.98 29.2812 347.919 29.1534 347.825 29.0398C347.732 28.9233 347.608 28.831 347.455 28.7628C347.304 28.6918 347.124 28.6562 346.913 28.6562C346.632 28.6562 346.395 28.7159 346.202 28.8352C346.009 28.9517 345.912 29.108 345.912 29.304C345.912 29.4602 345.974 29.5923 346.099 29.7003C346.224 29.8082 346.439 29.8949 346.743 29.9602L347.928 30.1989C348.564 30.3295 349.038 30.5398 349.351 30.8295C349.663 31.1193 349.82 31.5 349.82 31.9716C349.82 32.4006 349.693 32.777 349.44 33.1009C349.19 33.4247 348.847 33.6776 348.409 33.8594C347.974 34.0384 347.473 34.1278 346.905 34.1278C346.038 34.1278 345.348 33.9474 344.834 33.5866C344.322 33.223 344.023 32.7287 343.935 32.1037L345.72 32.0099C345.774 32.2741 345.905 32.4759 346.112 32.6151C346.32 32.7514 346.585 32.8196 346.909 32.8196C347.227 32.8196 347.483 32.7585 347.676 32.6364C347.872 32.5114 347.972 32.3509 347.974 32.1548C347.972 31.9901 347.902 31.8551 347.766 31.75C347.629 31.642 347.419 31.5597 347.135 31.5028L346.001 31.277C345.362 31.1491 344.886 30.9276 344.574 30.6122C344.264 30.2969 344.109 29.8949 344.109 29.4062C344.109 28.9858 344.223 28.6236 344.45 28.3196C344.68 28.0156 345.003 27.7812 345.418 27.6165C345.835 27.4517 346.324 27.3693 346.884 27.3693C347.71 27.3693 348.361 27.544 348.835 27.8935C349.313 28.2429 349.591 28.7187 349.67 29.321ZM350.963 34V27.4545H352.778V34H350.963ZM351.875 26.6108C351.605 26.6108 351.373 26.5213 351.18 26.3423C350.99 26.1605 350.895 25.9432 350.895 25.6903C350.895 25.4403 350.99 25.2259 351.18 25.0469C351.373 24.8651 351.605 24.7741 351.875 24.7741C352.145 24.7741 352.375 24.8651 352.565 25.0469C352.758 25.2259 352.855 25.4403 352.855 25.6903C352.855 25.9432 352.758 26.1605 352.565 26.3423C352.375 26.5213 352.145 26.6108 351.875 26.6108ZM354.198 34V32.9176L357.403 28.9503V28.9034H354.309V27.4545H359.589V28.6349L356.58 32.5043V32.5511H359.7V34H354.198ZM363.883 34.1278C363.21 34.1278 362.63 33.9915 362.145 33.7188C361.662 33.4432 361.289 33.054 361.028 32.5511C360.767 32.0455 360.636 31.4474 360.636 30.7571C360.636 30.0838 360.767 29.4929 361.028 28.9844C361.289 28.4759 361.657 28.0795 362.132 27.7955C362.609 27.5114 363.169 27.3693 363.811 27.3693C364.243 27.3693 364.645 27.4389 365.017 27.5781C365.392 27.7145 365.718 27.9205 365.997 28.196C366.278 28.4716 366.497 28.8182 366.653 29.2358C366.809 29.6506 366.887 30.1364 366.887 30.6932V31.1918H361.36V30.0668H365.179C365.179 29.8054 365.122 29.5739 365.008 29.3722C364.895 29.1705 364.737 29.0128 364.535 28.8991C364.336 28.7827 364.105 28.7244 363.841 28.7244C363.565 28.7244 363.321 28.7884 363.108 28.9162C362.897 29.0412 362.733 29.2102 362.613 29.4233C362.494 29.6335 362.433 29.8679 362.43 30.1264V31.196C362.43 31.5199 362.49 31.7997 362.609 32.0355C362.731 32.2713 362.903 32.4531 363.125 32.581C363.346 32.7088 363.609 32.7727 363.913 32.7727C364.115 32.7727 364.299 32.7443 364.467 32.6875C364.635 32.6307 364.778 32.5455 364.897 32.4318C365.017 32.3182 365.108 32.179 365.17 32.0142L366.849 32.125C366.764 32.5284 366.589 32.8807 366.325 33.1818C366.064 33.4801 365.725 33.7131 365.311 33.8807C364.899 34.0455 364.423 34.1278 363.883 34.1278ZM370.484 34.1065C369.987 34.1065 369.537 33.9787 369.133 33.723C368.733 33.4645 368.414 33.0852 368.179 32.5852C367.946 32.0824 367.829 31.4659 367.829 30.7358C367.829 29.9858 367.95 29.3622 368.191 28.8651C368.433 28.3651 368.754 27.9915 369.154 27.7443C369.558 27.4943 370 27.3693 370.48 27.3693C370.846 27.3693 371.152 27.4318 371.396 27.5568C371.643 27.679 371.842 27.8324 371.993 28.017C372.146 28.1989 372.262 28.3778 372.342 28.554H372.397V25.2727H374.208V34H372.419V32.9517H372.342C372.257 33.1335 372.136 33.3139 371.98 33.4929C371.826 33.669 371.626 33.8153 371.379 33.9318C371.135 34.0483 370.836 34.1065 370.484 34.1065ZM371.059 32.6619C371.352 32.6619 371.599 32.5824 371.801 32.4233C372.005 32.2614 372.162 32.0355 372.27 31.7457C372.38 31.456 372.436 31.1165 372.436 30.7273C372.436 30.3381 372.382 30 372.274 29.7131C372.166 29.4261 372.01 29.2045 371.805 29.0483C371.6 28.892 371.352 28.8139 371.059 28.8139C370.761 28.8139 370.51 28.8949 370.305 29.0568C370.1 29.2187 369.946 29.4432 369.841 29.7301C369.735 30.017 369.683 30.3494 369.683 30.7273C369.683 31.108 369.735 31.4446 369.841 31.7372C369.949 32.027 370.103 32.2543 370.305 32.419C370.51 32.581 370.761 32.6619 371.059 32.6619Z" fill="black"/>
<path d="M507.759 34V25.2727H513.537V26.794H509.604V28.8736H513.153V30.3949H509.604V34H507.759ZM514.638 34V27.4545H516.398V28.5966H516.467C516.586 28.1903 516.786 27.8835 517.067 27.6761C517.349 27.4659 517.673 27.3608 518.039 27.3608C518.13 27.3608 518.228 27.3665 518.333 27.3778C518.438 27.3892 518.531 27.4048 518.61 27.4247V29.0355C518.525 29.0099 518.407 28.9872 518.256 28.9673C518.106 28.9474 517.968 28.9375 517.843 28.9375C517.576 28.9375 517.337 28.9957 517.127 29.1122C516.92 29.2259 516.755 29.3849 516.633 29.5895C516.513 29.794 516.454 30.0298 516.454 30.2969V34H514.638ZM521.228 34.1236C520.81 34.1236 520.438 34.0511 520.111 33.9062C519.784 33.7585 519.526 33.5412 519.336 33.2543C519.148 32.9645 519.054 32.6037 519.054 32.1719C519.054 31.8082 519.121 31.5028 519.255 31.2557C519.388 31.0085 519.57 30.8097 519.8 30.6591C520.03 30.5085 520.292 30.3949 520.584 30.3182C520.88 30.2415 521.189 30.1875 521.513 30.1562C521.894 30.1165 522.201 30.0795 522.434 30.0455C522.667 30.0085 522.836 29.9545 522.941 29.8835C523.046 29.8125 523.098 29.7074 523.098 29.5682V29.5426C523.098 29.2727 523.013 29.0639 522.843 28.9162C522.675 28.7685 522.436 28.6946 522.127 28.6946C521.8 28.6946 521.54 28.767 521.347 28.9119C521.154 29.054 521.026 29.233 520.963 29.4489L519.284 29.3125C519.37 28.9148 519.537 28.571 519.787 28.2812C520.037 27.9886 520.36 27.7642 520.755 27.608C521.152 27.4489 521.613 27.3693 522.135 27.3693C522.499 27.3693 522.847 27.4119 523.179 27.4972C523.515 27.5824 523.811 27.7145 524.07 27.8935C524.331 28.0724 524.537 28.3026 524.688 28.5838C524.838 28.8622 524.914 29.196 524.914 29.5852V34H523.192V33.0923H523.141C523.036 33.2969 522.895 33.4773 522.719 33.6335C522.543 33.7869 522.331 33.9077 522.084 33.9957C521.837 34.081 521.551 34.1236 521.228 34.1236ZM521.748 32.8707C522.015 32.8707 522.25 32.8182 522.455 32.7131C522.659 32.6051 522.82 32.4602 522.936 32.2784C523.053 32.0966 523.111 31.8906 523.111 31.6605V30.9659C523.054 31.0028 522.976 31.0369 522.877 31.0682C522.78 31.0966 522.671 31.1236 522.549 31.1491C522.426 31.1719 522.304 31.1932 522.182 31.2131C522.06 31.2301 521.949 31.2457 521.85 31.2599C521.637 31.2912 521.451 31.3409 521.292 31.4091C521.132 31.4773 521.009 31.5696 520.921 31.6861C520.833 31.7997 520.789 31.9418 520.789 32.1122C520.789 32.3594 520.878 32.5483 521.057 32.679C521.239 32.8068 521.469 32.8707 521.748 32.8707ZM529.279 34.1278C528.609 34.1278 528.032 33.9858 527.549 33.7017C527.069 33.4148 526.7 33.017 526.441 32.5085C526.186 32 526.058 31.4148 526.058 30.7528C526.058 30.0824 526.187 29.4943 526.446 28.9886C526.707 28.4801 527.078 28.0838 527.558 27.7997C528.038 27.5128 528.609 27.3693 529.271 27.3693C529.842 27.3693 530.342 27.473 530.771 27.6804C531.2 27.8878 531.539 28.179 531.789 28.554C532.039 28.929 532.177 29.3693 532.203 29.875H530.49C530.441 29.5483 530.314 29.2855 530.106 29.0866C529.902 28.8849 529.633 28.7841 529.301 28.7841C529.02 28.7841 528.774 28.8608 528.564 29.0142C528.356 29.1648 528.194 29.3849 528.078 29.6747C527.961 29.9645 527.903 30.3153 527.903 30.7273C527.903 31.1449 527.96 31.5 528.074 31.7926C528.19 32.0852 528.353 32.3082 528.564 32.4616C528.774 32.6151 529.02 32.6918 529.301 32.6918C529.508 32.6918 529.694 32.6491 529.859 32.5639C530.027 32.4787 530.164 32.3551 530.272 32.1932C530.383 32.0284 530.456 31.831 530.49 31.6009H532.203C532.174 32.1009 532.038 32.5412 531.794 32.9219C531.552 33.2997 531.218 33.5952 530.792 33.8082C530.366 34.0213 529.862 34.1278 529.279 34.1278ZM536.847 27.4545V28.8182H532.905V27.4545H536.847ZM533.8 25.8864H535.615V31.9886C535.615 32.1562 535.641 32.2869 535.692 32.3807C535.743 32.4716 535.814 32.5355 535.905 32.5724C535.999 32.6094 536.107 32.6278 536.229 32.6278C536.314 32.6278 536.399 32.6207 536.484 32.6065C536.57 32.5895 536.635 32.5767 536.68 32.5682L536.966 33.919C536.875 33.9474 536.747 33.9801 536.582 34.017C536.418 34.0568 536.217 34.081 535.982 34.0895C535.544 34.1065 535.161 34.0483 534.831 33.9148C534.504 33.7812 534.25 33.5739 534.068 33.2926C533.886 33.0114 533.797 32.6562 533.8 32.2273V25.8864ZM538.029 34V27.4545H539.844V34H538.029ZM538.941 26.6108C538.671 26.6108 538.44 26.5213 538.246 26.3423C538.056 26.1605 537.961 25.9432 537.961 25.6903C537.961 25.4403 538.056 25.2259 538.246 25.0469C538.44 24.8651 538.671 24.7741 538.941 24.7741C539.211 24.7741 539.441 24.8651 539.631 25.0469C539.825 25.2259 539.921 25.4403 539.921 25.6903C539.921 25.9432 539.825 26.1605 539.631 26.3423C539.441 26.5213 539.211 26.6108 538.941 26.6108ZM544.256 34.1278C543.594 34.1278 543.022 33.9872 542.539 33.706C542.059 33.4219 541.688 33.027 541.426 32.5213C541.165 32.0128 541.034 31.4233 541.034 30.7528C541.034 30.0767 541.165 29.4858 541.426 28.9801C541.688 28.4716 542.059 28.0767 542.539 27.7955C543.022 27.5114 543.594 27.3693 544.256 27.3693C544.918 27.3693 545.489 27.5114 545.969 27.7955C546.452 28.0767 546.824 28.4716 547.086 28.9801C547.347 29.4858 547.478 30.0767 547.478 30.7528C547.478 31.4233 547.347 32.0128 547.086 32.5213C546.824 33.027 546.452 33.4219 545.969 33.706C545.489 33.9872 544.918 34.1278 544.256 34.1278ZM544.265 32.7216C544.566 32.7216 544.817 32.6364 545.019 32.4659C545.221 32.2926 545.373 32.0568 545.475 31.7585C545.58 31.4602 545.632 31.1207 545.632 30.7401C545.632 30.3594 545.58 30.0199 545.475 29.7216C545.373 29.4233 545.221 29.1875 545.019 29.0142C544.817 28.8409 544.566 28.7543 544.265 28.7543C543.961 28.7543 543.705 28.8409 543.498 29.0142C543.293 29.1875 543.138 29.4233 543.033 29.7216C542.931 30.0199 542.88 30.3594 542.88 30.7401C542.88 31.1207 542.931 31.4602 543.033 31.7585C543.138 32.0568 543.293 32.2926 543.498 32.4659C543.705 32.6364 543.961 32.7216 544.265 32.7216ZM550.473 30.2159V34H548.658V27.4545H550.388V28.6094H550.465C550.61 28.2287 550.853 27.9276 551.194 27.706C551.534 27.4815 551.948 27.3693 552.434 27.3693C552.888 27.3693 553.284 27.4688 553.623 27.6676C553.961 27.8665 554.223 28.1506 554.411 28.5199C554.598 28.8864 554.692 29.3239 554.692 29.8324V34H552.877V30.1562C552.88 29.7557 552.777 29.4432 552.57 29.2188C552.363 28.9915 552.077 28.8778 551.713 28.8778C551.469 28.8778 551.253 28.9304 551.066 29.0355C550.881 29.1406 550.736 29.294 550.631 29.4957C550.529 29.6946 550.476 29.9347 550.473 30.2159ZM557.989 34.1236C557.572 34.1236 557.2 34.0511 556.873 33.9062C556.546 33.7585 556.288 33.5412 556.097 33.2543C555.91 32.9645 555.816 32.6037 555.816 32.1719C555.816 31.8082 555.883 31.5028 556.016 31.2557C556.15 31.0085 556.332 30.8097 556.562 30.6591C556.792 30.5085 557.053 30.3949 557.346 30.3182C557.641 30.2415 557.951 30.1875 558.275 30.1562C558.656 30.1165 558.962 30.0795 559.195 30.0455C559.428 30.0085 559.597 29.9545 559.702 29.8835C559.808 29.8125 559.86 29.7074 559.86 29.5682V29.5426C559.86 29.2727 559.775 29.0639 559.604 28.9162C559.437 28.7685 559.198 28.6946 558.888 28.6946C558.562 28.6946 558.302 28.767 558.109 28.9119C557.915 29.054 557.788 29.233 557.725 29.4489L556.046 29.3125C556.131 28.9148 556.299 28.571 556.549 28.2812C556.799 27.9886 557.121 27.7642 557.516 27.608C557.914 27.4489 558.374 27.3693 558.897 27.3693C559.261 27.3693 559.609 27.4119 559.941 27.4972C560.276 27.5824 560.573 27.7145 560.832 27.8935C561.093 28.0724 561.299 28.3026 561.45 28.5838C561.6 28.8622 561.675 29.196 561.675 29.5852V34H559.954V33.0923H559.903C559.798 33.2969 559.657 33.4773 559.481 33.6335C559.305 33.7869 559.093 33.9077 558.846 33.9957C558.599 34.081 558.313 34.1236 557.989 34.1236ZM558.509 32.8707C558.776 32.8707 559.012 32.8182 559.217 32.7131C559.421 32.6051 559.582 32.4602 559.698 32.2784C559.815 32.0966 559.873 31.8906 559.873 31.6605V30.9659C559.816 31.0028 559.738 31.0369 559.638 31.0682C559.542 31.0966 559.433 31.1236 559.31 31.1491C559.188 31.1719 559.066 31.1932 558.944 31.2131C558.822 31.2301 558.711 31.2457 558.612 31.2599C558.398 31.2912 558.212 31.3409 558.053 31.4091C557.894 31.4773 557.771 31.5696 557.683 31.6861C557.594 31.7997 557.55 31.9418 557.55 32.1122C557.55 32.3594 557.64 32.5483 557.819 32.679C558.001 32.8068 558.231 32.8707 558.509 32.8707ZM564.899 25.2727V34H563.084V25.2727H564.899ZM574.577 29.321L572.915 29.4233C572.886 29.2812 572.825 29.1534 572.732 29.0398C572.638 28.9233 572.514 28.831 572.361 28.7628C572.21 28.6918 572.03 28.6562 571.82 28.6562C571.538 28.6562 571.301 28.7159 571.108 28.8352C570.915 28.9517 570.818 29.108 570.818 29.304C570.818 29.4602 570.881 29.5923 571.006 29.7003C571.131 29.8082 571.345 29.8949 571.649 29.9602L572.834 30.1989C573.47 30.3295 573.945 30.5398 574.257 30.8295C574.57 31.1193 574.726 31.5 574.726 31.9716C574.726 32.4006 574.599 32.777 574.347 33.1009C574.097 33.4247 573.753 33.6776 573.315 33.8594C572.881 34.0384 572.379 34.1278 571.811 34.1278C570.945 34.1278 570.254 33.9474 569.74 33.5866C569.229 33.223 568.929 32.7287 568.841 32.1037L570.626 32.0099C570.68 32.2741 570.811 32.4759 571.018 32.6151C571.226 32.7514 571.491 32.8196 571.815 32.8196C572.134 32.8196 572.389 32.7585 572.582 32.6364C572.778 32.5114 572.878 32.3509 572.881 32.1548C572.878 31.9901 572.808 31.8551 572.672 31.75C572.536 31.642 572.325 31.5597 572.041 31.5028L570.908 31.277C570.268 31.1491 569.793 30.9276 569.48 30.6122C569.17 30.2969 569.016 29.8949 569.016 29.4062C569.016 28.9858 569.129 28.6236 569.357 28.3196C569.587 28.0156 569.909 27.7812 570.324 27.6165C570.741 27.4517 571.23 27.3693 571.79 27.3693C572.616 27.3693 573.267 27.544 573.741 27.8935C574.219 28.2429 574.497 28.7187 574.577 29.321ZM575.869 34V27.4545H577.684V34H575.869ZM576.781 26.6108C576.511 26.6108 576.279 26.5213 576.086 26.3423C575.896 26.1605 575.801 25.9432 575.801 25.6903C575.801 25.4403 575.896 25.2259 576.086 25.0469C576.279 24.8651 576.511 24.7741 576.781 24.7741C577.051 24.7741 577.281 24.8651 577.471 25.0469C577.664 25.2259 577.761 25.4403 577.761 25.6903C577.761 25.9432 577.664 26.1605 577.471 26.3423C577.281 26.5213 577.051 26.6108 576.781 26.6108ZM579.104 34V32.9176L582.309 28.9503V28.9034H579.215V27.4545H584.495V28.6349L581.487 32.5043V32.5511H584.606V34H579.104ZM588.789 34.1278C588.116 34.1278 587.537 33.9915 587.051 33.7188C586.568 33.4432 586.196 33.054 585.934 32.5511C585.673 32.0455 585.542 31.4474 585.542 30.7571C585.542 30.0838 585.673 29.4929 585.934 28.9844C586.196 28.4759 586.564 28.0795 587.038 27.7955C587.515 27.5114 588.075 27.3693 588.717 27.3693C589.149 27.3693 589.551 27.4389 589.923 27.5781C590.298 27.7145 590.625 27.9205 590.903 28.196C591.184 28.4716 591.403 28.8182 591.559 29.2358C591.716 29.6506 591.794 30.1364 591.794 30.6932V31.1918H586.267V30.0668H590.085C590.085 29.8054 590.028 29.5739 589.914 29.3722C589.801 29.1705 589.643 29.0128 589.441 28.8991C589.243 28.7827 589.011 28.7244 588.747 28.7244C588.471 28.7244 588.227 28.7884 588.014 28.9162C587.804 29.0412 587.639 29.2102 587.52 29.4233C587.4 29.6335 587.339 29.8679 587.336 30.1264V31.196C587.336 31.5199 587.396 31.7997 587.515 32.0355C587.637 32.2713 587.809 32.4531 588.031 32.581C588.252 32.7088 588.515 32.7727 588.819 32.7727C589.021 32.7727 589.206 32.7443 589.373 32.6875C589.541 32.6307 589.684 32.5455 589.804 32.4318C589.923 32.3182 590.014 32.179 590.076 32.0142L591.755 32.125C591.67 32.5284 591.495 32.8807 591.231 33.1818C590.97 33.4801 590.632 33.7131 590.217 33.8807C589.805 34.0455 589.329 34.1278 588.789 34.1278ZM595.39 34.1065C594.893 34.1065 594.443 33.9787 594.039 33.723C593.639 33.4645 593.321 33.0852 593.085 32.5852C592.852 32.0824 592.735 31.4659 592.735 30.7358C592.735 29.9858 592.856 29.3622 593.098 28.8651C593.339 28.3651 593.66 27.9915 594.061 27.7443C594.464 27.4943 594.906 27.3693 595.386 27.3693C595.752 27.3693 596.058 27.4318 596.302 27.5568C596.549 27.679 596.748 27.8324 596.899 28.017C597.052 28.1989 597.169 28.3778 597.248 28.554H597.304V25.2727H599.115V34H597.325V32.9517H597.248C597.163 33.1335 597.042 33.3139 596.886 33.4929C596.733 33.669 596.532 33.8153 596.285 33.9318C596.041 34.0483 595.743 34.1065 595.39 34.1065ZM595.966 32.6619C596.258 32.6619 596.505 32.5824 596.707 32.4233C596.912 32.2614 597.068 32.0355 597.176 31.7457C597.287 31.456 597.342 31.1165 597.342 30.7273C597.342 30.3381 597.288 30 597.18 29.7131C597.072 29.4261 596.916 29.2045 596.711 29.0483C596.507 28.892 596.258 28.8139 595.966 28.8139C595.667 28.8139 595.416 28.8949 595.211 29.0568C595.007 29.2187 594.852 29.4432 594.747 29.7301C594.642 30.017 594.589 30.3494 594.589 30.7273C594.589 31.108 594.642 31.4446 594.747 31.7372C594.855 32.027 595.01 32.2543 595.211 32.419C595.416 32.581 595.667 32.6619 595.966 32.6619Z" fill="black"/>
<path d="M320.903 255V254.233L323.784 251.08C324.122 250.71 324.401 250.389 324.619 250.116C324.838 249.841 325 249.582 325.105 249.341C325.213 249.097 325.267 248.841 325.267 248.574C325.267 248.267 325.193 248.001 325.045 247.777C324.901 247.553 324.702 247.379 324.449 247.257C324.196 247.135 323.912 247.074 323.597 247.074C323.261 247.074 322.969 247.143 322.719 247.283C322.472 247.419 322.28 247.611 322.143 247.858C322.01 248.105 321.943 248.395 321.943 248.727H320.938C320.938 248.216 321.055 247.767 321.291 247.381C321.527 246.994 321.848 246.693 322.254 246.477C322.663 246.261 323.122 246.153 323.631 246.153C324.142 246.153 324.595 246.261 324.99 246.477C325.385 246.693 325.695 246.984 325.919 247.351C326.143 247.717 326.256 248.125 326.256 248.574C326.256 248.895 326.197 249.209 326.081 249.516C325.967 249.82 325.768 250.159 325.484 250.534C325.203 250.906 324.812 251.361 324.312 251.898L322.352 253.994V254.062H326.409V255H320.903ZM328.186 257.455V248.455H329.158V249.494H329.277C329.351 249.381 329.453 249.236 329.584 249.06C329.717 248.881 329.908 248.722 330.155 248.582C330.405 248.44 330.743 248.369 331.169 248.369C331.72 248.369 332.206 248.507 332.626 248.783C333.047 249.058 333.375 249.449 333.611 249.955C333.847 250.46 333.964 251.057 333.964 251.744C333.964 252.438 333.847 253.038 333.611 253.547C333.375 254.053 333.048 254.445 332.631 254.723C332.213 254.999 331.732 255.136 331.186 255.136C330.766 255.136 330.429 255.067 330.176 254.928C329.923 254.786 329.729 254.625 329.592 254.446C329.456 254.264 329.351 254.114 329.277 253.994H329.192V257.455H328.186ZM329.175 251.727C329.175 252.222 329.247 252.658 329.392 253.036C329.537 253.411 329.749 253.705 330.027 253.918C330.305 254.128 330.646 254.233 331.05 254.233C331.47 254.233 331.821 254.122 332.102 253.901C332.386 253.676 332.599 253.375 332.741 252.997C332.886 252.616 332.959 252.193 332.959 251.727C332.959 251.267 332.888 250.852 332.746 250.483C332.607 250.111 332.395 249.817 332.111 249.601C331.83 249.382 331.476 249.273 331.05 249.273C330.641 249.273 330.297 249.376 330.018 249.584C329.74 249.788 329.53 250.075 329.388 250.445C329.246 250.811 329.175 251.239 329.175 251.727ZM335.979 248.455L337.547 251.131L339.115 248.455H340.275L338.161 251.727L340.275 255H339.115L337.547 252.46L335.979 255H334.82L336.9 251.727L334.82 248.455H335.979ZM347.931 248.455V249.307H344.539V248.455H347.931ZM345.528 246.886H346.533V253.125C346.533 253.409 346.575 253.622 346.657 253.764C346.742 253.903 346.85 253.997 346.981 254.045C347.114 254.091 347.255 254.114 347.403 254.114C347.513 254.114 347.604 254.108 347.675 254.097C347.746 254.082 347.803 254.071 347.846 254.062L348.05 254.966C347.982 254.991 347.887 255.017 347.765 255.043C347.643 255.071 347.488 255.085 347.3 255.085C347.016 255.085 346.738 255.024 346.465 254.902C346.195 254.78 345.971 254.594 345.792 254.344C345.616 254.094 345.528 253.778 345.528 253.398V246.886ZM350.59 251.062V255H349.585V246.273H350.59V249.477H350.675C350.829 249.139 351.059 248.871 351.366 248.672C351.675 248.47 352.087 248.369 352.602 248.369C353.048 248.369 353.438 248.459 353.773 248.638C354.109 248.814 354.369 249.085 354.553 249.452C354.741 249.815 354.835 250.278 354.835 250.841V255H353.829V250.909C353.829 250.389 353.694 249.987 353.424 249.703C353.157 249.416 352.786 249.273 352.312 249.273C351.982 249.273 351.687 249.342 351.425 249.482C351.167 249.621 350.962 249.824 350.812 250.091C350.664 250.358 350.59 250.682 350.59 251.062ZM356.674 255V248.455H357.68V255H356.674ZM357.186 247.364C356.99 247.364 356.821 247.297 356.679 247.163C356.539 247.03 356.47 246.869 356.47 246.682C356.47 246.494 356.539 246.334 356.679 246.2C356.821 246.067 356.99 246 357.186 246C357.382 246 357.549 246.067 357.689 246.2C357.831 246.334 357.902 246.494 357.902 246.682C357.902 246.869 357.831 247.03 357.689 247.163C357.549 247.297 357.382 247.364 357.186 247.364ZM362.181 255.136C361.567 255.136 361.039 254.991 360.596 254.702C360.153 254.412 359.812 254.013 359.573 253.504C359.335 252.996 359.215 252.415 359.215 251.761C359.215 251.097 359.337 250.51 359.582 250.001C359.829 249.49 360.173 249.091 360.613 248.804C361.056 248.514 361.573 248.369 362.164 248.369C362.624 248.369 363.039 248.455 363.408 248.625C363.778 248.795 364.08 249.034 364.316 249.341C364.552 249.648 364.698 250.006 364.755 250.415H363.749C363.673 250.116 363.502 249.852 363.238 249.622C362.977 249.389 362.624 249.273 362.181 249.273C361.789 249.273 361.445 249.375 361.15 249.58C360.857 249.781 360.629 250.067 360.464 250.436C360.302 250.803 360.221 251.233 360.221 251.727C360.221 252.233 360.3 252.673 360.46 253.048C360.621 253.423 360.849 253.714 361.141 253.922C361.437 254.129 361.783 254.233 362.181 254.233C362.442 254.233 362.68 254.188 362.893 254.097C363.106 254.006 363.286 253.875 363.434 253.705C363.582 253.534 363.687 253.33 363.749 253.091H364.755C364.698 253.477 364.558 253.825 364.333 254.135C364.112 254.442 363.817 254.686 363.451 254.868C363.087 255.047 362.664 255.136 362.181 255.136ZM367.163 252.614L367.146 251.369H367.35L370.214 248.455H371.458L368.407 251.54H368.322L367.163 252.614ZM366.225 255V246.273H367.231V255H366.225ZM370.384 255L367.827 251.761L368.543 251.062L371.663 255H370.384ZM377.133 246.273V255H376.127V246.273H377.133ZM378.975 255V248.455H379.981V255H378.975ZM379.487 247.364C379.29 247.364 379.121 247.297 378.979 247.163C378.84 247.03 378.771 246.869 378.771 246.682C378.771 246.494 378.84 246.334 378.979 246.2C379.121 246.067 379.29 246 379.487 246C379.683 246 379.85 246.067 379.989 246.2C380.131 246.334 380.202 246.494 380.202 246.682C380.202 246.869 380.131 247.03 379.989 247.163C379.85 247.297 379.683 247.364 379.487 247.364ZM382.828 251.062V255H381.823V248.455H382.794V249.477H382.88C383.033 249.145 383.266 248.878 383.578 248.676C383.891 248.472 384.294 248.369 384.789 248.369C385.232 248.369 385.62 248.46 385.952 248.642C386.284 248.821 386.543 249.094 386.728 249.46C386.912 249.824 387.005 250.284 387.005 250.841V255H385.999V250.909C385.999 250.395 385.865 249.994 385.598 249.707C385.331 249.418 384.965 249.273 384.499 249.273C384.178 249.273 383.891 249.342 383.638 249.482C383.388 249.621 383.191 249.824 383.046 250.091C382.901 250.358 382.828 250.682 382.828 251.062ZM391.587 255.136C390.956 255.136 390.412 254.997 389.955 254.719C389.5 254.438 389.149 254.045 388.902 253.543C388.658 253.037 388.536 252.449 388.536 251.778C388.536 251.108 388.658 250.517 388.902 250.006C389.149 249.491 389.493 249.091 389.933 248.804C390.376 248.514 390.893 248.369 391.484 248.369C391.825 248.369 392.162 248.426 392.494 248.54C392.827 248.653 393.129 248.838 393.402 249.094C393.675 249.347 393.892 249.682 394.054 250.099C394.216 250.517 394.297 251.031 394.297 251.642V252.068H389.251V251.199H393.274C393.274 250.83 393.2 250.5 393.053 250.21C392.908 249.92 392.7 249.692 392.43 249.524C392.163 249.357 391.848 249.273 391.484 249.273C391.084 249.273 390.737 249.372 390.445 249.571C390.155 249.767 389.932 250.023 389.776 250.338C389.619 250.653 389.541 250.991 389.541 251.352V251.932C389.541 252.426 389.626 252.845 389.797 253.189C389.97 253.53 390.21 253.79 390.517 253.969C390.824 254.145 391.18 254.233 391.587 254.233C391.851 254.233 392.089 254.196 392.303 254.122C392.518 254.045 392.705 253.932 392.861 253.781C393.017 253.628 393.138 253.437 393.223 253.21L394.195 253.483C394.092 253.812 393.92 254.102 393.679 254.352C393.438 254.599 393.139 254.793 392.784 254.932C392.429 255.068 392.03 255.136 391.587 255.136ZM320.903 270V269.233L323.784 266.08C324.122 265.71 324.401 265.389 324.619 265.116C324.838 264.841 325 264.582 325.105 264.341C325.213 264.097 325.267 263.841 325.267 263.574C325.267 263.267 325.193 263.001 325.045 262.777C324.901 262.553 324.702 262.379 324.449 262.257C324.196 262.135 323.912 262.074 323.597 262.074C323.261 262.074 322.969 262.143 322.719 262.283C322.472 262.419 322.28 262.611 322.143 262.858C322.01 263.105 321.943 263.395 321.943 263.727H320.938C320.938 263.216 321.055 262.767 321.291 262.381C321.527 261.994 321.848 261.693 322.254 261.477C322.663 261.261 323.122 261.153 323.631 261.153C324.142 261.153 324.595 261.261 324.99 261.477C325.385 261.693 325.695 261.984 325.919 262.351C326.143 262.717 326.256 263.125 326.256 263.574C326.256 263.895 326.197 264.209 326.081 264.516C325.967 264.82 325.768 265.159 325.484 265.534C325.203 265.906 324.812 266.361 324.312 266.898L322.352 268.994V269.062H326.409V270H320.903ZM334.408 263.455V264.307H331.016V263.455H334.408ZM332.004 261.886H333.01V268.125C333.01 268.409 333.051 268.622 333.134 268.764C333.219 268.903 333.327 268.997 333.457 269.045C333.591 269.091 333.732 269.114 333.879 269.114C333.99 269.114 334.081 269.108 334.152 269.097C334.223 269.082 334.28 269.071 334.322 269.062L334.527 269.966C334.459 269.991 334.364 270.017 334.241 270.043C334.119 270.071 333.964 270.085 333.777 270.085C333.493 270.085 333.214 270.024 332.942 269.902C332.672 269.78 332.447 269.594 332.268 269.344C332.092 269.094 332.004 268.778 332.004 268.398V261.886ZM335.92 270V263.455H336.892V264.443H336.96C337.08 264.119 337.295 263.857 337.608 263.655C337.92 263.453 338.273 263.352 338.665 263.352C338.739 263.352 338.831 263.354 338.942 263.357C339.053 263.359 339.136 263.364 339.193 263.369V264.392C339.159 264.384 339.081 264.371 338.959 264.354C338.839 264.334 338.713 264.324 338.58 264.324C338.261 264.324 337.977 264.391 337.727 264.524C337.48 264.655 337.284 264.837 337.139 265.07C336.997 265.3 336.926 265.562 336.926 265.858V270H335.92ZM340.385 270V263.455H341.391V270H340.385ZM340.897 262.364C340.701 262.364 340.532 262.297 340.39 262.163C340.25 262.03 340.181 261.869 340.181 261.682C340.181 261.494 340.25 261.334 340.39 261.2C340.532 261.067 340.701 261 340.897 261C341.093 261 341.26 261.067 341.4 261.2C341.542 261.334 341.613 261.494 341.613 261.682C341.613 261.869 341.542 262.03 341.4 262.163C341.26 262.297 341.093 262.364 340.897 262.364ZM345.159 270.153C344.744 270.153 344.368 270.075 344.03 269.919C343.692 269.76 343.423 269.531 343.224 269.233C343.026 268.932 342.926 268.568 342.926 268.142C342.926 267.767 343 267.463 343.148 267.23C343.295 266.994 343.493 266.81 343.74 266.676C343.987 266.543 344.26 266.443 344.558 266.378C344.859 266.31 345.162 266.256 345.466 266.216C345.864 266.165 346.186 266.126 346.433 266.101C346.683 266.072 346.865 266.026 346.979 265.96C347.095 265.895 347.153 265.781 347.153 265.619V265.585C347.153 265.165 347.038 264.838 346.808 264.605C346.581 264.372 346.236 264.256 345.773 264.256C345.293 264.256 344.916 264.361 344.643 264.571C344.371 264.781 344.179 265.006 344.068 265.244L343.114 264.903C343.284 264.506 343.511 264.196 343.795 263.974C344.082 263.75 344.395 263.594 344.733 263.506C345.074 263.415 345.409 263.369 345.739 263.369C345.949 263.369 346.19 263.395 346.463 263.446C346.739 263.494 347.004 263.595 347.26 263.749C347.518 263.902 347.733 264.134 347.903 264.443C348.074 264.753 348.159 265.168 348.159 265.688V270H347.153V269.114H347.102C347.034 269.256 346.92 269.408 346.761 269.57C346.602 269.732 346.391 269.869 346.126 269.983C345.862 270.097 345.54 270.153 345.159 270.153ZM345.312 269.25C345.71 269.25 346.045 269.172 346.318 269.016C346.594 268.859 346.801 268.658 346.94 268.411C347.082 268.163 347.153 267.903 347.153 267.631V266.71C347.111 266.761 347.017 266.808 346.872 266.851C346.73 266.891 346.565 266.926 346.378 266.957C346.193 266.986 346.013 267.011 345.837 267.034C345.663 267.054 345.523 267.071 345.415 267.085C345.153 267.119 344.909 267.175 344.682 267.251C344.457 267.325 344.276 267.437 344.136 267.588C344 267.736 343.932 267.937 343.932 268.193C343.932 268.543 344.061 268.807 344.32 268.986C344.581 269.162 344.912 269.25 345.312 269.25ZM351 266.062V270H349.995V263.455H350.966V264.477H351.051C351.205 264.145 351.438 263.878 351.75 263.676C352.063 263.472 352.466 263.369 352.961 263.369C353.404 263.369 353.792 263.46 354.124 263.642C354.456 263.821 354.715 264.094 354.9 264.46C355.084 264.824 355.176 265.284 355.176 265.841V270H354.171V265.909C354.171 265.395 354.037 264.994 353.77 264.707C353.503 264.418 353.137 264.273 352.671 264.273C352.35 264.273 352.063 264.342 351.81 264.482C351.56 264.621 351.363 264.824 351.218 265.091C351.073 265.358 351 265.682 351 266.062ZM359.656 272.591C359.17 272.591 358.753 272.528 358.403 272.403C358.054 272.281 357.763 272.119 357.53 271.918C357.3 271.719 357.116 271.506 356.98 271.278L357.781 270.716C357.872 270.835 357.987 270.972 358.126 271.125C358.266 271.281 358.456 271.416 358.697 271.53C358.942 271.646 359.261 271.705 359.656 271.705C360.185 271.705 360.621 271.577 360.964 271.321C361.308 271.065 361.48 270.665 361.48 270.119V268.79H361.395C361.321 268.909 361.216 269.057 361.08 269.233C360.946 269.406 360.753 269.561 360.5 269.697C360.25 269.831 359.912 269.898 359.486 269.898C358.957 269.898 358.483 269.773 358.062 269.523C357.645 269.273 357.314 268.909 357.07 268.432C356.828 267.955 356.707 267.375 356.707 266.693C356.707 266.023 356.825 265.439 357.061 264.942C357.297 264.442 357.625 264.055 358.045 263.783C358.466 263.507 358.952 263.369 359.503 263.369C359.929 263.369 360.267 263.44 360.517 263.582C360.77 263.722 360.963 263.881 361.097 264.06C361.233 264.236 361.338 264.381 361.412 264.494H361.514V263.455H362.486V270.188C362.486 270.75 362.358 271.207 362.102 271.56C361.849 271.915 361.509 272.175 361.08 272.339C360.653 272.507 360.179 272.591 359.656 272.591ZM359.622 268.994C360.026 268.994 360.366 268.902 360.645 268.717C360.923 268.533 361.135 268.267 361.28 267.92C361.425 267.574 361.497 267.159 361.497 266.676C361.497 266.205 361.426 265.788 361.284 265.428C361.142 265.067 360.932 264.784 360.653 264.58C360.375 264.375 360.031 264.273 359.622 264.273C359.196 264.273 358.841 264.381 358.557 264.597C358.276 264.812 358.064 265.102 357.922 265.466C357.783 265.83 357.713 266.233 357.713 266.676C357.713 267.131 357.784 267.533 357.926 267.882C358.071 268.229 358.284 268.501 358.565 268.7C358.849 268.896 359.202 268.994 359.622 268.994ZM365.332 261.273V270H364.327V261.273H365.332ZM369.919 270.136C369.288 270.136 368.744 269.997 368.287 269.719C367.832 269.438 367.481 269.045 367.234 268.543C366.99 268.037 366.868 267.449 366.868 266.778C366.868 266.108 366.99 265.517 367.234 265.006C367.481 264.491 367.825 264.091 368.265 263.804C368.708 263.514 369.225 263.369 369.816 263.369C370.157 263.369 370.494 263.426 370.826 263.54C371.159 263.653 371.461 263.838 371.734 264.094C372.007 264.347 372.224 264.682 372.386 265.099C372.548 265.517 372.629 266.031 372.629 266.642V267.068H367.583V266.199H371.606C371.606 265.83 371.532 265.5 371.385 265.21C371.24 264.92 371.032 264.692 370.762 264.524C370.495 264.357 370.18 264.273 369.816 264.273C369.416 264.273 369.069 264.372 368.777 264.571C368.487 264.767 368.264 265.023 368.108 265.338C367.951 265.653 367.873 265.991 367.873 266.352V266.932C367.873 267.426 367.958 267.845 368.129 268.189C368.302 268.53 368.542 268.79 368.849 268.969C369.156 269.145 369.512 269.233 369.919 269.233C370.183 269.233 370.422 269.196 370.635 269.122C370.85 269.045 371.037 268.932 371.193 268.781C371.349 268.628 371.47 268.437 371.555 268.21L372.527 268.483C372.424 268.812 372.252 269.102 372.011 269.352C371.77 269.599 371.471 269.793 371.116 269.932C370.761 270.068 370.362 270.136 369.919 270.136ZM378.795 264.92L377.892 265.176C377.835 265.026 377.751 264.879 377.64 264.737C377.532 264.592 377.385 264.473 377.197 264.379C377.01 264.286 376.77 264.239 376.477 264.239C376.076 264.239 375.743 264.331 375.475 264.516C375.211 264.697 375.079 264.929 375.079 265.21C375.079 265.46 375.17 265.658 375.352 265.803C375.534 265.947 375.818 266.068 376.204 266.165L377.176 266.403C377.761 266.545 378.197 266.763 378.484 267.055C378.771 267.345 378.914 267.719 378.914 268.176C378.914 268.551 378.806 268.886 378.591 269.182C378.377 269.477 378.079 269.71 377.696 269.881C377.312 270.051 376.866 270.136 376.358 270.136C375.69 270.136 375.137 269.991 374.7 269.702C374.262 269.412 373.985 268.989 373.869 268.432L374.824 268.193C374.914 268.545 375.086 268.81 375.339 268.986C375.595 269.162 375.929 269.25 376.341 269.25C376.809 269.25 377.181 269.151 377.457 268.952C377.735 268.75 377.875 268.509 377.875 268.227C377.875 268 377.795 267.81 377.636 267.656C377.477 267.5 377.233 267.384 376.903 267.307L375.812 267.051C375.213 266.909 374.772 266.689 374.491 266.391C374.213 266.089 374.074 265.713 374.074 265.261C374.074 264.892 374.177 264.565 374.385 264.281C374.595 263.997 374.88 263.774 375.241 263.612C375.605 263.45 376.017 263.369 376.477 263.369C377.125 263.369 377.633 263.511 378.002 263.795C378.375 264.08 378.639 264.455 378.795 264.92Z" fill="black"/>
<path d="M137.415 240H136.307L139.511 231.273H140.602L143.807 240H142.699L140.091 232.653H140.023L137.415 240ZM137.824 236.591H142.29V237.528H137.824V236.591Z" fill="#FF003C"/>
<path d="M206.415 222H205.307L208.511 213.273H209.602L212.807 222H211.699L209.091 214.653H209.023L206.415 222ZM206.824 218.591H211.29V219.528H206.824V218.591Z" fill="#FF003C"/>
<path d="M526.903 255V254.233L529.784 251.08C530.122 250.71 530.401 250.389 530.619 250.116C530.838 249.841 531 249.582 531.105 249.341C531.213 249.097 531.267 248.841 531.267 248.574C531.267 248.267 531.193 248.001 531.045 247.777C530.901 247.553 530.702 247.379 530.449 247.257C530.196 247.135 529.912 247.074 529.597 247.074C529.261 247.074 528.969 247.143 528.719 247.283C528.472 247.419 528.28 247.611 528.143 247.858C528.01 248.105 527.943 248.395 527.943 248.727H526.938C526.938 248.216 527.055 247.767 527.291 247.381C527.527 246.994 527.848 246.693 528.254 246.477C528.663 246.261 529.122 246.153 529.631 246.153C530.142 246.153 530.595 246.261 530.99 246.477C531.385 246.693 531.695 246.984 531.919 247.351C532.143 247.717 532.256 248.125 532.256 248.574C532.256 248.895 532.197 249.209 532.081 249.516C531.967 249.82 531.768 250.159 531.484 250.534C531.203 250.906 530.812 251.361 530.312 251.898L528.352 253.994V254.062H532.409V255H526.903ZM534.919 255.068C534.709 255.068 534.528 254.993 534.378 254.842C534.227 254.692 534.152 254.511 534.152 254.301C534.152 254.091 534.227 253.911 534.378 253.76C534.528 253.609 534.709 253.534 534.919 253.534C535.129 253.534 535.31 253.609 535.46 253.76C535.611 253.911 535.686 254.091 535.686 254.301C535.686 254.44 535.651 254.568 535.58 254.685C535.511 254.801 535.419 254.895 535.303 254.966C535.189 255.034 535.061 255.068 534.919 255.068ZM540.094 255.119C539.532 255.119 539.031 255.023 538.59 254.83C538.153 254.636 537.805 254.368 537.546 254.024C537.29 253.678 537.151 253.276 537.129 252.818H538.202C538.225 253.099 538.322 253.342 538.492 253.547C538.663 253.749 538.886 253.905 539.161 254.016C539.437 254.126 539.742 254.182 540.077 254.182C540.452 254.182 540.785 254.116 541.075 253.986C541.364 253.855 541.592 253.673 541.756 253.44C541.921 253.207 542.004 252.938 542.004 252.631C542.004 252.31 541.924 252.027 541.765 251.783C541.606 251.536 541.373 251.342 541.066 251.203C540.759 251.064 540.384 250.994 539.941 250.994H539.242V250.057H539.941C540.288 250.057 540.592 249.994 540.853 249.869C541.117 249.744 541.323 249.568 541.471 249.341C541.621 249.114 541.697 248.847 541.697 248.54C541.697 248.244 541.631 247.987 541.501 247.768C541.37 247.55 541.185 247.379 540.947 247.257C540.711 247.135 540.433 247.074 540.112 247.074C539.81 247.074 539.526 247.129 539.259 247.24C538.995 247.348 538.779 247.506 538.612 247.713C538.444 247.918 538.353 248.165 538.339 248.455H537.316C537.333 247.997 537.471 247.597 537.729 247.253C537.988 246.906 538.326 246.636 538.744 246.443C539.164 246.25 539.626 246.153 540.129 246.153C540.668 246.153 541.131 246.263 541.518 246.482C541.904 246.697 542.201 246.983 542.408 247.338C542.616 247.693 542.719 248.077 542.719 248.489C542.719 248.98 542.59 249.399 542.332 249.746C542.076 250.092 541.728 250.332 541.288 250.466V250.534C541.839 250.625 542.269 250.859 542.579 251.237C542.888 251.612 543.043 252.077 543.043 252.631C543.043 253.105 542.914 253.531 542.656 253.909C542.4 254.284 542.05 254.58 541.607 254.795C541.164 255.011 540.66 255.119 540.094 255.119ZM544.803 257.455V248.455H545.775V249.494H545.894C545.968 249.381 546.07 249.236 546.201 249.06C546.335 248.881 546.525 248.722 546.772 248.582C547.022 248.44 547.36 248.369 547.786 248.369C548.337 248.369 548.823 248.507 549.244 248.783C549.664 249.058 549.992 249.449 550.228 249.955C550.464 250.46 550.582 251.057 550.582 251.744C550.582 252.438 550.464 253.038 550.228 253.547C549.992 254.053 549.665 254.445 549.248 254.723C548.83 254.999 548.349 255.136 547.803 255.136C547.383 255.136 547.046 255.067 546.793 254.928C546.54 254.786 546.346 254.625 546.21 254.446C546.073 254.264 545.968 254.114 545.894 253.994H545.809V257.455H544.803ZM545.792 251.727C545.792 252.222 545.864 252.658 546.009 253.036C546.154 253.411 546.366 253.705 546.644 253.918C546.923 254.128 547.263 254.233 547.667 254.233C548.087 254.233 548.438 254.122 548.719 253.901C549.004 253.676 549.217 253.375 549.359 252.997C549.504 252.616 549.576 252.193 549.576 251.727C549.576 251.267 549.505 250.852 549.363 250.483C549.224 250.111 549.012 249.817 548.728 249.601C548.447 249.382 548.093 249.273 547.667 249.273C547.258 249.273 546.914 249.376 546.636 249.584C546.357 249.788 546.147 250.075 546.005 250.445C545.863 250.811 545.792 251.239 545.792 251.727ZM552.596 248.455L554.164 251.131L555.733 248.455H556.892L554.778 251.727L556.892 255H555.733L554.164 252.46L552.596 255H551.437L553.517 251.727L551.437 248.455H552.596ZM564.548 248.455V249.307H561.156V248.455H564.548ZM562.145 246.886H563.151V253.125C563.151 253.409 563.192 253.622 563.274 253.764C563.359 253.903 563.467 253.997 563.598 254.045C563.732 254.091 563.872 254.114 564.02 254.114C564.131 254.114 564.222 254.108 564.293 254.097C564.364 254.082 564.42 254.071 564.463 254.062L564.668 254.966C564.599 254.991 564.504 255.017 564.382 255.043C564.26 255.071 564.105 255.085 563.918 255.085C563.634 255.085 563.355 255.024 563.082 254.902C562.813 254.78 562.588 254.594 562.409 254.344C562.233 254.094 562.145 253.778 562.145 253.398V246.886ZM567.207 251.062V255H566.202V246.273H567.207V249.477H567.293C567.446 249.139 567.676 248.871 567.983 248.672C568.293 248.47 568.705 248.369 569.219 248.369C569.665 248.369 570.055 248.459 570.391 248.638C570.726 248.814 570.986 249.085 571.17 249.452C571.358 249.815 571.452 250.278 571.452 250.841V255H570.446V250.909C570.446 250.389 570.311 249.987 570.041 249.703C569.774 249.416 569.403 249.273 568.929 249.273C568.599 249.273 568.304 249.342 568.043 249.482C567.784 249.621 567.58 249.824 567.429 250.091C567.281 250.358 567.207 250.682 567.207 251.062ZM573.292 255V248.455H574.297V255H573.292ZM573.803 247.364C573.607 247.364 573.438 247.297 573.296 247.163C573.157 247.03 573.087 246.869 573.087 246.682C573.087 246.494 573.157 246.334 573.296 246.2C573.438 246.067 573.607 246 573.803 246C573.999 246 574.167 246.067 574.306 246.2C574.448 246.334 574.519 246.494 574.519 246.682C574.519 246.869 574.448 247.03 574.306 247.163C574.167 247.297 573.999 247.364 573.803 247.364ZM578.798 255.136C578.185 255.136 577.656 254.991 577.213 254.702C576.77 254.412 576.429 254.013 576.19 253.504C575.952 252.996 575.832 252.415 575.832 251.761C575.832 251.097 575.955 250.51 576.199 250.001C576.446 249.49 576.79 249.091 577.23 248.804C577.673 248.514 578.19 248.369 578.781 248.369C579.241 248.369 579.656 248.455 580.026 248.625C580.395 248.795 580.697 249.034 580.933 249.341C581.169 249.648 581.315 250.006 581.372 250.415H580.366C580.29 250.116 580.119 249.852 579.855 249.622C579.594 249.389 579.241 249.273 578.798 249.273C578.406 249.273 578.063 249.375 577.767 249.58C577.474 249.781 577.246 250.067 577.081 250.436C576.919 250.803 576.838 251.233 576.838 251.727C576.838 252.233 576.918 252.673 577.077 253.048C577.239 253.423 577.466 253.714 577.759 253.922C578.054 254.129 578.401 254.233 578.798 254.233C579.06 254.233 579.297 254.188 579.51 254.097C579.723 254.006 579.903 253.875 580.051 253.705C580.199 253.534 580.304 253.33 580.366 253.091H581.372C581.315 253.477 581.175 253.825 580.95 254.135C580.729 254.442 580.435 254.686 580.068 254.868C579.705 255.047 579.281 255.136 578.798 255.136ZM583.78 252.614L583.763 251.369H583.967L586.831 248.455H588.075L585.024 251.54H584.939L583.78 252.614ZM582.842 255V246.273H583.848V255H582.842ZM587.001 255L584.445 251.761L585.161 251.062L588.28 255H587.001ZM593.75 246.273V255H592.745V246.273H593.75ZM595.592 255V248.455H596.598V255H595.592ZM596.104 247.364C595.908 247.364 595.739 247.297 595.597 247.163C595.457 247.03 595.388 246.869 595.388 246.682C595.388 246.494 595.457 246.334 595.597 246.2C595.739 246.067 595.908 246 596.104 246C596.3 246 596.467 246.067 596.607 246.2C596.749 246.334 596.82 246.494 596.82 246.682C596.82 246.869 596.749 247.03 596.607 247.163C596.467 247.297 596.3 247.364 596.104 247.364ZM599.446 251.062V255H598.44V248.455H599.412V249.477H599.497C599.65 249.145 599.883 248.878 600.196 248.676C600.508 248.472 600.912 248.369 601.406 248.369C601.849 248.369 602.237 248.46 602.569 248.642C602.902 248.821 603.16 249.094 603.345 249.46C603.529 249.824 603.622 250.284 603.622 250.841V255H602.616V250.909C602.616 250.395 602.483 249.994 602.216 249.707C601.949 249.418 601.582 249.273 601.116 249.273C600.795 249.273 600.508 249.342 600.255 249.482C600.005 249.621 599.808 249.824 599.663 250.091C599.518 250.358 599.446 250.682 599.446 251.062ZM608.204 255.136C607.573 255.136 607.029 254.997 606.572 254.719C606.117 254.438 605.766 254.045 605.519 253.543C605.275 253.037 605.153 252.449 605.153 251.778C605.153 251.108 605.275 250.517 605.519 250.006C605.766 249.491 606.11 249.091 606.55 248.804C606.994 248.514 607.511 248.369 608.102 248.369C608.442 248.369 608.779 248.426 609.112 248.54C609.444 248.653 609.746 248.838 610.019 249.094C610.292 249.347 610.509 249.682 610.671 250.099C610.833 250.517 610.914 251.031 610.914 251.642V252.068H605.869V251.199H609.891C609.891 250.83 609.817 250.5 609.67 250.21C609.525 249.92 609.317 249.692 609.048 249.524C608.781 249.357 608.465 249.273 608.102 249.273C607.701 249.273 607.354 249.372 607.062 249.571C606.772 249.767 606.549 250.023 606.393 250.338C606.237 250.653 606.158 250.991 606.158 251.352V251.932C606.158 252.426 606.244 252.845 606.414 253.189C606.587 253.53 606.827 253.79 607.134 253.969C607.441 254.145 607.798 254.233 608.204 254.233C608.468 254.233 608.707 254.196 608.92 254.122C609.136 254.045 609.322 253.932 609.478 253.781C609.634 253.628 609.755 253.437 609.84 253.21L610.812 253.483C610.71 253.812 610.538 254.102 610.296 254.352C610.055 254.599 609.756 254.793 609.401 254.932C609.046 255.068 608.647 255.136 608.204 255.136ZM526.699 268.21V267.341L530.534 261.273H531.165V262.619H530.739L527.841 267.205V267.273H533.006V268.21H526.699ZM530.807 270V267.946V267.541V261.273H531.812V270H530.807ZM540.841 263.455V264.307H537.449V263.455H540.841ZM538.438 261.886H539.444V268.125C539.444 268.409 539.485 268.622 539.567 268.764C539.652 268.903 539.76 268.997 539.891 269.045C540.025 269.091 540.165 269.114 540.313 269.114C540.424 269.114 540.515 269.108 540.586 269.097C540.657 269.082 540.713 269.071 540.756 269.062L540.961 269.966C540.892 269.991 540.797 270.017 540.675 270.043C540.553 270.071 540.398 270.085 540.211 270.085C539.926 270.085 539.648 270.024 539.375 269.902C539.105 269.78 538.881 269.594 538.702 269.344C538.526 269.094 538.438 268.778 538.438 268.398V261.886ZM542.354 270V263.455H543.326V264.443H543.394C543.513 264.119 543.729 263.857 544.042 263.655C544.354 263.453 544.706 263.352 545.098 263.352C545.172 263.352 545.265 263.354 545.375 263.357C545.486 263.359 545.57 263.364 545.627 263.369V264.392C545.593 264.384 545.515 264.371 545.392 264.354C545.273 264.334 545.147 264.324 545.013 264.324C544.695 264.324 544.411 264.391 544.161 264.524C543.914 264.655 543.718 264.837 543.573 265.07C543.431 265.3 543.36 265.562 543.36 265.858V270H542.354ZM546.819 270V263.455H547.825V270H546.819ZM547.33 262.364C547.134 262.364 546.965 262.297 546.823 262.163C546.684 262.03 546.614 261.869 546.614 261.682C546.614 261.494 546.684 261.334 546.823 261.2C546.965 261.067 547.134 261 547.33 261C547.526 261 547.694 261.067 547.833 261.2C547.975 261.334 548.046 261.494 548.046 261.682C548.046 261.869 547.975 262.03 547.833 262.163C547.694 262.297 547.526 262.364 547.33 262.364ZM551.593 270.153C551.178 270.153 550.801 270.075 550.463 269.919C550.125 269.76 549.857 269.531 549.658 269.233C549.459 268.932 549.36 268.568 549.36 268.142C549.36 267.767 549.434 267.463 549.581 267.23C549.729 266.994 549.926 266.81 550.174 266.676C550.421 266.543 550.694 266.443 550.992 266.378C551.293 266.31 551.596 266.256 551.9 266.216C552.297 266.165 552.62 266.126 552.867 266.101C553.117 266.072 553.299 266.026 553.412 265.96C553.529 265.895 553.587 265.781 553.587 265.619V265.585C553.587 265.165 553.472 264.838 553.242 264.605C553.015 264.372 552.669 264.256 552.206 264.256C551.726 264.256 551.35 264.361 551.077 264.571C550.804 264.781 550.613 265.006 550.502 265.244L549.547 264.903C549.718 264.506 549.945 264.196 550.229 263.974C550.516 263.75 550.828 263.594 551.167 263.506C551.507 263.415 551.843 263.369 552.172 263.369C552.382 263.369 552.624 263.395 552.897 263.446C553.172 263.494 553.438 263.595 553.694 263.749C553.952 263.902 554.167 264.134 554.337 264.443C554.507 264.753 554.593 265.168 554.593 265.688V270H553.587V269.114H553.536C553.468 269.256 553.354 269.408 553.195 269.57C553.036 269.732 552.824 269.869 552.56 269.983C552.296 270.097 551.973 270.153 551.593 270.153ZM551.746 269.25C552.144 269.25 552.479 269.172 552.752 269.016C553.027 268.859 553.235 268.658 553.374 268.411C553.516 268.163 553.587 267.903 553.587 267.631V266.71C553.544 266.761 553.451 266.808 553.306 266.851C553.164 266.891 552.999 266.926 552.811 266.957C552.627 266.986 552.446 267.011 552.27 267.034C552.097 267.054 551.956 267.071 551.848 267.085C551.587 267.119 551.343 267.175 551.115 267.251C550.891 267.325 550.709 267.437 550.57 267.588C550.434 267.736 550.365 267.937 550.365 268.193C550.365 268.543 550.495 268.807 550.753 268.986C551.015 269.162 551.346 269.25 551.746 269.25ZM557.434 266.062V270H556.428V263.455H557.4V264.477H557.485C557.638 264.145 557.871 263.878 558.184 263.676C558.496 263.472 558.9 263.369 559.394 263.369C559.837 263.369 560.225 263.46 560.558 263.642C560.89 263.821 561.148 264.094 561.333 264.46C561.518 264.824 561.61 265.284 561.61 265.841V270H560.604V265.909C560.604 265.395 560.471 264.994 560.204 264.707C559.937 264.418 559.57 264.273 559.104 264.273C558.783 264.273 558.496 264.342 558.244 264.482C557.994 264.621 557.796 264.824 557.651 265.091C557.506 265.358 557.434 265.682 557.434 266.062ZM566.09 272.591C565.604 272.591 565.186 272.528 564.837 272.403C564.488 272.281 564.196 272.119 563.963 271.918C563.733 271.719 563.55 271.506 563.414 271.278L564.215 270.716C564.306 270.835 564.421 270.972 564.56 271.125C564.699 271.281 564.89 271.416 565.131 271.53C565.375 271.646 565.695 271.705 566.09 271.705C566.618 271.705 567.054 271.577 567.398 271.321C567.742 271.065 567.914 270.665 567.914 270.119V268.79H567.828C567.755 268.909 567.65 269.057 567.513 269.233C567.38 269.406 567.186 269.561 566.934 269.697C566.684 269.831 566.346 269.898 565.919 269.898C565.391 269.898 564.917 269.773 564.496 269.523C564.078 269.273 563.748 268.909 563.503 268.432C563.262 267.955 563.141 267.375 563.141 266.693C563.141 266.023 563.259 265.439 563.495 264.942C563.73 264.442 564.059 264.055 564.479 263.783C564.9 263.507 565.385 263.369 565.936 263.369C566.363 263.369 566.701 263.44 566.951 263.582C567.203 263.722 567.397 263.881 567.53 264.06C567.667 264.236 567.772 264.381 567.846 264.494H567.948V263.455H568.919V270.188C568.919 270.75 568.792 271.207 568.536 271.56C568.283 271.915 567.942 272.175 567.513 272.339C567.087 272.507 566.613 272.591 566.09 272.591ZM566.056 268.994C566.459 268.994 566.8 268.902 567.078 268.717C567.357 268.533 567.569 268.267 567.713 267.92C567.858 267.574 567.931 267.159 567.931 266.676C567.931 266.205 567.86 265.788 567.718 265.428C567.576 265.067 567.365 264.784 567.087 264.58C566.809 264.375 566.465 264.273 566.056 264.273C565.63 264.273 565.275 264.381 564.99 264.597C564.709 264.812 564.498 265.102 564.355 265.466C564.216 265.83 564.147 266.233 564.147 266.676C564.147 267.131 564.218 267.533 564.36 267.882C564.505 268.229 564.718 268.501 564.999 268.7C565.283 268.896 565.635 268.994 566.056 268.994ZM571.766 261.273V270H570.76V261.273H571.766ZM576.352 270.136C575.722 270.136 575.178 269.997 574.72 269.719C574.266 269.438 573.915 269.045 573.668 268.543C573.423 268.037 573.301 267.449 573.301 266.778C573.301 266.108 573.423 265.517 573.668 265.006C573.915 264.491 574.259 264.091 574.699 263.804C575.142 263.514 575.659 263.369 576.25 263.369C576.591 263.369 576.928 263.426 577.26 263.54C577.592 263.653 577.895 263.838 578.168 264.094C578.44 264.347 578.658 264.682 578.82 265.099C578.982 265.517 579.062 266.031 579.062 266.642V267.068H574.017V266.199H578.04C578.04 265.83 577.966 265.5 577.818 265.21C577.673 264.92 577.466 264.692 577.196 264.524C576.929 264.357 576.614 264.273 576.25 264.273C575.849 264.273 575.503 264.372 575.21 264.571C574.92 264.767 574.697 265.023 574.541 265.338C574.385 265.653 574.307 265.991 574.307 266.352V266.932C574.307 267.426 574.392 267.845 574.562 268.189C574.736 268.53 574.976 268.79 575.283 268.969C575.589 269.145 575.946 269.233 576.352 269.233C576.616 269.233 576.855 269.196 577.068 269.122C577.284 269.045 577.47 268.932 577.626 268.781C577.783 268.628 577.903 268.437 577.989 268.21L578.96 268.483C578.858 268.812 578.686 269.102 578.445 269.352C578.203 269.599 577.905 269.793 577.55 269.932C577.195 270.068 576.795 270.136 576.352 270.136ZM585.229 264.92L584.325 265.176C584.268 265.026 584.185 264.879 584.074 264.737C583.966 264.592 583.818 264.473 583.631 264.379C583.443 264.286 583.203 264.239 582.911 264.239C582.51 264.239 582.176 264.331 581.909 264.516C581.645 264.697 581.513 264.929 581.513 265.21C581.513 265.46 581.604 265.658 581.786 265.803C581.967 265.947 582.251 266.068 582.638 266.165L583.609 266.403C584.195 266.545 584.631 266.763 584.918 267.055C585.205 267.345 585.348 267.719 585.348 268.176C585.348 268.551 585.24 268.886 585.024 269.182C584.811 269.477 584.513 269.71 584.129 269.881C583.746 270.051 583.3 270.136 582.791 270.136C582.124 270.136 581.571 269.991 581.134 269.702C580.696 269.412 580.419 268.989 580.303 268.432L581.257 268.193C581.348 268.545 581.52 268.81 581.773 268.986C582.028 269.162 582.362 269.25 582.774 269.25C583.243 269.25 583.615 269.151 583.891 268.952C584.169 268.75 584.308 268.509 584.308 268.227C584.308 268 584.229 267.81 584.07 267.656C583.911 267.5 583.666 267.384 583.337 267.307L582.246 267.051C581.646 266.909 581.206 266.689 580.925 266.391C580.646 266.089 580.507 265.713 580.507 265.261C580.507 264.892 580.611 264.565 580.818 264.281C581.028 263.997 581.314 263.774 581.675 263.612C582.038 263.45 582.45 263.369 582.911 263.369C583.558 263.369 584.067 263.511 584.436 263.795C584.808 264.08 585.072 264.455 585.229 264.92Z" fill="black"/>
<path d="M139.5 83L140.5 191L160.5 58L139.5 83Z" fill="url(#paint0_linear_117_69)"/>
<path d="M80 227.5L128 239L140.5 189L120 58.5L80 227.5Z" fill="url(#paint1_linear_117_69)"/>
<path d="M140 82.5L141 192.5L120 58.5L140 82.5Z" fill="url(#paint2_linear_117_69)"/>
<path d="M140 192L152.5 240L200 227.5L160 58.5L140 192Z" fill="url(#paint3_linear_117_69)"/>
<path d="M160 58.5H120L140 84L160 58.5Z" fill="url(#paint4_linear_117_69)"/>
<path d="M104 233.5L139.578 84.5L176 233.5" stroke="black" stroke-dasharray="4 4"/>
<circle cx="140" cy="82.5" r="3" fill="black"/>
<circle cx="104" cy="233.5" r="3" fill="black"/>
<circle cx="176" cy="233.5" r="3" fill="black"/>
<path d="M139 228L205.5 210.5" stroke="#FF003C" stroke-dasharray="2 2"/>
<rect x="91.5" y="302.5" width="22" height="28" stroke="black" stroke-opacity="0.5" stroke-dasharray="2 2"/>
<line x1="102.5" y1="284" x2="102.5" y2="346" stroke="black"/>
<circle cx="315.5" cy="160.5" r="1.5" fill="black"/>
<circle cx="333.5" cy="160.5" r="1.5" fill="black"/>
<circle cx="351.5" cy="160.5" r="1.5" fill="black"/>
<circle cx="369.5" cy="160.5" r="1.5" fill="black"/>
<circle cx="522.5" cy="160.5" r="1.5" fill="black"/>
<circle cx="541.5" cy="160.5" r="1.5" fill="black"/>
<circle cx="566.5" cy="160.5" r="1.5" fill="black"/>
<circle cx="584.5" cy="160.5" r="1.5" fill="black"/>
<defs>
<linearGradient id="paint0_linear_117_69" x1="189" y1="176.5" x2="140" y2="189.5" gradientUnits="userSpaceOnUse">
<stop stop-color="white"/>
<stop offset="0.240385" stop-color="#0999C9"/>
<stop offset="0.759615" stop-color="#0999C9"/>
<stop offset="1" stop-color="#F5F5F5"/>
</linearGradient>
<linearGradient id="paint1_linear_117_69" x1="80" y1="227" x2="129" y2="239" gradientUnits="userSpaceOnUse">
<stop stop-color="white"/>
<stop offset="0.240385" stop-color="#0999C9"/>
<stop offset="0.759615" stop-color="#0999C9"/>
<stop offset="1" stop-color="#F5F5F5"/>
</linearGradient>
<linearGradient id="paint2_linear_117_69" x1="93" y1="180" x2="140" y2="190.5" gradientUnits="userSpaceOnUse">
<stop stop-color="white"/>
<stop offset="0.240385" stop-color="#0999C9"/>
<stop offset="0.759615" stop-color="#0999C9"/>
<stop offset="1" stop-color="#F5F5F5"/>
</linearGradient>
<linearGradient id="paint3_linear_117_69" x1="200" y1="228" x2="153" y2="240" gradientUnits="userSpaceOnUse">
<stop stop-color="white"/>
<stop offset="0.240385" stop-color="#0999C9"/>
<stop offset="0.759615" stop-color="#0999C9"/>
<stop offset="1" stop-color="#F5F5F5"/>
</linearGradient>
<linearGradient id="paint4_linear_117_69" x1="139.5" y1="58.5" x2="141" y2="105" gradientUnits="userSpaceOnUse">
<stop stop-color="white"/>
<stop offset="0.240385" stop-color="#0999C9"/>
<stop offset="0.759615" stop-color="#0999C9"/>
<stop offset="1" stop-color="#F5F5F5"/>
</linearGradient>
</defs>
</svg>
