<svg width="619" height="317" viewBox="0 0 619 317" fill="none" xmlns="http://www.w3.org/2000/svg">
<rect width="619" height="317" fill="white"/>
<path d="M515.5 239L78.5 211.5L72.5 156.839L419 49L515.5 239ZM298.438 156.839L400.821 163.859L383.709 130.22L298.438 156.839Z" fill="#0999C9" stroke="white" stroke-width="4"/>
<path d="M419 44L412 71L483.5 217.5L520.5 240.5L419 44Z" fill="url(#paint0_linear_115_7)"/>
<path d="M71 153.5L95.5 170L412.5 71L419.5 44L71 153.5Z" fill="url(#paint1_linear_115_7)"/>
<path d="M95.5 170.5L71 154L78 210L97.5 192L95.5 170.5Z" fill="url(#paint2_linear_115_7)"/>
<path d="M521 241L484 218L97.5 192L78 210L521 241Z" fill="url(#paint3_linear_115_7)"/>
<path d="M298 157L203 168.5L436 187L400 163L298 157Z" fill="url(#paint4_linear_115_7)"/>
<path d="M396.5 105L383 130.5L399.5 163L435.5 187L396.5 105Z" fill="url(#paint5_linear_115_7)"/>
<path d="M203 168.5L298 157L383.5 130.5L397 105L203 168.5Z" fill="url(#paint6_linear_115_7)"/>
<path d="M402.5 87L111 178L461 202L402.5 87Z" stroke="black" stroke-width="2" stroke-dasharray="4 4"/>
<path d="M503.686 230.552L87.3623 201.8L83.5361 162.151L416.215 58.6025L503.686 230.552ZM390.908 117.844L247.116 162.967L247.231 163.943L419.961 175.705L420.84 175.765L420.44 174.979L391.503 118.095L391.312 117.718L390.908 117.844Z" stroke="black"/>
<circle cx="111" cy="178" r="6" fill="black"/>
<circle cx="403" cy="87" r="6" fill="black"/>
<circle cx="462" cy="202" r="6" fill="black"/>
<path d="M289 146L291.394 134.704L280.414 138.279L289 146ZM275 103L272.606 114.296L283.586 110.721L275 103ZM286.214 137.442L287.165 137.133L278.737 111.248L277.786 111.558L276.835 111.867L285.263 137.752L286.214 137.442Z" fill="#FF003C"/>
<path d="M319 98L321.315 86.6874L310.36 90.3389L319 98ZM312 77L309.685 88.3126L320.64 84.6611L312 77ZM316.154 89.4619L317.103 89.1456L315.795 85.2219L314.846 85.5382L313.897 85.8544L315.205 89.7781L316.154 89.4619Z" fill="#FF003C"/>
<path d="M224.767 86.4545V87.3068H221.375V86.4545H224.767ZM222.364 84.8864H223.369V91.125C223.369 91.4091 223.411 91.6222 223.493 91.7642C223.578 91.9034 223.686 91.9972 223.817 92.0455C223.95 92.0909 224.091 92.1136 224.239 92.1136C224.349 92.1136 224.44 92.108 224.511 92.0966C224.582 92.0824 224.639 92.071 224.682 92.0625L224.886 92.9659C224.818 92.9915 224.723 93.017 224.601 93.0426C224.479 93.071 224.324 93.0852 224.136 93.0852C223.852 93.0852 223.574 93.0241 223.301 92.902C223.031 92.7798 222.807 92.5938 222.628 92.3438C222.452 92.0938 222.364 91.7784 222.364 91.3977V84.8864ZM227.426 89.0625V93H226.42V84.2727H227.426V87.4773H227.511C227.665 87.1392 227.895 86.8707 228.202 86.6719C228.511 86.4702 228.923 86.3693 229.438 86.3693C229.884 86.3693 230.274 86.4588 230.609 86.6378C230.945 86.8139 231.205 87.0852 231.389 87.4517C231.577 87.8153 231.67 88.2784 231.67 88.8409V93H230.665V88.9091C230.665 88.3892 230.53 87.9872 230.26 87.7031C229.993 87.4162 229.622 87.2727 229.148 87.2727C228.818 87.2727 228.523 87.3423 228.261 87.4815C228.003 87.6207 227.798 87.8239 227.648 88.0909C227.5 88.358 227.426 88.6818 227.426 89.0625ZM233.51 93V86.4545H234.516V93H233.51ZM234.022 85.3636C233.826 85.3636 233.657 85.2969 233.515 85.1634C233.375 85.0298 233.306 84.8693 233.306 84.6818C233.306 84.4943 233.375 84.3338 233.515 84.2003C233.657 84.0668 233.826 84 234.022 84C234.218 84 234.385 84.0668 234.525 84.2003C234.667 84.3338 234.738 84.4943 234.738 84.6818C234.738 84.8693 234.667 85.0298 234.525 85.1634C234.385 85.2969 234.218 85.3636 234.022 85.3636ZM239.017 93.1364C238.403 93.1364 237.875 92.9915 237.432 92.7017C236.989 92.4119 236.648 92.0128 236.409 91.5043C236.17 90.9957 236.051 90.4148 236.051 89.7614C236.051 89.0966 236.173 88.5099 236.418 88.0014C236.665 87.4901 237.009 87.0909 237.449 86.804C237.892 86.5142 238.409 86.3693 239 86.3693C239.46 86.3693 239.875 86.4545 240.244 86.625C240.614 86.7955 240.916 87.0341 241.152 87.3409C241.388 87.6477 241.534 88.0057 241.591 88.4148H240.585C240.509 88.1165 240.338 87.8523 240.074 87.6222C239.813 87.3892 239.46 87.2727 239.017 87.2727C238.625 87.2727 238.281 87.375 237.986 87.5795C237.693 87.7812 237.464 88.0668 237.3 88.4361C237.138 88.8026 237.057 89.233 237.057 89.7273C237.057 90.233 237.136 90.6733 237.295 91.0483C237.457 91.4233 237.685 91.7145 237.977 91.9219C238.273 92.1293 238.619 92.233 239.017 92.233C239.278 92.233 239.516 92.1875 239.729 92.0966C239.942 92.0057 240.122 91.875 240.27 91.7045C240.418 91.5341 240.523 91.3295 240.585 91.0909H241.591C241.534 91.4773 241.393 91.8253 241.169 92.1349C240.947 92.4418 240.653 92.6861 240.287 92.8679C239.923 93.0469 239.5 93.1364 239.017 93.1364ZM243.999 90.6136L243.982 89.3693H244.186L247.05 86.4545H248.294L245.243 89.5398H245.158L243.999 90.6136ZM243.061 93V84.2727H244.067V93H243.061ZM247.22 93L244.663 89.7614L245.379 89.0625L248.499 93H247.22ZM250.594 89.0625V93H249.588V86.4545H250.56V87.4773H250.645C250.799 87.1449 251.032 86.8778 251.344 86.6761C251.657 86.4716 252.06 86.3693 252.554 86.3693C252.998 86.3693 253.385 86.4602 253.718 86.642C254.05 86.821 254.309 87.0938 254.493 87.4602C254.678 87.8239 254.77 88.2841 254.77 88.8409V93H253.765V88.9091C253.765 88.3949 253.631 87.9943 253.364 87.7074C253.097 87.4176 252.73 87.2727 252.265 87.2727C251.944 87.2727 251.657 87.3423 251.404 87.4815C251.154 87.6207 250.956 87.8239 250.811 88.0909C250.667 88.358 250.594 88.6818 250.594 89.0625ZM259.352 93.1364C258.722 93.1364 258.178 92.9972 257.72 92.7188C257.266 92.4375 256.915 92.0455 256.668 91.5426C256.423 91.0369 256.301 90.4489 256.301 89.7784C256.301 89.108 256.423 88.517 256.668 88.0057C256.915 87.4915 257.259 87.0909 257.699 86.804C258.142 86.5142 258.659 86.3693 259.25 86.3693C259.591 86.3693 259.928 86.4261 260.26 86.5398C260.592 86.6534 260.895 86.8381 261.168 87.0938C261.44 87.3466 261.658 87.6818 261.82 88.0994C261.982 88.517 262.062 89.0312 262.062 89.642V90.0682H257.017V89.1989H261.04C261.04 88.8295 260.966 88.5 260.818 88.2102C260.673 87.9205 260.466 87.6918 260.196 87.5241C259.929 87.3565 259.614 87.2727 259.25 87.2727C258.849 87.2727 258.503 87.3722 258.21 87.571C257.92 87.767 257.697 88.0227 257.541 88.3381C257.385 88.6534 257.307 88.9915 257.307 89.3523V89.9318C257.307 90.4261 257.392 90.8452 257.562 91.1889C257.736 91.5298 257.976 91.7898 258.283 91.9688C258.589 92.1449 258.946 92.233 259.352 92.233C259.616 92.233 259.855 92.196 260.068 92.1222C260.284 92.0455 260.47 91.9318 260.626 91.7812C260.783 91.6278 260.903 91.4375 260.989 91.2102L261.96 91.483C261.858 91.8125 261.686 92.1023 261.445 92.3523C261.203 92.5994 260.905 92.7926 260.55 92.9318C260.195 93.0682 259.795 93.1364 259.352 93.1364ZM268.229 87.9205L267.325 88.1761C267.268 88.0256 267.185 87.8793 267.074 87.7372C266.966 87.5923 266.818 87.473 266.631 87.3793C266.443 87.2855 266.203 87.2386 265.911 87.2386C265.51 87.2386 265.176 87.331 264.909 87.5156C264.645 87.6974 264.513 87.929 264.513 88.2102C264.513 88.4602 264.604 88.6577 264.786 88.8026C264.967 88.9474 265.251 89.0682 265.638 89.1648L266.609 89.4034C267.195 89.5455 267.631 89.7628 267.918 90.0554C268.205 90.3452 268.348 90.7187 268.348 91.1761C268.348 91.5511 268.24 91.8864 268.024 92.1818C267.811 92.4773 267.513 92.7102 267.129 92.8807C266.746 93.0511 266.3 93.1364 265.791 93.1364C265.124 93.1364 264.571 92.9915 264.134 92.7017C263.696 92.4119 263.419 91.9886 263.303 91.4318L264.257 91.1932C264.348 91.5455 264.52 91.8097 264.773 91.9858C265.028 92.1619 265.362 92.25 265.774 92.25C266.243 92.25 266.615 92.1506 266.891 91.9517C267.169 91.75 267.308 91.5085 267.308 91.2273C267.308 91 267.229 90.8097 267.07 90.6562C266.911 90.5 266.666 90.3835 266.337 90.3068L265.246 90.0511C264.646 89.9091 264.206 89.6889 263.925 89.3906C263.646 89.0895 263.507 88.7131 263.507 88.2614C263.507 87.892 263.611 87.5653 263.818 87.2812C264.028 86.9972 264.314 86.7741 264.675 86.6122C265.038 86.4503 265.45 86.3693 265.911 86.3693C266.558 86.3693 267.067 86.5114 267.436 86.7955C267.808 87.0795 268.072 87.4545 268.229 87.9205ZM274.498 87.9205L273.595 88.1761C273.538 88.0256 273.454 87.8793 273.343 87.7372C273.235 87.5923 273.088 87.473 272.9 87.3793C272.713 87.2855 272.473 87.2386 272.18 87.2386C271.779 87.2386 271.446 87.331 271.179 87.5156C270.914 87.6974 270.782 87.929 270.782 88.2102C270.782 88.4602 270.873 88.6577 271.055 88.8026C271.237 88.9474 271.521 89.0682 271.907 89.1648L272.879 89.4034C273.464 89.5455 273.9 89.7628 274.187 90.0554C274.474 90.3452 274.618 90.7187 274.618 91.1761C274.618 91.5511 274.51 91.8864 274.294 92.1818C274.081 92.4773 273.782 92.7102 273.399 92.8807C273.015 93.0511 272.569 93.1364 272.061 93.1364C271.393 93.1364 270.841 92.9915 270.403 92.7017C269.966 92.4119 269.689 91.9886 269.572 91.4318L270.527 91.1932C270.618 91.5455 270.789 91.8097 271.042 91.9858C271.298 92.1619 271.632 92.25 272.044 92.25C272.512 92.25 272.885 92.1506 273.16 91.9517C273.439 91.75 273.578 91.5085 273.578 91.2273C273.578 91 273.498 90.8097 273.339 90.6562C273.18 90.5 272.936 90.3835 272.606 90.3068L271.515 90.0511C270.916 89.9091 270.475 89.6889 270.194 89.3906C269.916 89.0895 269.777 88.7131 269.777 88.2614C269.777 87.892 269.88 87.5653 270.088 87.2812C270.298 86.9972 270.583 86.7741 270.944 86.6122C271.308 86.4503 271.72 86.3693 272.18 86.3693C272.828 86.3693 273.336 86.5114 273.706 86.7955C274.078 87.0795 274.342 87.4545 274.498 87.9205Z" fill="#FF003C"/>
<path d="M297.835 58.4545V59.3068H294.307V58.4545H297.835ZM295.364 65V57.5511C295.364 57.1761 295.452 56.8636 295.628 56.6136C295.804 56.3636 296.033 56.1761 296.314 56.0511C296.595 55.9261 296.892 55.8636 297.205 55.8636C297.452 55.8636 297.653 55.8835 297.81 55.9233C297.966 55.9631 298.082 56 298.159 56.0341L297.869 56.9034C297.818 56.8864 297.747 56.8651 297.656 56.8395C297.568 56.8139 297.452 56.8011 297.307 56.8011C296.974 56.8011 296.734 56.8849 296.587 57.0526C296.442 57.2202 296.369 57.4659 296.369 57.7898V65H295.364ZM299.245 65V58.4545H300.216V59.4432H300.284C300.404 59.1193 300.62 58.8565 300.932 58.6548C301.245 58.4531 301.597 58.3523 301.989 58.3523C302.063 58.3523 302.155 58.3537 302.266 58.3565C302.377 58.3594 302.461 58.3636 302.517 58.3693V59.392C302.483 59.3835 302.405 59.3707 302.283 59.3537C302.164 59.3338 302.037 59.3239 301.904 59.3239C301.586 59.3239 301.301 59.3906 301.051 59.5241C300.804 59.6548 300.608 59.8366 300.463 60.0696C300.321 60.2997 300.25 60.5625 300.25 60.858V65H299.245ZM303.71 65V58.4545H304.715V65H303.71ZM304.221 57.3636C304.025 57.3636 303.856 57.2969 303.714 57.1634C303.575 57.0298 303.505 56.8693 303.505 56.6818C303.505 56.4943 303.575 56.3338 303.714 56.2003C303.856 56.0668 304.025 56 304.221 56C304.417 56 304.585 56.0668 304.724 56.2003C304.866 56.3338 304.937 56.4943 304.937 56.6818C304.937 56.8693 304.866 57.0298 304.724 57.1634C304.585 57.2969 304.417 57.3636 304.221 57.3636ZM307.563 61.0625V65H306.557V58.4545H307.529V59.4773H307.614C307.767 59.1449 308 58.8778 308.313 58.6761C308.625 58.4716 309.029 58.3693 309.523 58.3693C309.966 58.3693 310.354 58.4602 310.686 58.642C311.019 58.821 311.277 59.0938 311.462 59.4602C311.647 59.8239 311.739 60.2841 311.739 60.8409V65H310.733V60.9091C310.733 60.3949 310.6 59.9943 310.333 59.7074C310.066 59.4176 309.699 59.2727 309.233 59.2727C308.912 59.2727 308.625 59.3423 308.373 59.4815C308.123 59.6207 307.925 59.8239 307.78 60.0909C307.635 60.358 307.563 60.6818 307.563 61.0625ZM316.219 67.5909C315.733 67.5909 315.315 67.5284 314.966 67.4034C314.616 67.2812 314.325 67.1193 314.092 66.9176C313.862 66.7188 313.679 66.5057 313.543 66.2784L314.344 65.7159C314.435 65.8352 314.55 65.9716 314.689 66.125C314.828 66.2812 315.018 66.4162 315.26 66.5298C315.504 66.6463 315.824 66.7045 316.219 66.7045C316.747 66.7045 317.183 66.5767 317.527 66.321C317.871 66.0653 318.043 65.6648 318.043 65.1193V63.7898H317.957C317.884 63.9091 317.778 64.0568 317.642 64.233C317.509 64.4062 317.315 64.5611 317.062 64.6974C316.812 64.831 316.474 64.8977 316.048 64.8977C315.52 64.8977 315.045 64.7727 314.625 64.5227C314.207 64.2727 313.876 63.9091 313.632 63.4318C313.391 62.9545 313.27 62.375 313.27 61.6932C313.27 61.0227 313.388 60.4389 313.624 59.9418C313.859 59.4418 314.188 59.0554 314.608 58.7827C315.028 58.5071 315.514 58.3693 316.065 58.3693C316.491 58.3693 316.83 58.4403 317.08 58.5824C317.332 58.7216 317.526 58.8807 317.659 59.0597C317.795 59.2358 317.901 59.3807 317.974 59.4943H318.077V58.4545H319.048V65.1875C319.048 65.75 318.92 66.2074 318.665 66.5597C318.412 66.9148 318.071 67.1747 317.642 67.3395C317.216 67.5071 316.741 67.5909 316.219 67.5909ZM316.185 63.9943C316.588 63.9943 316.929 63.902 317.207 63.7173C317.486 63.5327 317.697 63.267 317.842 62.9205C317.987 62.5739 318.06 62.1591 318.06 61.6761C318.06 61.2045 317.989 60.7884 317.847 60.4276C317.705 60.0668 317.494 59.7841 317.216 59.5795C316.938 59.375 316.594 59.2727 316.185 59.2727C315.759 59.2727 315.403 59.3807 315.119 59.5966C314.838 59.8125 314.626 60.1023 314.484 60.4659C314.345 60.8295 314.276 61.233 314.276 61.6761C314.276 62.1307 314.347 62.5327 314.489 62.8821C314.634 63.2287 314.847 63.5014 315.128 63.7003C315.412 63.8963 315.764 63.9943 316.185 63.9943ZM323.634 65.1364C323.003 65.1364 322.459 64.9972 322.001 64.7188C321.547 64.4375 321.196 64.0455 320.949 63.5426C320.705 63.0369 320.582 62.4489 320.582 61.7784C320.582 61.108 320.705 60.517 320.949 60.0057C321.196 59.4915 321.54 59.0909 321.98 58.804C322.423 58.5142 322.94 58.3693 323.531 58.3693C323.872 58.3693 324.209 58.4261 324.541 58.5398C324.874 58.6534 325.176 58.8381 325.449 59.0938C325.722 59.3466 325.939 59.6818 326.101 60.0994C326.263 60.517 326.344 61.0312 326.344 61.642V62.0682H321.298V61.1989H325.321C325.321 60.8295 325.247 60.5 325.099 60.2102C324.955 59.9205 324.747 59.6918 324.477 59.5241C324.21 59.3565 323.895 59.2727 323.531 59.2727C323.131 59.2727 322.784 59.3722 322.491 59.571C322.202 59.767 321.979 60.0227 321.822 60.3381C321.666 60.6534 321.588 60.9915 321.588 61.3523V61.9318C321.588 62.4261 321.673 62.8452 321.844 63.1889C322.017 63.5298 322.257 63.7898 322.564 63.9688C322.871 64.1449 323.227 64.233 323.634 64.233C323.898 64.233 324.136 64.196 324.349 64.1222C324.565 64.0455 324.751 63.9318 324.908 63.7812C325.064 63.6278 325.185 63.4375 325.27 63.2102L326.241 63.483C326.139 63.8125 325.967 64.1023 325.726 64.3523C325.484 64.5994 325.186 64.7926 324.831 64.9318C324.476 65.0682 324.077 65.1364 323.634 65.1364Z" fill="#FF003C"/>
<line x1="297.85" y1="105.523" x2="348.85" y2="89.5229" stroke="black" stroke-dasharray="2 2"/>
<line x1="290.85" y1="83.5229" x2="341.85" y2="67.5229" stroke="black" stroke-dasharray="2 2"/>
<defs>
<linearGradient id="paint0_linear_115_7" x1="501.5" y1="207" x2="481.5" y2="217.5" gradientUnits="userSpaceOnUse">
<stop stop-color="white"/>
<stop offset="1" stop-color="#0999C9"/>
</linearGradient>
<linearGradient id="paint1_linear_115_7" x1="251.5" y1="96.5" x2="258.5" y2="118.5" gradientUnits="userSpaceOnUse">
<stop stop-color="white"/>
<stop offset="1" stop-color="#0999C9"/>
</linearGradient>
<linearGradient id="paint2_linear_115_7" x1="75.5" y1="185" x2="96.5" y2="182" gradientUnits="userSpaceOnUse">
<stop stop-color="white"/>
<stop offset="1" stop-color="#0999C9"/>
</linearGradient>
<linearGradient id="paint3_linear_115_7" x1="417.5" y1="233.5" x2="419" y2="213" gradientUnits="userSpaceOnUse">
<stop stop-color="white"/>
<stop offset="1" stop-color="#0999C9"/>
</linearGradient>
<linearGradient id="paint4_linear_115_7" x1="356.5" y1="161" x2="355" y2="181" gradientUnits="userSpaceOnUse">
<stop stop-color="white"/>
<stop offset="1" stop-color="#0999C9"/>
</linearGradient>
<linearGradient id="paint5_linear_115_7" x1="395" y1="154.5" x2="416.5" y2="146" gradientUnits="userSpaceOnUse">
<stop stop-color="white"/>
<stop offset="1" stop-color="#0999C9"/>
</linearGradient>
<linearGradient id="paint6_linear_115_7" x1="330" y1="145.5" x2="325" y2="129" gradientUnits="userSpaceOnUse">
<stop stop-color="white"/>
<stop offset="1" stop-color="#0999C9"/>
</linearGradient>
</defs>
</svg>
