<svg width="619" height="306" viewBox="0 0 619 306" fill="none" xmlns="http://www.w3.org/2000/svg">
<g clip-path="url(#clip0_117_101)">
<rect width="619" height="306" fill="white"/>
<path d="M219.5 59L220.5 167L240.5 34L219.5 59Z" fill="url(#paint0_linear_117_101)"/>
<path d="M160 203.5L208 215L220.5 165L200 34.5L160 203.5Z" fill="url(#paint1_linear_117_101)"/>
<path d="M220 58.5L221 168.5L200 34.5L220 58.5Z" fill="url(#paint2_linear_117_101)"/>
<path d="M220 168L232.5 216L280 203.5L240 34.5L220 168Z" fill="url(#paint3_linear_117_101)"/>
<path d="M240 34.5H200L220 60L240 34.5Z" fill="url(#paint4_linear_117_101)"/>
<rect x="95.167" y="243.192" width="413" height="52" fill="url(#paint5_linear_117_101)"/>
<path d="M339.078 269.328L445.737 294.692L320.237 244.192L339.078 269.328Z" fill="white" fill-opacity="0.2" stroke="black"/>
<path d="M106.424 244.076L106.424 294.186L157.961 294.611L280.014 244.076L106.424 244.076Z" fill="white" fill-opacity="0.2" stroke="black"/>
<path d="M261.374 269.147L157.667 294.692L280.014 244.076L261.374 269.147Z" fill="white" fill-opacity="0.2" stroke="black"/>
<path d="M446.237 294.692L494.237 294.692L493.569 243.386L319.9 243.78L446.237 294.692Z" fill="white" fill-opacity="0.2" stroke="black"/>
<path d="M351 203.5L399 215L411.5 165L391 34.5L351 203.5Z" fill="url(#paint6_linear_117_101)"/>
<path d="M411 168L423.5 216L471 203.5L431 34.5L411 168Z" fill="url(#paint7_linear_117_101)"/>
<path d="M431 35H391L411 168L431 35Z" fill="url(#paint8_linear_117_101)"/>
<path d="M319.167 244.192H279.167L299.167 269.692L319.167 244.192Z" fill="white" fill-opacity="0.2" stroke="black"/>
<path d="M200.5 34.5L160 203.5L208.5 215.5L220 167L232.5 215.5L280.5 203.5L240 34.5H200.5Z" stroke="black" stroke-width="2"/>
<path d="M391.5 34.5L351 203.5L399.5 215.5L411 167L423.5 215.5L471.5 203.5L431 34.5H391.5Z" stroke="black" stroke-width="2"/>
<path d="M184 209.5L219.578 60.5L256 209.5" stroke="black" stroke-dasharray="4 4"/>
<path d="M375 209.5L410.578 60.5L447 209.5" stroke="black" stroke-dasharray="4 4"/>
<line x1="219.505" y1="167.571" x2="200.505" y2="34.5707" stroke="black" stroke-opacity="0.5"/>
<line x1="410.505" y1="167.571" x2="391.505" y2="34.5707" stroke="black" stroke-opacity="0.5"/>
<line x1="157.977" y1="294.73" x2="280.058" y2="244.586" stroke="black"/>
<line x1="220.505" y1="168.43" x2="239.505" y2="34.4298" stroke="black" stroke-opacity="0.5"/>
<line x1="411.505" y1="168.43" x2="430.505" y2="34.4298" stroke="black" stroke-opacity="0.5"/>
<line x1="159.743" y1="203.071" x2="219.743" y2="167.071" stroke="black" stroke-opacity="0.5"/>
<line x1="350.743" y1="203.071" x2="410.743" y2="167.071" stroke="black" stroke-opacity="0.5"/>
<line x1="106.695" y1="244.469" x2="158.515" y2="294.834" stroke="black"/>
<line x1="239.5" y1="34.5166" x2="233.5" y2="215.517" stroke="black" stroke-opacity="0.5"/>
<line x1="430.5" y1="34.5166" x2="424.5" y2="215.517" stroke="black" stroke-opacity="0.5"/>
<line x1="319.808" y1="244.273" x2="494.873" y2="293.711" stroke="black"/>
<line x1="219.615" y1="57.8184" x2="200.615" y2="34.8184" stroke="black" stroke-opacity="0.5"/>
<line x1="220.197" y1="168.502" x2="218.803" y2="57.5108" stroke="black" stroke-opacity="0.5"/>
<circle cx="220" cy="58.5" r="3" fill="black"/>
<circle cx="411" cy="58.5" r="3" fill="black"/>
<circle cx="184" cy="209.5" r="3" fill="black"/>
<circle cx="375" cy="209.5" r="3" fill="black"/>
<circle cx="256" cy="209.5" r="3" fill="black"/>
<circle cx="447" cy="209.5" r="3" fill="black"/>
<path d="M78.7528 297.628C78.2642 297.626 77.8438 297.506 77.4915 297.267C77.1411 297.028 76.8712 296.683 76.6818 296.23C76.4943 295.777 76.4015 295.233 76.4034 294.597C76.4034 293.962 76.4972 293.421 76.6847 292.974C76.8741 292.527 77.1439 292.187 77.4943 291.955C77.8466 291.72 78.2661 291.602 78.7528 291.602C79.2396 291.602 79.6581 291.72 80.0085 291.955C80.3608 292.189 80.6316 292.53 80.821 292.977C81.0104 293.422 81.1042 293.962 81.1023 294.597C81.1023 295.235 81.0076 295.78 80.8182 296.233C80.6307 296.686 80.3617 297.031 80.0114 297.27C79.661 297.509 79.2415 297.628 78.7528 297.628ZM78.7528 296.608C79.0862 296.608 79.3523 296.44 79.5511 296.105C79.75 295.77 79.8485 295.267 79.8466 294.597C79.8466 294.155 79.8011 293.788 79.7102 293.494C79.6212 293.201 79.4943 292.98 79.3295 292.832C79.1667 292.685 78.9744 292.611 78.7528 292.611C78.4214 292.611 78.1563 292.777 77.9574 293.108C77.7585 293.439 77.6581 293.936 77.6562 294.597C77.6562 295.044 77.7008 295.417 77.7898 295.716C77.8807 296.013 78.0085 296.237 78.1733 296.386C78.3381 296.534 78.5312 296.608 78.7528 296.608ZM82.4638 297.574C82.2763 297.574 82.1153 297.508 81.9808 297.375C81.8482 297.241 81.782 297.08 81.782 296.892C81.782 296.706 81.8482 296.547 81.9808 296.415C82.1153 296.282 82.2763 296.216 82.4638 296.216C82.6456 296.216 82.8047 296.282 82.9411 296.415C83.0774 296.547 83.1456 296.706 83.1456 296.892C83.1456 297.017 83.1134 297.132 83.049 297.236C82.9865 297.338 82.9041 297.42 82.8018 297.483C82.6996 297.544 82.5869 297.574 82.4638 297.574ZM86.1747 297.628C85.6861 297.626 85.2656 297.506 84.9134 297.267C84.563 297.028 84.2931 296.683 84.1037 296.23C83.9162 295.777 83.8234 295.233 83.8253 294.597C83.8253 293.962 83.919 293.421 84.1065 292.974C84.2959 292.527 84.5658 292.187 84.9162 291.955C85.2685 291.72 85.688 291.602 86.1747 291.602C86.6615 291.602 87.08 291.72 87.4304 291.955C87.7827 292.189 88.0535 292.53 88.2429 292.977C88.4323 293.422 88.526 293.962 88.5241 294.597C88.5241 295.235 88.4295 295.78 88.2401 296.233C88.0526 296.686 87.7836 297.031 87.4332 297.27C87.0829 297.509 86.6634 297.628 86.1747 297.628ZM86.1747 296.608C86.508 296.608 86.7741 296.44 86.973 296.105C87.1719 295.77 87.2704 295.267 87.2685 294.597C87.2685 294.155 87.223 293.788 87.1321 293.494C87.0431 293.201 86.9162 292.98 86.7514 292.832C86.5885 292.685 86.3963 292.611 86.1747 292.611C85.8433 292.611 85.5781 292.777 85.3793 293.108C85.1804 293.439 85.08 293.936 85.0781 294.597C85.0781 295.044 85.1226 295.417 85.2116 295.716C85.3026 296.013 85.4304 296.237 85.5952 296.386C85.7599 296.534 85.9531 296.608 86.1747 296.608Z" fill="black"/>
<path d="M78.7528 272.628C78.2642 272.626 77.8438 272.506 77.4915 272.267C77.1411 272.028 76.8712 271.683 76.6818 271.23C76.4943 270.777 76.4015 270.233 76.4034 269.597C76.4034 268.962 76.4972 268.421 76.6847 267.974C76.8741 267.527 77.1439 267.187 77.4943 266.955C77.8466 266.72 78.2661 266.602 78.7528 266.602C79.2396 266.602 79.6581 266.72 80.0085 266.955C80.3608 267.189 80.6316 267.53 80.821 267.977C81.0104 268.422 81.1042 268.962 81.1023 269.597C81.1023 270.235 81.0076 270.78 80.8182 271.233C80.6307 271.686 80.3617 272.031 80.0114 272.27C79.661 272.509 79.2415 272.628 78.7528 272.628ZM78.7528 271.608C79.0862 271.608 79.3523 271.44 79.5511 271.105C79.75 270.77 79.8485 270.267 79.8466 269.597C79.8466 269.155 79.8011 268.788 79.7102 268.494C79.6212 268.201 79.4943 267.98 79.3295 267.832C79.1667 267.685 78.9744 267.611 78.7528 267.611C78.4214 267.611 78.1563 267.777 77.9574 268.108C77.7585 268.439 77.6581 268.936 77.6562 269.597C77.6562 270.044 77.7008 270.417 77.7898 270.716C77.8807 271.013 78.0085 271.237 78.1733 271.386C78.3381 271.534 78.5312 271.608 78.7528 271.608ZM82.4638 272.574C82.2763 272.574 82.1153 272.508 81.9808 272.375C81.8482 272.241 81.782 272.08 81.782 271.892C81.782 271.706 81.8482 271.547 81.9808 271.415C82.1153 271.282 82.2763 271.216 82.4638 271.216C82.6456 271.216 82.8047 271.282 82.9411 271.415C83.0774 271.547 83.1456 271.706 83.1456 271.892C83.1456 272.017 83.1134 272.132 83.049 272.236C82.9865 272.338 82.9041 272.42 82.8018 272.483C82.6996 272.544 82.5869 272.574 82.4638 272.574ZM86.206 272.58C85.8045 272.58 85.4465 272.506 85.1321 272.358C84.8196 272.21 84.5715 272.007 84.3878 271.747C84.2041 271.488 84.1084 271.19 84.1009 270.855H85.294C85.3073 271.08 85.402 271.263 85.5781 271.403C85.7543 271.544 85.9635 271.614 86.206 271.614C86.3991 271.614 86.5696 271.571 86.7173 271.486C86.867 271.399 86.9834 271.278 87.0668 271.125C87.152 270.97 87.1946 270.792 87.1946 270.591C87.1946 270.386 87.151 270.206 87.0639 270.051C86.9787 269.896 86.8603 269.775 86.7088 269.688C86.5573 269.6 86.384 269.556 86.1889 269.554C86.0185 269.554 85.8527 269.589 85.6918 269.659C85.5327 269.729 85.4086 269.825 85.3196 269.946L84.2259 269.75L84.5014 266.682H88.0582V267.688H85.5156L85.3651 269.145H85.3991C85.5014 269.001 85.6558 268.882 85.8622 268.787C86.0687 268.692 86.2997 268.645 86.5554 268.645C86.9058 268.645 87.2183 268.727 87.4929 268.892C87.7675 269.057 87.9844 269.283 88.1435 269.571C88.3026 269.857 88.3812 270.187 88.3793 270.56C88.3812 270.952 88.2902 271.3 88.1065 271.605C87.9247 271.908 87.67 272.147 87.3423 272.321C87.0166 272.493 86.6378 272.58 86.206 272.58Z" fill="black"/>
<path d="M79.0028 241.682V247.5H77.7727V242.849H77.7386L76.4062 243.685V242.594L77.8466 241.682H79.0028ZM80.7919 247.574C80.6044 247.574 80.4434 247.508 80.3089 247.375C80.1764 247.241 80.1101 247.08 80.1101 246.892C80.1101 246.706 80.1764 246.547 80.3089 246.415C80.4434 246.282 80.6044 246.216 80.7919 246.216C80.9737 246.216 81.1328 246.282 81.2692 246.415C81.4055 246.547 81.4737 246.706 81.4737 246.892C81.4737 247.017 81.4415 247.132 81.3771 247.236C81.3146 247.338 81.2322 247.42 81.13 247.483C81.0277 247.544 80.915 247.574 80.7919 247.574ZM84.5028 247.628C84.0142 247.626 83.5938 247.506 83.2415 247.267C82.8911 247.028 82.6212 246.683 82.4318 246.23C82.2443 245.777 82.1515 245.233 82.1534 244.597C82.1534 243.962 82.2472 243.421 82.4347 242.974C82.6241 242.527 82.8939 242.187 83.2443 241.955C83.5966 241.72 84.0161 241.602 84.5028 241.602C84.9896 241.602 85.4081 241.72 85.7585 241.955C86.1108 242.189 86.3816 242.53 86.571 242.977C86.7604 243.422 86.8542 243.962 86.8523 244.597C86.8523 245.235 86.7576 245.78 86.5682 246.233C86.3807 246.686 86.1117 247.031 85.7614 247.27C85.411 247.509 84.9915 247.628 84.5028 247.628ZM84.5028 246.608C84.8362 246.608 85.1023 246.44 85.3011 246.105C85.5 245.77 85.5985 245.267 85.5966 244.597C85.5966 244.155 85.5511 243.788 85.4602 243.494C85.3712 243.201 85.2443 242.98 85.0795 242.832C84.9167 242.685 84.7244 242.611 84.5028 242.611C84.1714 242.611 83.9063 242.777 83.7074 243.108C83.5085 243.439 83.4081 243.936 83.4062 244.597C83.4062 245.044 83.4508 245.417 83.5398 245.716C83.6307 246.013 83.7585 246.237 83.9233 246.386C84.0881 246.534 84.2812 246.608 84.5028 246.608Z" fill="black"/>
<line x1="495.354" y1="35.3606" x2="462.354" y2="68.3606" stroke="#FF003C"/>
<line x1="462.354" y1="34.6464" x2="495.354" y2="67.6464" stroke="#FF003C"/>
<path d="M257 52.5L272.5 68L300.5 40" stroke="#6DDF2C"/>
<line x1="220.615" y1="57.1816" x2="239.615" y2="34.1816" stroke="black" stroke-opacity="0.5"/>
<path d="M412 46L416.4 42.2622L410.963 40.3204L412 46ZM422 18L421.529 17.8318L413.043 41.594L413.514 41.7622L413.984 41.9303L422.471 18.1682L422 18Z" fill="#FF003C"/>
<path d="M413.83 8.45455C413.778 8.02273 413.571 7.6875 413.207 7.44886C412.844 7.21023 412.398 7.09091 411.869 7.09091C411.483 7.09091 411.145 7.15341 410.855 7.27841C410.568 7.40341 410.344 7.57528 410.182 7.79403C410.023 8.01278 409.943 8.26136 409.943 8.53977C409.943 8.77273 409.999 8.97301 410.109 9.14062C410.223 9.3054 410.368 9.44318 410.544 9.55398C410.72 9.66193 410.905 9.75142 411.098 9.82244C411.291 9.89062 411.469 9.94602 411.631 9.98864L412.517 10.2273C412.744 10.2869 412.997 10.3693 413.276 10.4744C413.557 10.5795 413.825 10.723 414.081 10.9048C414.339 11.0838 414.553 11.3139 414.72 11.5952C414.888 11.8764 414.972 12.2216 414.972 12.6307C414.972 13.1023 414.848 13.5284 414.601 13.9091C414.357 14.2898 413.999 14.5923 413.527 14.8168C413.058 15.0412 412.489 15.1534 411.818 15.1534C411.193 15.1534 410.652 15.0526 410.195 14.8509C409.74 14.6491 409.382 14.3679 409.121 14.0071C408.862 13.6463 408.716 13.2273 408.682 12.75H409.773C409.801 13.0795 409.912 13.3523 410.105 13.5682C410.301 13.7812 410.548 13.9403 410.847 14.0455C411.148 14.1477 411.472 14.1989 411.818 14.1989C412.222 14.1989 412.584 14.1335 412.905 14.0028C413.226 13.8693 413.48 13.6847 413.668 13.4489C413.855 13.2102 413.949 12.9318 413.949 12.6136C413.949 12.3239 413.868 12.0881 413.706 11.9062C413.544 11.7244 413.331 11.5767 413.067 11.4631C412.803 11.3494 412.517 11.25 412.21 11.1648L411.136 10.858C410.455 10.6619 409.915 10.3821 409.517 10.0185C409.119 9.65483 408.92 9.17898 408.92 8.59091C408.92 8.10227 409.053 7.67614 409.317 7.3125C409.584 6.94602 409.942 6.66193 410.391 6.46023C410.842 6.25568 411.347 6.15341 411.903 6.15341C412.466 6.15341 412.966 6.25426 413.403 6.45597C413.841 6.65483 414.188 6.92756 414.443 7.27415C414.702 7.62074 414.838 8.0142 414.852 8.45455H413.83ZM419.419 8.45455V9.30682H416.027V8.45455H419.419ZM417.016 6.88636H418.022V13.125C418.022 13.4091 418.063 13.6222 418.145 13.7642C418.23 13.9034 418.338 13.9972 418.469 14.0455C418.603 14.0909 418.743 14.1136 418.891 14.1136C419.002 14.1136 419.093 14.108 419.164 14.0966C419.235 14.0824 419.292 14.071 419.334 14.0625L419.539 14.9659C419.471 14.9915 419.375 15.017 419.253 15.0426C419.131 15.071 418.976 15.0852 418.789 15.0852C418.505 15.0852 418.226 15.0241 417.953 14.902C417.684 14.7798 417.459 14.5938 417.28 14.3438C417.104 14.0938 417.016 13.7784 417.016 13.3977V6.88636ZM420.932 15V8.45455H421.904V9.44318H421.972C422.091 9.11932 422.307 8.85653 422.62 8.65483C422.932 8.45312 423.284 8.35227 423.676 8.35227C423.75 8.35227 423.843 8.35369 423.953 8.35653C424.064 8.35937 424.148 8.36364 424.205 8.36932V9.39205C424.171 9.38352 424.093 9.37074 423.971 9.35369C423.851 9.33381 423.725 9.32386 423.591 9.32386C423.273 9.32386 422.989 9.39062 422.739 9.52415C422.492 9.65483 422.296 9.83665 422.151 10.0696C422.009 10.2997 421.938 10.5625 421.938 10.858V15H420.932ZM427.942 15.1364C427.311 15.1364 426.767 14.9972 426.31 14.7188C425.855 14.4375 425.505 14.0455 425.257 13.5426C425.013 13.0369 424.891 12.4489 424.891 11.7784C424.891 11.108 425.013 10.517 425.257 10.0057C425.505 9.49148 425.848 9.09091 426.289 8.80398C426.732 8.5142 427.249 8.36932 427.84 8.36932C428.181 8.36932 428.517 8.42614 428.85 8.53977C429.182 8.65341 429.485 8.83807 429.757 9.09375C430.03 9.34659 430.248 9.68182 430.409 10.0994C430.571 10.517 430.652 11.0312 430.652 11.642V12.0682H425.607V11.1989H429.63C429.63 10.8295 429.556 10.5 429.408 10.2102C429.263 9.92045 429.056 9.69176 428.786 9.52415C428.519 9.35653 428.203 9.27273 427.84 9.27273C427.439 9.27273 427.093 9.37216 426.8 9.57102C426.51 9.76705 426.287 10.0227 426.131 10.3381C425.975 10.6534 425.897 10.9915 425.897 11.3523V11.9318C425.897 12.4261 425.982 12.8452 426.152 13.1889C426.326 13.5298 426.566 13.7898 426.873 13.9688C427.179 14.1449 427.536 14.233 427.942 14.233C428.206 14.233 428.445 14.196 428.658 14.1222C428.874 14.0455 429.06 13.9318 429.216 13.7812C429.373 13.6278 429.493 13.4375 429.578 13.2102L430.55 13.483C430.448 13.8125 430.276 14.1023 430.034 14.3523C429.793 14.5994 429.495 14.7926 429.14 14.9318C428.784 15.0682 428.385 15.1364 427.942 15.1364ZM435.029 8.45455V9.30682H431.637V8.45455H435.029ZM432.625 6.88636H433.631V13.125C433.631 13.4091 433.672 13.6222 433.755 13.7642C433.84 13.9034 433.948 13.9972 434.078 14.0455C434.212 14.0909 434.353 14.1136 434.5 14.1136C434.611 14.1136 434.702 14.108 434.773 14.0966C434.844 14.0824 434.901 14.071 434.944 14.0625L435.148 14.9659C435.08 14.9915 434.985 15.017 434.863 15.0426C434.74 15.071 434.586 15.0852 434.398 15.0852C434.114 15.0852 433.836 15.0241 433.563 14.902C433.293 14.7798 433.069 14.5938 432.89 14.3438C432.713 14.0938 432.625 13.7784 432.625 13.3977V6.88636ZM439.13 15.1364C438.517 15.1364 437.988 14.9915 437.545 14.7017C437.102 14.4119 436.761 14.0128 436.522 13.5043C436.284 12.9957 436.164 12.4148 436.164 11.7614C436.164 11.0966 436.287 10.5099 436.531 10.0014C436.778 9.49006 437.122 9.09091 437.562 8.80398C438.005 8.5142 438.522 8.36932 439.113 8.36932C439.574 8.36932 439.988 8.45455 440.358 8.625C440.727 8.79545 441.029 9.03409 441.265 9.34091C441.501 9.64773 441.647 10.0057 441.704 10.4148H440.699C440.622 10.1165 440.451 9.85227 440.187 9.62216C439.926 9.3892 439.574 9.27273 439.13 9.27273C438.738 9.27273 438.395 9.375 438.099 9.57955C437.806 9.78125 437.578 10.0668 437.413 10.4361C437.251 10.8026 437.17 11.233 437.17 11.7273C437.17 12.233 437.25 12.6733 437.409 13.0483C437.571 13.4233 437.798 13.7145 438.091 13.9219C438.386 14.1293 438.733 14.233 439.13 14.233C439.392 14.233 439.629 14.1875 439.842 14.0966C440.055 14.0057 440.235 13.875 440.383 13.7045C440.531 13.5341 440.636 13.3295 440.699 13.0909H441.704C441.647 13.4773 441.507 13.8253 441.282 14.1349C441.061 14.4418 440.767 14.6861 440.4 14.8679C440.037 15.0469 439.613 15.1364 439.13 15.1364ZM444.18 11.0625V15H443.174V6.27273H444.18V9.47727H444.265C444.419 9.1392 444.649 8.87074 444.956 8.67188C445.265 8.47017 445.677 8.36932 446.191 8.36932C446.637 8.36932 447.028 8.45881 447.363 8.63778C447.699 8.81392 447.958 9.08523 448.143 9.4517C448.331 9.81534 448.424 10.2784 448.424 10.8409V15H447.419V10.9091C447.419 10.3892 447.284 9.98722 447.014 9.70312C446.747 9.41619 446.376 9.27273 445.902 9.27273C445.572 9.27273 445.277 9.34233 445.015 9.48153C444.757 9.62074 444.552 9.82386 444.402 10.0909C444.254 10.358 444.18 10.6818 444.18 11.0625ZM450.264 15V8.45455H451.27V15H450.264ZM450.776 7.36364C450.58 7.36364 450.411 7.29688 450.268 7.16335C450.129 7.02983 450.06 6.86932 450.06 6.68182C450.06 6.49432 450.129 6.33381 450.268 6.20028C450.411 6.06676 450.58 6 450.776 6C450.972 6 451.139 6.06676 451.278 6.20028C451.42 6.33381 451.491 6.49432 451.491 6.68182C451.491 6.86932 451.42 7.02983 451.278 7.16335C451.139 7.29688 450.972 7.36364 450.776 7.36364ZM454.118 11.0625V15H453.112V8.45455H454.083V9.47727H454.169C454.322 9.14489 454.555 8.87784 454.868 8.67614C455.18 8.47159 455.583 8.36932 456.078 8.36932C456.521 8.36932 456.909 8.46023 457.241 8.64205C457.574 8.82102 457.832 9.09375 458.017 9.46023C458.201 9.82386 458.294 10.2841 458.294 10.8409V15H457.288V10.9091C457.288 10.3949 457.154 9.99432 456.887 9.70739C456.62 9.41761 456.254 9.27273 455.788 9.27273C455.467 9.27273 455.18 9.34233 454.927 9.48153C454.677 9.62074 454.48 9.82386 454.335 10.0909C454.19 10.358 454.118 10.6818 454.118 11.0625ZM462.773 17.5909C462.288 17.5909 461.87 17.5284 461.521 17.4034C461.171 17.2812 460.88 17.1193 460.647 16.9176C460.417 16.7188 460.234 16.5057 460.097 16.2784L460.898 15.7159C460.989 15.8352 461.104 15.9716 461.244 16.125C461.383 16.2812 461.573 16.4162 461.815 16.5298C462.059 16.6463 462.379 16.7045 462.773 16.7045C463.302 16.7045 463.738 16.5767 464.082 16.321C464.425 16.0653 464.597 15.6648 464.597 15.1193V13.7898H464.512C464.438 13.9091 464.333 14.0568 464.197 14.233C464.063 14.4062 463.87 14.5611 463.617 14.6974C463.367 14.831 463.029 14.8977 462.603 14.8977C462.075 14.8977 461.6 14.7727 461.18 14.5227C460.762 14.2727 460.431 13.9091 460.187 13.4318C459.945 12.9545 459.825 12.375 459.825 11.6932C459.825 11.0227 459.942 10.4389 460.178 9.94176C460.414 9.44176 460.742 9.0554 461.163 8.78267C461.583 8.5071 462.069 8.36932 462.62 8.36932C463.046 8.36932 463.384 8.44034 463.634 8.58239C463.887 8.72159 464.08 8.88068 464.214 9.05966C464.35 9.2358 464.455 9.38068 464.529 9.49432H464.631V8.45455H465.603V15.1875C465.603 15.75 465.475 16.2074 465.219 16.5597C464.967 16.9148 464.626 17.1747 464.197 17.3395C463.771 17.5071 463.296 17.5909 462.773 17.5909ZM462.739 13.9943C463.143 13.9943 463.484 13.902 463.762 13.7173C464.04 13.5327 464.252 13.267 464.397 12.9205C464.542 12.5739 464.614 12.1591 464.614 11.6761C464.614 11.2045 464.543 10.7884 464.401 10.4276C464.259 10.0668 464.049 9.78409 463.771 9.57955C463.492 9.375 463.148 9.27273 462.739 9.27273C462.313 9.27273 461.958 9.38068 461.674 9.59659C461.393 9.8125 461.181 10.1023 461.039 10.4659C460.9 10.8295 460.83 11.233 460.83 11.6761C460.83 12.1307 460.901 12.5327 461.043 12.8821C461.188 13.2287 461.401 13.5014 461.683 13.7003C461.967 13.8963 462.319 13.9943 462.739 13.9943Z" fill="#FF003C"/>
</g>
<defs>
<linearGradient id="paint0_linear_117_101" x1="269" y1="152.5" x2="220" y2="165.5" gradientUnits="userSpaceOnUse">
<stop stop-color="white"/>
<stop offset="0.240385" stop-color="#0999C9"/>
<stop offset="0.759615" stop-color="#0999C9"/>
<stop offset="1" stop-color="#F5F5F5"/>
</linearGradient>
<linearGradient id="paint1_linear_117_101" x1="160" y1="203" x2="209" y2="215" gradientUnits="userSpaceOnUse">
<stop stop-color="white"/>
<stop offset="0.240385" stop-color="#0999C9"/>
<stop offset="0.759615" stop-color="#0999C9"/>
<stop offset="1" stop-color="#F5F5F5"/>
</linearGradient>
<linearGradient id="paint2_linear_117_101" x1="173" y1="156" x2="220" y2="166.5" gradientUnits="userSpaceOnUse">
<stop stop-color="white"/>
<stop offset="0.240385" stop-color="#0999C9"/>
<stop offset="0.759615" stop-color="#0999C9"/>
<stop offset="1" stop-color="#F5F5F5"/>
</linearGradient>
<linearGradient id="paint3_linear_117_101" x1="280" y1="204" x2="233" y2="216" gradientUnits="userSpaceOnUse">
<stop stop-color="white"/>
<stop offset="0.240385" stop-color="#0999C9"/>
<stop offset="0.759615" stop-color="#0999C9"/>
<stop offset="1" stop-color="#F5F5F5"/>
</linearGradient>
<linearGradient id="paint4_linear_117_101" x1="219.5" y1="34.5" x2="221" y2="81" gradientUnits="userSpaceOnUse">
<stop stop-color="white"/>
<stop offset="0.240385" stop-color="#0999C9"/>
<stop offset="0.759615" stop-color="#0999C9"/>
<stop offset="1" stop-color="#F5F5F5"/>
</linearGradient>
<linearGradient id="paint5_linear_117_101" x1="301.667" y1="243.192" x2="301.667" y2="295.192" gradientUnits="userSpaceOnUse">
<stop stop-color="white"/>
<stop offset="0.240385" stop-color="#0999C9"/>
<stop offset="0.759615" stop-color="#0999C9"/>
<stop offset="1" stop-color="#F5F5F5"/>
</linearGradient>
<linearGradient id="paint6_linear_117_101" x1="351" y1="203" x2="400" y2="215" gradientUnits="userSpaceOnUse">
<stop stop-color="white"/>
<stop offset="0.240385" stop-color="#0999C9"/>
<stop offset="0.759615" stop-color="#0999C9"/>
<stop offset="1" stop-color="#F5F5F5"/>
</linearGradient>
<linearGradient id="paint7_linear_117_101" x1="471" y1="204" x2="424" y2="216" gradientUnits="userSpaceOnUse">
<stop stop-color="white"/>
<stop offset="0.240385" stop-color="#0999C9"/>
<stop offset="0.759615" stop-color="#0999C9"/>
<stop offset="1" stop-color="#F5F5F5"/>
</linearGradient>
<linearGradient id="paint8_linear_117_101" x1="410.5" y1="35" x2="431.482" y2="164.603" gradientUnits="userSpaceOnUse">
<stop stop-color="white"/>
<stop offset="0.240385" stop-color="#0999C9"/>
<stop offset="0.759615" stop-color="#0999C9"/>
<stop offset="1" stop-color="#F5F5F5"/>
</linearGradient>
<clipPath id="clip0_117_101">
<rect width="619" height="306" fill="white"/>
</clipPath>
</defs>
</svg>
